<svg class="svgOrigin" xmlns="http://www.w3.org/2000/svg" width="400" height="400"><path fill="red" d="M396.257 369.416c0 15.674-12.824 28.498-28.498 28.498H32.24c-15.674 0-28.498-12.824-28.498-28.498V30.584c0-15.674 12.824-28.498 28.498-28.498H367.76c15.674 0 28.498 12.824 28.498 28.498v338.832z"/><path fill="none" stroke="#FFF" stroke-width="11.399" d="M185.634 77.639c-13.163 2.143-12.568 8.672-12.568 12.568 0 3.896-6.585 5.994-5.688 7.787.896 1.792 7.48-1.503 8.977 1.792l1.498 3.295s.852 7.041 6.24 7.041 4.174 8.343.834 8.789c-3.34.445-8.27-.262-9.467 3.028-1.197 3.289 1.491 18.857-9.88 26.338l-11.372 7.48s-8.977 5.389-13.168 8.082c-4.192 2.694-.307 15.869 9.874 8.684 10.18-7.187 21.25-15.864 24.245-18.558 2.994-2.694 6.29 4.793 5.989 9.58-.3 4.786 3.885 10.168 2.093 12.267-1.792 2.098-12.268 14.972-18.257 32.925-5.989 17.956-9.573 35.923-10.475 38.918-.902 2.984-9.88 10.765-12.273 11.366-2.393.601-3.89 5.989 1.197 5.688 5.087-.3 14.07-.602 17.66-.602s7.18-4.786 7.18-10.173c0-5.39 10.476-35.323 17.361-43.104 6.885-7.778 11.972-10.478 11.972-1.792 0 8.683 8.388 20.35 14.371 26.94 5.984 6.579 12.057 14.46 11.373 16.463-.668 1.949-4.276 5.444-6.369 6.936-2.092 1.503-2.499 12.456 5.583 6.769 8.082-5.689 14.55-9.218 15.15-12.212.602-2.995 2.4-8.072-5.983-23.645-8.381-15.562-18.072-37.751-18.072-45.238 0-7.486 2.805-6.39 1.308-16.864-1.497-10.476-6.485-18.72-4.988-23.511 1.498-4.793 9.18 2.11 9.48 6.595.3 4.486 3.89 17.956 3.89 20.65 0 2.694 4.492 7.782 8.382 7.782 3.891 0 9.88-.897 4.192-9.875-5.689-8.977-5.683-10.18-6.585-17.66-.902-7.481-6.29-21.257-15.568-27.24-9.278-5.984-12.568-11.672-13.765-14.066-1.196-2.393-.3-8.388-.6-12.573-.301-4.186 6.884-3.885 6.884-6.88 0-2.994-6.879-1.798-7.48-4.491-.602-2.694-.306-11.372-13.175-9.28z"/><path fill="none" stroke="#FFF" stroke-width="2.85" d="M367.759 392.215H32.244c-12.568 0-22.801-10.23-22.801-22.799V30.589c0-12.567 10.233-22.803 22.8-22.803H367.76c12.568 0 22.803 10.236 22.803 22.803v338.827c0 12.568-10.235 22.799-22.803 22.799h0z"/><path fill="#FFF" d="M330.745 200.007V83.767c0-4.308-1.753-8.221-4.586-11.054a15.584 15.584 0 00-11.06-4.592H89.412l241.333 241.327v-109.44zM69.258 200.007V316.24c0 4.32 1.756 8.227 4.589 11.054a15.567 15.567 0 0011.054 4.586H312.856L69.258 88.28v111.726z"/><path fill="#0334A6" d="M185.634 77.639c-13.163 2.143-12.568 8.672-12.568 12.568 0 3.896-6.585 5.994-5.688 7.787.896 1.792 7.48-1.503 8.977 1.792l1.498 3.295s.852 7.041 6.24 7.041 4.174 8.343.834 8.789c-3.34.445-8.27-.262-9.467 3.028-1.197 3.289 1.491 18.857-9.88 26.338l-11.372 7.48s-8.977 5.389-13.168 8.082c-4.192 2.694-.307 15.869 9.874 8.684 10.18-7.187 21.25-15.864 24.245-18.558 2.994-2.694 6.29 4.793 5.989 9.58-.3 4.786 3.885 10.168 2.093 12.267-1.792 2.098-12.268 14.972-18.257 32.925-5.989 17.956-9.573 35.923-10.475 38.918-.902 2.984-9.88 10.765-12.273 11.366-2.393.601-3.89 5.989 1.197 5.688 5.087-.3 14.07-.602 17.66-.602s7.18-4.786 7.18-10.173c0-5.39 10.476-35.323 17.361-43.104 6.885-7.778 11.972-10.478 11.972-1.792 0 8.683 8.388 20.35 14.371 26.94 5.984 6.579 12.057 14.46 11.373 16.463-.668 1.949-4.276 5.444-6.369 6.936-2.092 1.503-2.499 12.456 5.583 6.769 8.082-5.689 14.55-9.218 15.15-12.212.602-2.995 2.4-8.072-5.983-23.645-8.381-15.562-18.072-37.751-18.072-45.238 0-7.486 2.805-6.39 1.308-16.864-1.497-10.476-6.485-18.72-4.988-23.511 1.498-4.793 9.18 2.11 9.48 6.595.3 4.486 3.89 17.956 3.89 20.65 0 2.694 4.492 7.782 8.382 7.782 3.891 0 9.88-.897 4.192-9.875-5.689-8.977-5.683-10.18-6.585-17.66-.902-7.481-6.29-21.257-15.568-27.24-9.278-5.984-12.568-11.672-13.765-14.066-1.196-2.393-.3-8.388-.6-12.573-.301-4.186 6.884-3.885 6.884-6.88 0-2.994-6.879-1.798-7.48-4.491-.602-2.694-.306-11.372-13.175-9.28z"/><path fill="none" stroke="#0334A6" stroke-width="5.7" stroke-linecap="round" stroke-linejoin="round" d="M119.582 279.125h9.368l-4.931 5.911M121.898 282.242l3.829 5.254M114.595 317.508v-27.162h21.463v30.457c0 1.781-5.61-.267-5.61-.267M114.595 308.869h21.463M114.595 300.053h21.463M125.371 290.346v25.381M97.945 280.305l5.101 5.521"/><path fill="none" stroke="#0334A6" stroke-width="5.7" stroke-linecap="round" stroke-linejoin="round" d="M99.186 298.094h9.217l-3.863 4.686s7.2 2.928 5.269 6.646c-1.932 3.73-10.623 14.038-10.623 14.038s3.724-5.377 6.618-4.408c2.894.957 4.828 6.478 13.1 6.478H138.2M165.096 280.772s-7.353 10.598-10.002 13.248M168.335 289.9s-7.942 13.538-11.772 17.356M162.691 298.995v24.157M173.634 296.079h22.364M191.879 277.834h-15.011M187.17 296.08v21.183c0 4.42-8.532 7.948-8.532 7.948M216.893 323.152h38.555M237.498 323.152v-44.149M225.726 323.152v-32.083M237.498 298.729h15.301"/></svg>