<svg class="svgOrigin" xmlns="http://www.w3.org/2000/svg" width="400" height="400"><circle fill="red" cx="200" cy="200" r="197.284"/><circle fill="none" stroke="#FFF" stroke-width="5.637" cx="200" cy="200" r="188.83"/><path fill="#0334A6" d="M80.893 251.11l90.643-51.351-90.474-51.248C74.22 164.297 70.407 181.7 70.407 200c0 18.156 3.741 35.426 10.486 51.11zM318.19 250.44l1.092.277c6.633-15.575 10.31-32.718 10.31-50.717 0-18.252-3.791-35.618-10.599-51.374l-90.266 51.133 89.463 50.68zM305.04 124.139C281.493 91.596 243.234 70.407 200 70.407c-43.183 0-81.412 21.14-104.967 53.617l105.093 59.538L305.04 124.14zM96.266 274.794l-1.155 1.278c23.546 32.423 61.748 53.522 104.889 53.522 43.379 0 81.759-21.34 105.287-54.07l-105.154-59.569-103.867 58.839z"/></svg>