<svg class="svgOrigin" xmlns="http://www.w3.org/2000/svg" width="400" height="400"><path fill="#0334A6" d="M396.999 200c0 108.803-88.201 197.005-196.994 197.005C91.202 397.005 3.001 308.803 3.001 200S91.202 2.996 200.005 2.996C308.798 2.996 397 91.196 397 200z"/><path fill="#FFF" d="M153.893 256.166c-15.594 0-20.783-6.645-29.732-6.645-8.949 0-13.286 1.737-13.286 5.485v23.68c0 6.645-6.931 8.949-12.417 8.949s-10.68-3.463-10.68-8.949v-24.542c0-6.35-8.372-10.972-8.372-15.881V193.8c0-16.166 1.732-18.48 3.755-20.498 2.022-2.017 10.103-7.508 21.651-39.557 11.549-32.05 22.52-38.69 32.046-38.69h126.284c9.525 0 20.497 6.64 32.045 38.69 11.55 32.049 19.63 37.54 21.653 39.557 2.022 2.017 3.754 4.332 3.754 20.498v44.463c0 4.909-8.371 9.532-8.371 15.88v24.543c0 5.486-5.196 8.949-10.681 8.949-5.485 0-12.417-2.303-12.417-8.949v-23.68c0-3.748-4.337-5.485-13.286-5.485-8.948 0-14.138 6.645-29.732 6.645h-92.214z"/><path fill="#0334A6" d="M192.585 150.202h-75.647c-3.177 0-1.148-7.217 1.446-13.28 2.595-6.063 8.948-23.966 20.497-23.966h53.704v37.246z"/><path fill="none" stroke="#FFF" stroke-width="5.629" d="M388.556 200c0 104.137-84.42 188.561-188.55 188.561-104.142 0-188.562-84.424-188.562-188.561 0-104.142 84.42-188.561 188.561-188.561 104.132 0 188.55 84.419 188.55 188.561z"/><path fill="#0334A6" d="M229.936 225.56v-36.378c0-10.103-14.149-23.68-29.936-23.68s-29.936 13.577-29.936 23.68v36.378h59.872zM207.415 150.202h75.646c3.178 0 1.15-7.217-1.445-13.28-2.595-6.063-8.949-23.966-20.497-23.966h-53.704v37.246z"/><circle fill="#0334A6" cx="296.634" cy="194.954" r="15.589"/><circle fill="#0334A6" cx="103.367" cy="194.954" r="15.589"/><path fill="#0334A6" d="M246.756 177.023a2.81 2.81 0 01.527-3.946c.226-.143 11.505-8.842 26.94-9.81 14.495-.862 22.641-.862 22.691-.862a2.814 2.814 0 012.82 2.811 2.82 2.82 0 01-2.82 2.81c-.027 0-7.981 0-22.355.862-6.712.396-12.743 2.573-17.046 4.667-4.331 2.094-6.81 3.996-6.822 3.996h.011a2.846 2.846 0 01-1.709.577 2.807 2.807 0 01-2.237-1.105zM153.245 177.023a2.81 2.81 0 00-.528-3.946c-.226-.143-11.505-8.842-26.94-9.81-14.495-.862-22.641-.862-22.69-.862a2.815 2.815 0 00-2.82 2.811 2.82 2.82 0 002.82 2.81c.027 0 7.98 0 22.355.862 6.711.396 12.741 2.573 17.045 4.667 4.332 2.094 6.81 3.996 6.822 3.996h-.011a2.848 2.848 0 001.71.577c.851 0 1.687-.384 2.237-1.105zM305.576 233.662H94.423a5.412 5.412 0 00-5.408 5.41c0 2.979 2.43 5.397 5.408 5.397h211.153c2.98 0 5.41-2.418 5.41-5.398 0-2.99-2.43-5.409-5.41-5.409z"/></svg>