<svg class="svgOrigin" xmlns="http://www.w3.org/2000/svg" width="400" height="400"><path fill="#0334A6" d="M397.645 369.237c0 14.834-12.136 26.97-26.97 26.97H29.326c-14.834 0-26.97-12.136-26.97-26.97V30.763c0-14.834 12.136-26.97 26.97-26.97h341.35c14.834 0 26.97 12.136 26.97 26.97v338.474z"/><path fill="none" stroke="#FFF" stroke-width="2.697" d="M370.676 390.803H29.325c-11.9 0-21.576-9.677-21.576-21.566V30.763c0-11.894 9.676-21.566 21.576-21.566h341.35c11.9 0 21.577 9.672 21.577 21.566v338.474c0 11.889-9.677 21.566-21.576 21.566h0z"/><path fill="#FFF" d="M368.537 185.35H266.056v-76.822l-66.067-47.53-66.066 47.53v76.823H31.443v32.674h102.48v140.019l66.066-47.53 66.067 47.53V218.025h102.481z"/></svg>