<svg class="svgOrigin" xmlns="http://www.w3.org/2000/svg" width="400" height="400"><path fill="#0334A6" d="M396.994 200c0 108.8-88.2 197-196.989 197-108.8 0-197-88.2-197-197s88.2-197 197-197c108.79 0 196.99 88.2 196.99 197z"/><path fill="none" stroke="#FFF" stroke-width="5.629" d="M388.552 200c0 104.134-84.418 188.558-188.547 188.558-104.14 0-188.557-84.424-188.557-188.558 0-104.14 84.418-188.557 188.557-188.557 104.129 0 188.547 84.417 188.547 188.557z"/><path fill="#FFF" d="M291.167 199.786a41.19 41.19 0 00-11.943 1.776l-14.776-38.802 8.135-14.928h11.346c9.64 0 1.61-11.252-12.885-11.252-14.494 0-20.937 11.252-17.716 11.252h12.846l-8.365 15.352H157.637c1.798-5.794 3.282-10.323 4.079-12.264.429-1.093.703-2.132.703-3.265.05-2.759-1.885-4.787-3.545-5.716-2.572-1.528-5.425-2.303-7.454-3.628-1.99-1.369-3.078-2.468-3.182-5.76.297-5.068 1.979-5.08 6.953-5.519 3.969-.028 8.696 1.05 12.379 1.083a2.82 2.82 0 002.814-2.814 2.81 2.81 0 00-2.814-2.804v-.01c-2.562.032-7.597-1.078-12.379-1.09-2.875.012-5.859.375-8.448 2.128-2.622 1.753-4.194 5.046-4.122 9.026-.122 7.063 5.029 10.559 8.739 12.087 1.896.846 3.617 1.5 4.557 2.1 1 .687.835.654.885.917 0 .127-.06.534-.314 1.193-2.907 7.135-13.021 41.918-17.567 57.666a40.803 40.803 0 00-22.481-6.728c-22.685 0-41.06 18.392-41.06 41.06 0 22.678 18.375 41.054 41.06 41.065 22.68-.01 41.054-18.387 41.065-41.065-.005-12.192-5.354-23.109-13.796-30.633 1.039-3.59 2.49-8.613 4.133-14.253l43.067 38.515c-.72 2.138-1.199 4.392-1.199 6.772 0 11.785 9.553 21.332 21.344 21.344.274 0 .533-.072.807-.083l2.194 9.432a2.807 2.807 0 003.375 2.106 2.801 2.801 0 002.105-3.37l-2.127-9.163a21.202 21.202 0 0014.73-17.859h18.107c1.462 21.36 19.194 38.246 40.922 38.257 22.68-.01 41.055-18.391 41.065-41.065-.01-22.68-18.385-41.06-41.065-41.06zm-139.301 41.06c-.033 19.568-15.858 35.392-35.426 35.426-19.568-.034-35.393-15.858-35.432-35.426.039-19.569 15.864-35.393 35.432-35.432 7.8.017 14.984 2.567 20.827 6.838-.165.588-.314 1.104-.413 1.44l-17.512 19.667a7.952 7.952 0 00-2.897-.56 8.053 8.053 0 108.053 8.053c0-1.359-.368-2.618-.962-3.739l17.963-20.156.385-.709c6.156 6.371 9.965 15.028 9.982 24.598zm122.108-37.251c-13.263 6.135-22.674 19.117-23.729 34.426h-18.188a21.526 21.526 0 00-.336-1.803c-.011-.067.011-.132-.005-.198-.033-.143-.121-.247-.171-.38-.67-2.44-1.71-4.721-3.139-6.733l32.497-59.639 13.07 34.327zm9.685 34.426h-27.77c1.04-12.907 8.955-23.823 20.096-29.133l9.884 25.95a7.983 7.983 0 00-2.21 3.183zm-58.407-3.37l-9.943 2.314c-1.035-1.023-2.447-1.632-4.002-1.704l-2.21-9.526c.648-.082 1.286-.198 1.957-.198 6.304.012 11.702 3.75 14.198 9.114zm-19.679.786l-7.387-3.155c1.424-2.034 3.33-3.667 5.53-4.837l1.857 7.992zm-55.45-45.001c-.17-.154-.374-.226-.566-.33a2313.507 2313.507 0 016.37-21.371c.127.022.242.077.375.077h98.44l-30.425 55.84c-3.65-2.923-8.223-4.743-13.263-4.749-1.11 0-2.177.165-3.238.33l-2.347-10.119 2.512-.165a2.806 2.806 0 002.627-2.996c-.098-1.55-1.445-2.72-2.995-2.627l-10.438.693a2.825 2.825 0 00-2.622 3 2.82 2.82 0 002.82 2.629c.055 0 .115 0 .175-.006l2.232-.149 2.622 11.28a21.456 21.456 0 00-8.954 7.425l-43.325-38.762zm45.221 50.811c0-1.33.22-2.605.533-3.837l9.152 3.914c.028 2.22 1.292 4.084 3.1 5.107l2.43 10.47c-8.437-.274-15.204-7.156-15.215-15.654zm20.789 14.786l-2.22-9.558c1.164-.644 2.137-1.59 2.67-2.82h9.928c-.903 5.804-4.958 10.51-10.378 12.378zm75.034 20.244c-18.617-.039-33.82-14.368-35.277-32.623h27.758c1.143 3.062 4.068 5.25 7.525 5.25a8.053 8.053 0 100-16.105c-.017 0-.033.005-.05.005l-9.877-25.939c3.15-.918 6.47-1.44 9.921-1.445 19.568.027 35.393 15.857 35.427 35.426-.034 19.573-15.859 35.392-35.427 35.431z"/></svg>