<svg class="svgOrigin" xmlns="http://www.w3.org/2000/svg" width="400" height="400"><path fill="red" d="M200 390.458c-18.318 0-27.714-14.564-45.09-49.317C137.533 306.387 26.617 97.595 11.117 68.943-4.383 40.29-.557 9.542 39.838 9.542h320.324c40.396 0 44.22 30.749 28.72 59.4-15.5 28.653-126.414 237.445-143.791 272.199-17.377 34.753-26.773 49.317-45.091 49.317z"/><path fill="none" stroke="#FFF" stroke-width="2.818" d="M200.005 384.833c-14.503 0-22.726-11.548-40.054-46.203C142.195 303.084 31.343 94.48 16.071 66.257c-8.355-15.459-10.07-30.182-4.585-39.388 5.763-9.66 18.596-11.691 28.35-11.691h320.326c9.753 0 22.595 2.031 28.347 11.69 5.498 9.207 3.781 23.93-4.585 39.389-14.978 27.675-126.586 237.796-143.881 272.373-17.321 34.655-25.54 46.203-40.038 46.203h0z"/><path fill="#FFF" d="M200 300.75L72.715 64.025h254.57z"/><g fill="#0334A6"><path d="M119.814 116.015c10.019-10.064 17.823-23.63 17.928-23.78 1.172-2.018.473-4.602-1.53-5.775-2.015-1.17-4.613-.487-5.774 1.53h-.011c0 .036-7.64 13.114-16.607 22.042a4.232 4.232 0 003 7.219 4.23 4.23 0 002.994-1.236zM183.201 132.181a4.233 4.233 0 004.233-4.227 4.232 4.232 0 00-4.233-4.224h-16.43v-6.84h6.5a4.244 4.244 0 004.239-4.235c0-.118-.055-.215-.066-.33.732.902 1.453 1.775 2.19 2.7a4.218 4.218 0 003.303 1.587c.93.003 1.86-.302 2.642-.924a4.213 4.213 0 00.66-5.934c-9.753-12.197-19.176-22.702-19.21-22.738a4.23 4.23 0 00-3.307-1.392 4.201 4.201 0 00-3.193 1.648s-1.298 1.707-4.711 5.05c-2.874 2.821-7.266 6.732-13.255 11.336-2.069-.798-4.425.108-5.338 2.163h-.017c0 .014-1.436 3.237-4.662 7.888-3.22 4.648-8.124 10.54-14.735 15.4a4.227 4.227 0 00-.897 5.915 4.238 4.238 0 005.917.903 65.1 65.1 0 002.692-2.103v20.44a4.23 4.23 0 004.226 4.23 4.239 4.239 0 004.233-4.23v-28.68c3.925-4.483 6.732-8.718 8.51-11.754a4.175 4.175 0 001.612-.71v-.011c.623-.454 1.184-.886 1.773-1.33-.06.292-.176.565-.176.876a4.23 4.23 0 004.222 4.235h8.393v6.84h-15.901a4.22 4.22 0 00-4.227 4.224 4.222 4.222 0 004.227 4.227h15.901v25.564c0 2.331 1.889 4.236 4.223 4.236a4.235 4.235 0 004.232-4.236v-25.564h16.43zm-19.33-35.973a600.891 600.891 0 0110.59 12.464c-.386-.115-.766-.239-1.19-.239h-10.705c-.011 0-.017-.005-.027-.005-.012 0-.017.005-.028.005H150.22c6.522-5.185 10.959-9.42 13.65-12.225z"/><path d="M146.873 139.851l-.01-.011c0 .025-9.88 12.575-11.207 13.849-1.657 1.648-1.646 4.326 0 5.985a4.213 4.213 0 002.988 1.234 4.218 4.218 0 003-1.244c2.433-2.483 11.763-14.488 11.878-14.617a4.224 4.224 0 00-.72-5.925 4.215 4.215 0 00-5.929.73zM176.965 138.833a4.224 4.224 0 00-5.967-.339 4.218 4.218 0 00-.335 5.967l-.012-.011c.05.058 10.915 12.272 13.596 14.941a4.218 4.218 0 002.989 1.236 4.218 4.218 0 002.989-1.236 4.24 4.24 0 000-5.98c-2.17-2.147-13.244-14.567-13.26-14.578zM209.589 114.171c6.351-7.364 17.145-20.131 17.145-20.143 1.497-1.777 1.288-4.45-.5-5.95a4.206 4.206 0 00-5.945.501l-.012-.01c-.01.021-10.794 12.777-17.09 20.062a4.226 4.226 0 00.43 5.97 4.2 4.2 0 002.768 1.034 4.22 4.22 0 003.204-1.464zM271.274 109.154h-37.34c-.59 0-1.15.121-1.658.336 1.002-1.902.468-4.263-1.353-5.463a4.215 4.215 0 00-5.852 1.208v-.01c0 .035-9.46 14.277-18.906 22.759a4.234 4.234 0 00-.314 5.983 4.228 4.228 0 003.143 1.395 4.22 4.22 0 002.84-1.092 77.7 77.7 0 002.879-2.763v27.042a4.222 4.222 0 004.227 4.227 4.228 4.228 0 004.227-4.227V122.02a174.413 174.413 0 006.534-8.636v.003a4.22 4.22 0 004.233 4.221h15.742v40.94a4.228 4.228 0 004.232 4.22 4.227 4.227 0 004.228-4.22v-40.94h13.138a4.223 4.223 0 004.233-4.221 4.232 4.232 0 00-4.233-4.233zM239.763 97.395h27.416a4.233 4.233 0 004.233-4.233 4.221 4.221 0 00-4.233-4.222h-27.416a4.212 4.212 0 00-4.222 4.222 4.223 4.223 0 004.222 4.233z"/></g></svg>