<svg class="svgOrigin" xmlns="http://www.w3.org/2000/svg" width="400" height="400"><circle fill="red" cx="200" cy="200" r="196.5"/><circle fill="none" stroke="#FFF" stroke-width="5.614" cx="200" cy="200" r="188.079"/><path fill="#FFF" d="M70.921 200c0 71.287 57.79 129.073 129.079 129.073 30.593 0 58.677-10.658 80.794-28.432L99.364 119.207c-17.779 22.117-28.443 50.2-28.443 80.793zM329.084 200c0-71.292-57.797-129.085-129.084-129.085-30.585 0-58.67 10.664-80.788 28.444l181.429 181.422c17.774-22.116 28.443-50.198 28.443-80.781z"/><path fill="none" stroke="#0334A6" stroke-width="8.421" d="M313.767 220.752c0 22.315-18.083 40.408-40.409 40.408-22.314 0-40.407-18.093-40.407-40.408s18.093-40.408 40.407-40.408c22.326 0 40.409 18.094 40.409 40.408zM168.252 220.752c0 22.315-18.09 40.408-40.407 40.408s-40.408-18.093-40.408-40.408 18.09-40.408 40.408-40.408 40.407 18.094 40.407 40.408z"/><path fill="#0334A6" d="M138.02 220.752c0 5.62-4.555 10.177-10.175 10.177-5.62 0-10.176-4.558-10.176-10.177 0-5.62 4.556-10.176 10.176-10.176s10.175 4.557 10.175 10.176z"/><path fill="none" stroke="#0334A6" stroke-width="5.614" stroke-linecap="round" stroke-linejoin="round" d="M273.358 220.752s-39.891-66.204-39.891-75.59c0-9.387 5.34-6.31 5.34-14.409 0-4.857-14.245-13.603-22.336-13.603-8.105 0-11.34 7.452-11.34 7.452"/><path fill="none" stroke="#0334A6" stroke-width="5.614" stroke-linecap="round" stroke-linejoin="round" d="M242.447 166.32l-44.925 55.095-69.677-.663 32.6-69.274 76.968 4.726M156.026 138.851l41.496 82.564"/><path fill="none" stroke="#0334A6" stroke-width="5.614" stroke-linecap="round" stroke-linejoin="round" d="M186.35 246.027c8.417 0 11.334-4.857 11.334-4.857v-46.954c0-4.047 6.474-3.695 6.474-3.695"/><path fill="none" stroke="#0334A6" stroke-width="10.072" stroke-linecap="round" stroke-linejoin="round" d="M212.918 218.686c0 6.885-5.581 12.466-12.465 12.466-6.885 0-12.466-5.58-12.466-12.466 0-6.881 5.581-12.462 12.466-12.462 6.884 0 12.465 5.58 12.465 12.462z"/><path fill="#0334A6" d="M176.614 136.982c0 2.187-6.073 2.68-10.628 4.957-4.557 2.275-2.043 3.804-2.98 5.433-.804 1.387-1.585 1.222-2.278 1.222-5.382 0-18.971-8.574-18.971-11.848 0-3.273 13.803-1.64 18.949-1.403 5.146.236 15.908-1.168 15.908 1.639z"/></svg>