<svg class="svgOrigin" xmlns="http://www.w3.org/2000/svg" width="400" height="400"><path fill="#0334A6" d="M390.861 377.02c0 11.786-9.635 21.421-21.416 21.421H30.557c-11.78 0-21.42-9.635-21.42-21.42V22.98c0-11.786 9.64-21.421 21.42-21.421h338.888c11.78 0 21.416 9.635 21.416 21.421v354.04z"/><path fill="none" stroke="#FFF" stroke-width="4.585" d="M385.085 372.032c0 11.428-9.349 20.772-20.776 20.772H35.69c-11.424 0-20.772-9.344-20.772-20.772V27.968c0-11.427 9.348-20.772 20.772-20.772H364.31c11.427 0 20.776 9.345 20.776 20.772v344.064z"/><path fill="#FFF" d="M43.161 40.116h31.31v319.343h-31.31zM325.532 40.541h31.308v319.344h-31.308zM263.396 273.241c-6.274 2.557-21.255 7.916-35.074 12.78h-.009c-2.942 1.035-3.68-.797-3.68-3v-28.084c0-5.042-4.128-9.17-9.171-9.17h-30.923c-5.043 0-9.17 4.128-9.17 9.17v28.084c0 2.203-.739 4.035-3.68 3h-.007c-13.823-4.864-28.8-10.223-35.076-12.78-13.005-5.297-19.749-2.887-7.225 9.636 8.83 8.83 40.315 43.04 58.12 62.455 7.447 8.118 9.979 9.99 12.5 9.99 2.52 0 5.06-1.877 12.515-10.004 17.803-19.416 49.276-53.611 58.102-62.441 12.53-12.523 5.785-14.933-7.222-9.636zM286.147 68.378H117.07c-10.03 0-24.932 21.78-24.932 31.528v39.256c0 7.737 8.597 13.182 13.182 13.182h9.585c1.166 0 3.902-2.812 4.155-4.16 1.957-10.41 11.116-18.309 22.082-18.309 11.314 0 20.707 8.41 22.245 19.312.146 1.03 2.935 3.157 4.308 3.157h83.436c1.823 0 5.495-2.552 5.705-3.783 1.8-10.595 11.047-18.686 22.146-18.686 11.222 0 20.553 8.27 22.205 19.044.175 1.12 2.006 3.425 2.628 3.425h1.532c3.73 0 7.165-2.865 7.165-7.16V98.187c0-10.886-16.621-29.809-26.365-29.809z"/><path fill="#0334A6" d="M152.128 102.364a4.6 4.6 0 01-4.586 4.585H130.54a4.6 4.6 0 01-4.585-4.585v-18.72a4.6 4.6 0 014.585-4.586h17.003a4.6 4.6 0 014.586 4.586v18.72zM122.23 102.364a4.6 4.6 0 01-4.585 4.585h-12.898a4.6 4.6 0 01-4.585-4.585v-.55c0-2.521 1.245-6.229 2.767-8.24l8.221-10.862c1.523-2.01 4.637-3.654 6.923-3.654 2.288 0 4.157 2.064 4.157 4.586v18.72zM182.337 102.364a4.6 4.6 0 01-4.586 4.585H160.75a4.6 4.6 0 01-4.585-4.585v-18.72a4.6 4.6 0 014.585-4.586h17.002a4.6 4.6 0 014.586 4.586v18.72zM212.548 102.364a4.6 4.6 0 01-4.586 4.585h-17.004a4.6 4.6 0 01-4.585-4.585v-18.72a4.6 4.6 0 014.585-4.586h17.004a4.6 4.6 0 014.586 4.586v18.72zM242.759 102.364a4.6 4.6 0 01-4.586 4.585h-17.007a4.599 4.599 0 01-4.584-4.585v-18.72a4.599 4.599 0 014.584-4.586h17.007a4.6 4.6 0 014.586 4.586v18.72zM272.965 102.364a4.596 4.596 0 01-4.585 4.585h-17.003a4.599 4.599 0 01-4.584-4.585v-18.72a4.599 4.599 0 014.584-4.586h17.003a4.597 4.597 0 014.585 4.586v18.72zM303.152 102.364c0 2.521-2.068 4.585-4.585 4.585h-17.006a4.6 4.6 0 01-4.584-4.585v-18.72a4.6 4.6 0 014.584-4.586h5.638c2.52 0 5.804 1.666 7.294 3.703l5.951 8.145c1.49 2.037 2.708 5.767 2.708 8.288v3.17z"/><path fill="#FFF" d="M111.262 91.174c-.951 0-1.719-.765-1.719-1.71 0-.958.768-1.72 1.72-1.72h4.11c.942 0 1.72.762 1.72 1.72a1.72 1.72 0 01-1.72 1.71h-4.11zM285.547 91.174c-.954 0-1.72-.765-1.72-1.71 0-.958.766-1.72 1.72-1.72h4.11c.94 0 1.72.762 1.72 1.72 0 .945-.78 1.71-1.72 1.71h-4.11zM136.315 91.774a2.313 2.313 0 01-2.315-2.31 2.308 2.308 0 012.315-2.315h7.444a2.314 2.314 0 012.313 2.315 2.318 2.318 0 01-2.313 2.31h-7.444zM166.324 91.774a2.32 2.32 0 01-2.324-2.31 2.316 2.316 0 012.324-2.315h7.445a2.314 2.314 0 012.312 2.315 2.318 2.318 0 01-2.312 2.31h-7.445zM196.322 91.774a2.31 2.31 0 01-2.312-2.31 2.306 2.306 0 012.312-2.315h7.445c1.284 0 2.31 1.03 2.31 2.315a2.308 2.308 0 01-2.31 2.31h-7.445zM226.334 91.774a2.321 2.321 0 01-2.323-2.31 2.317 2.317 0 012.323-2.315h7.441a2.315 2.315 0 012.316 2.315 2.32 2.32 0 01-2.316 2.31h-7.441zM256.334 91.774a2.32 2.32 0 01-2.314-2.31 2.316 2.316 0 012.314-2.315h7.451a2.304 2.304 0 012.302 2.315c0 1.272-1.03 2.31-2.302 2.31h-7.451z"/><g fill="#FFF"><path d="M142.62 219.518c-.43-.703-.518-1.025-.538-1.016a2.298 2.298 0 00-2.964-1.317 2.281 2.281 0 00-1.317 2.956c.079.206 1.044 2.664 3.746 5.373a2.29 2.29 0 001.623.672c.59 0 1.176-.224 1.624-.672a2.31 2.31 0 000-3.246 14.548 14.548 0 01-2.175-2.75z"/><path d="M170.397 210.732h-10.14v-1.844h4.953V198.58l.002-.01-.002-.008v-10.308h-13.85v-.376h17.575c1.265 0 2.299-1.03 2.299-2.297a2.294 2.294 0 00-2.3-2.288H151.36v-4.59a2.286 2.286 0 00-2.29-2.288 2.285 2.285 0 00-2.29 2.288v4.59h-19.486c-1.275 0-2.299 1.02-2.299 2.288a2.295 2.295 0 002.3 2.297h19.484v.376h-13.854v20.633h16.122c.01 0 .016.005.023.005.006 0 .013-.005.022-.005h6.582v1.844H125.54a2.29 2.29 0 00-2.291 2.294 2.293 2.293 0 002.29 2.296h30.135v6.301c-.665 1.168-4.135 4.724-4.135 4.746a2.29 2.29 0 00.01 3.237 2.284 2.284 0 003.236 0c.02-.022 1.238-1.24 2.488-2.646.633-.712 1.267-1.46 1.795-2.186.486-.814 1.024-1.127 1.19-2.775v-6.677h10.139a2.3 2.3 0 002.3-2.296 2.298 2.298 0 00-2.3-2.294zm-19.037-6.424v-3.435h9.266v3.435h-9.266zm9.266-11.473v3.444h-9.266v-3.444h9.266zm-13.847 0v3.444h-9.273v-3.444h9.273zm-9.273 8.038h9.273v3.435h-9.273v-3.435zM282.61 185.676a2.284 2.284 0 00-1.62-.663h-33.535c-.603 0-1.186.238-1.616.663a2.323 2.323 0 00-.676 1.63v29.799c.157.098-1.326 3.461-2.942 5.878-1.603 2.58-3.214 4.81-3.214 4.824a2.295 2.295 0 00.518 3.197 2.302 2.302 0 003.206-.515l-.008-.014c.022-.018 1.692-2.337 3.384-5.069 1.68-2.879 3.466-5.503 3.641-8.301v-.282h12.31v11.453a2.295 2.295 0 002.287 2.306 2.305 2.305 0 002.293-2.306v-11.453h12.058v3.148c.01 1.522-.413 4.136-1.366 6.04-1.025 1.97-2.11 2.965-3.94 2.991a2.293 2.293 0 000 4.585h.022c4.04 0 6.74-2.784 8.033-5.547 1.38-2.821 1.827-5.875 1.836-8.07v-32.664a2.32 2.32 0 00-.672-1.63zm-3.914 13.375h-12.058v-9.462h12.058v9.462zm-16.638-9.462v9.462h-12.31v-9.462h12.31zm-12.31 22.644v-8.593h12.31v8.593h-12.31zm16.89 0v-8.593h12.058v8.593h-12.058z"/></g><path fill="#FFF" d="M141.142 136.296c-8.864 0-16.048 7.186-16.048 16.048 0 8.862 7.184 16.048 16.048 16.048 8.863 0 16.048-7.186 16.048-16.048 0-8.862-7.185-16.048-16.048-16.048zM278.982 136.296c-8.866 0-16.047 7.186-16.047 16.048 0 8.862 7.181 16.048 16.047 16.048s16.05-7.186 16.05-16.048c0-8.862-7.184-16.048-16.05-16.048z"/></svg>