<svg class="svgOrigin" xmlns="http://www.w3.org/2000/svg" width="400" height="400"><g fill="#0334A6"><path d="M12.928 354.45V45.592c0-20.81 16.982-37.738 37.738-37.738h298.667c20.81 0 37.738 16.928 37.738 37.738v308.856c0 20.81-16.928 37.739-37.738 37.739H50.666c-20.756 0-37.738-16.93-37.738-37.739z"/><path d="M349.333 2.464c23.667 0 43.129 19.408 43.129 43.129v308.856c0 23.72-19.462 43.13-43.129 43.13H50.666c-23.667 0-43.129-19.41-43.129-43.13V45.593c0-23.72 19.462-43.13 43.129-43.13h298.667zM12.928 45.593v308.856c0 20.81 16.982 37.739 37.738 37.739h298.667c20.81 0 37.738-16.93 37.738-37.739V45.593c0-20.81-16.928-37.738-37.738-37.738H50.666c-20.756 0-37.738 16.928-37.738 37.738z"/></g><path fill="none" stroke="#FFF" stroke-width="5.391" d="M349.333 392.188H50.666c-20.756 0-37.738-16.93-37.738-37.739V45.593c0-20.81 16.982-37.738 37.738-37.738h298.667c20.81 0 37.738 16.928 37.738 37.738v308.856c0 20.81-16.928 37.738-37.738 37.738z"/><path fill="#FFF" d="M347.703 43.172h11.771v43.397h-11.771zM347.703 132.623h11.771v43.398h-11.771zM347.703 222.07h11.771v43.402h-11.771zM347.703 311.52h11.771v43.402h-11.771zM37.93 43.172h11.777v43.397H37.93zM37.93 132.623h11.777v43.398H37.93zM37.93 222.07h11.777v43.402H37.93zM37.93 311.52h11.777v43.402H37.93zM212.156 146.358h-71.753v-.007c2.811-4.065 5.77-8.408 8.303-12.264 7.491-11.398 1.795-18.071-6.67-14.328-6.924 3.058-45.999 25.062-60.409 34.355-3.216 2.075-6.186 4.211-6.186 7.07s2.97 4.997 6.186 7.07c14.41 9.293 53.485 31.297 60.408 34.355 8.466 3.74 14.162-2.928 6.67-14.327-2.532-3.86-5.49-8.203-8.302-12.27l71.753-.007c28.493.055 51.542 23.11 51.6 51.595v115.35h29.646V227.6c-.01-44.874-36.369-81.23-81.246-81.242z"/></svg>