<svg class="svgOrigin" xmlns="http://www.w3.org/2000/svg" width="400" height="400"><path fill="#0334A6" d="M396.331 200c0 108.436-87.903 196.34-196.323 196.34-108.436 0-196.34-87.904-196.34-196.34S91.572 3.66 200.008 3.66C308.428 3.66 396.33 91.564 396.33 200z"/><path fill="none" stroke="#FFF" stroke-width="5.61" d="M387.916 200c0 103.785-84.134 187.925-187.908 187.925-103.79 0-187.925-84.14-187.925-187.925 0-103.79 84.134-187.925 187.925-187.925 103.774 0 187.908 84.135 187.908 187.925z"/><path fill="#FFF" d="M180.182 52.356c-7.297 0-15.402 10.269-20.267 10.269-4.864 0-2.432 7.026 2.162 7.026 4.593 0 4.324 7.565 4.324 10.809v3.243s4.323 4.867 4.323 6.757c0 1.89-1.082 2.97-7.026 5.673s-24.32 15.141-28.374 30.544c-4.054 15.402-2.972 29.182-4.594 35.668-1.622 6.487-2.164 18.648-2.164 27.835s3.246 27.833 7.568 27.833c4.322 0 5.944-25.943 5.944-25.943 0-9.997 1.622-24.862 2.433-32.157.81-7.294 4.596-17.837 8.918-17.295 4.322.543 5.407 11.89 4.865 17.566-.543 5.676-7.565 33.242-9.459 37.294-1.892 4.05-2.432 8.647.54 10.805 2.972 2.164 5.944 4.591 5.944 10.54 0 5.95 2.167 46.226 2.975 50.542.808 4.328 2.432 20.27 2.161 28.377-.271 8.109-4.325 21.081-1.893 24.05 2.433 2.97 15.402 11.888 17.835 12.43 2.432.543 5.678-2.7 3.785-6.754-1.893-4.054-4.594-6.213-4.594-12.7 0-6.485 1.351-27.029 1.351-34.326 0-7.292-3.514-31.883-3.243-36.748.27-4.864 6.215-13.508 9.187-12.972 2.971.543 12.701 28.378 11.35 45.672-1.35 17.295-5.135 34.047-4.864 36.753.271 2.696 10.537 10.81 13.241 11.888 2.703 1.08 10.54-1.895 8.381-5.676-2.169-3.779-4.327-6.486-4.054-9.728.263-3.243 4.043-27.83 4.318-32.695.273-4.865 4.59-13.246 4.59-15.947 0-2.7-7.833-25.402-8.645-30.54-.805-5.129-1.348-6.487-1.348-6.487s-4.053-8.103-2.7-13.778c1.354-5.675 8.376-11.89 7.291-15.673-1.073-3.783-9.452-10.272-10.802-15.405-1.35-5.133-2.162-21.617-.81-26.481 1.35-4.865 7.296-12.97 9.454-8.377 2.158 4.594 7.571 43.776 10.267 48.37 2.706 4.593 9.455 15.403 11.35 17.298 1.896 1.89.275 10.809.275 12.972 0 2.159 3.78 6.75 6.76 6.75 2.968 0 12.698-.269 12.698 3.785s-1.084 13.241-3.243 15.136c-2.17 1.89-8.656 10.54-10.814 13.51-2.158 2.968 4.59 7.028 6.486 8.107 1.896 1.08 2.17 9.993-.537 12.699-2.706 2.706-4.053 7.297-1.895 8.645 2.158 1.358 9.455 12.16 10.003 14.325.537 2.164-.81 7.028-2.17 8.376-1.347 1.353-.81 11.888 5.413 7.298 6.213-4.591 8.919-8.382 7.56-12.7-1.347-4.327-6.212-10.54-5.127-15.941 1.085-5.407 1.895-8.919 5.138-8.919 3.233 0 7.023 3.507 7.023 7.834 0 4.328.537 10.272 3.243 11.352 2.695 1.079 5.938 4.322 3.243 7.565-2.706 3.243-.81 9.997 3.243 8.65 4.055-1.353 8.371-8.65 8.371-11.083 0-2.432-7.56-15.13-8.919-19.996-1.347-4.864 5.139-10.807 5.139-15.946 0-5.134-7.834-14.589-7.834-19.453 0-4.865 5.402-14.326 8.108-14.326 2.696 0 4.317 4.053 3.78 9.192-.536 5.134-.536 23.508.537 23.508 1.085 0 4.601.267 5.138-5.945.538-6.211 2.97-24.86 2.97-30.267v-5.406s-11.351-12.7-14.857-14.047c-3.517-1.353-1.896-8.918-.274-10.003 1.621-1.08 4.054-5.944 2.159-8.377-1.885-2.432-7.287-14.322-10.804-14.322-3.517 0-15.131 8.379-15.131 15.405 0 7.025 5.128 14.317 2.97 16.213-2.158 1.895-10.815 1.352-13.784 1.084-2.97-.274-7.023-2.98-8.381-4.327-1.348-1.348 1.358-4.323.273-11.349-1.084-7.026-5.95-13.249-7.845-32.705-1.883-19.456-5.949-40.265-8.37-51.073-2.432-10.809-29.728-18.646-29.728-23.24 0-4.592 2.704-4.053 2.704-8.646 0-4.594 1.347-11.62 4.322-11.62s7.568-7.297 1.893-7.297c-5.676 0-8.645-12.978-19.456-12.978z"/></svg>