<svg xmlns="http://www.w3.org/2000/svg" viewBox="0 0 100 100"><circle transform="rotate(-22.034 50 50)" fill="red" cx="50" cy="50" r="49.166"/><path fill="none" stroke="#FFF" stroke-width="1.405" d="M97.059 50c0 25.99-21.07 47.06-47.059 47.06C24.01 97.06 2.94 75.99 2.94 50S24.01 2.94 50 2.94c25.99 0 47.059 21.07 47.059 47.06z"/><path fill="#FFF" d="M17.703 50c0 17.838 14.46 32.297 32.297 32.297 7.653 0 14.68-2.668 20.214-7.115L24.82 29.785A32.153 32.153 0 0017.703 50zM82.298 50c0-17.837-14.46-32.297-32.298-32.297a32.154 32.154 0 00-20.214 7.115l45.396 45.395A32.15 32.15 0 0082.298 50z"/></svg>