<svg class="svgOrigin" xmlns="http://www.w3.org/2000/svg" width="400" height="400"><g fill="#0334A6"><path d="M13.793 46.312c0-20.714 16.903-37.618 37.563-37.618h297.29c20.713 0 37.564 16.904 37.564 37.618V353.69c0 20.767-16.85 37.564-37.565 37.564H51.356c-20.66 0-37.564-16.797-37.564-37.564V46.312z"/><path d="M51.356 8.694c-20.66 0-37.564 16.904-37.564 37.618V353.69c0 20.767 16.904 37.564 37.564 37.564h297.29c20.713 0 37.564-16.797 37.564-37.564V46.312c0-20.714-16.85-37.618-37.565-37.618H51.356zM8.426 46.312c0-23.612 19.372-42.93 42.93-42.93h297.29c23.558 0 42.93 19.318 42.93 42.93V353.69c0 23.612-19.372 42.93-42.93 42.93H51.355c-23.558 0-42.93-19.318-42.93-42.93V46.312z"/></g><path fill="none" stroke="#FFF" stroke-width="5.366" d="M348.645 391.254H51.356c-20.66 0-37.564-16.797-37.564-37.564V46.312c0-20.714 16.904-37.618 37.564-37.618h297.29c20.713 0 37.564 16.904 37.564 37.618V353.69c0 20.767-16.85 37.564-37.565 37.564z"/><path fill="#FFF" d="M305.664 105.672c-3.04-6.888-24.945-45.783-34.194-60.126-2.065-3.202-4.193-6.157-7.038-6.157-2.846 0-4.974 2.955-7.038 6.157-9.25 14.343-31.155 53.238-34.195 60.126-3.73 8.427 2.914 14.098 14.26 6.643a635.47 635.47 0 0011.67-7.892v159.23a108.9 108.9 0 00-15.302-11.016c-14.747-8.637-29.703-13.479-43.286-13.615-4.895 0-19.977 0-33.896-.011 2.799-4.045 5.744-8.363 8.265-12.2 7.457-11.35 1.787-17.996-6.64-14.264-6.891 3.039-45.786 24.944-60.129 34.2-3.202 2.064-6.158 4.192-6.158 7.032 0 2.85 2.956 4.978 6.158 7.043 14.343 9.244 53.238 31.15 60.129 34.189 8.427 3.731 14.097-2.914 6.64-14.254-2.526-3.847-5.471-8.175-8.27-12.22h33.901c5.754-.138 17.571 3.018 28.215 9.485 10.816 6.382 20.658 15.752 25.867 26.558 2.861 5.911 4.475 12.231 4.507 19.37v31.347h29.514V103.668c4.203 2.909 8.747 6.01 12.76 8.647 11.346 7.455 17.99 1.784 14.26-6.643zM347.021 43.911h11.718v43.197h-11.718zM347.021 132.949h11.718v43.197h-11.718zM347.021 221.99h11.718v43.202h-11.718zM347.021 311.025h11.718v43.203h-11.718zM38.677 43.911H50.4v43.197H38.677zM38.677 132.949H50.4v43.197H38.677zM38.677 221.99H50.4v43.202H38.677zM38.677 311.025H50.4v43.203H38.677z"/></svg>