<svg class="svgOrigin" xmlns="http://www.w3.org/2000/svg" width="400" height="400"><g fill="#0334A6"><path d="M386.21 46.3v307.433c0 20.713-16.85 37.564-37.565 37.564H51.356c-20.66 0-37.564-16.85-37.564-37.564V46.301c0-20.714 16.904-37.564 37.564-37.564h297.29c20.713 0 37.564 16.85 37.564 37.564z"/><path d="M348.645 391.297c20.714 0 37.565-16.85 37.565-37.564V46.301c0-20.714-16.85-37.564-37.565-37.564H51.356c-20.66 0-37.564 16.85-37.564 37.564v307.432c0 20.713 16.904 37.564 37.564 37.564h297.29zm42.931-37.564c0 23.612-19.372 42.93-42.93 42.93H51.355c-23.558 0-42.93-19.318-42.93-42.93V46.301c0-23.611 19.372-42.93 42.93-42.93h297.29c23.558 0 42.93 19.319 42.93 42.93v307.432z"/></g><path fill="none" stroke="#FFF" stroke-width="5.366" d="M348.645 391.297H51.356c-20.66 0-37.564-16.85-37.564-37.564V46.301c0-20.714 16.904-37.564 37.564-37.564h297.29c20.713 0 37.564 16.85 37.564 37.564v307.432c0 20.713-16.85 37.564-37.565 37.564z"/><path fill="#FFF" d="M347.021 43.908h11.718v43.197h-11.718zM347.021 132.947h11.718v43.197h-11.718zM347.021 221.99h11.718v43.191h-11.718zM347.021 311.025h11.718v43.192h-11.718zM38.677 43.908H50.4v43.197H38.677zM38.677 132.947H50.4v43.197H38.677zM38.677 221.99H50.4v43.191H38.677zM38.677 311.025H50.4v43.192H38.677zM241.237 118.464c-3.05-6.888-24.95-45.783-34.199-60.126-2.064-3.202-4.192-6.157-7.038-6.157s-4.973 2.955-7.038 6.157c-9.25 14.343-31.154 53.238-34.2 60.126-3.725 8.427 2.92 14.098 14.265 6.643a625.727 625.727 0 0010.874-7.345v226.97H216.1v-226.97c3.652 2.516 7.457 5.1 10.874 7.345 11.345 7.455 17.985 1.784 14.264-6.643z"/></svg>