<svg class="svgOrigin" xmlns="http://www.w3.org/2000/svg" width="400" height="400"><path fill="#0334A6" d="M46.775 397.503c-18.668 0-26.191-11.202-26.191-23.146v-69.332s.382-24.104 5.346-32.034c5.044-8.056 140.015-236.424 150.764-254.049C187.442 1.317 200 2.515 200 2.515s12.558-1.198 23.306 16.427c10.749 17.625 145.72 245.993 150.764 254.05 4.963 7.929 5.346 32.033 5.346 32.033v69.332c0 11.944-7.523 23.146-26.191 23.146H46.775z"/><path fill="none" stroke="#FFF" stroke-width="2.418" d="M353.23 385.423H46.774c-9.492 0-14.101-3.618-14.101-11.06v-69.338c.175-10.418 1.86-22.735 3.523-25.64 2.503-4 33.696-56.665 69.81-117.648C143.12 99.073 181.5 34.279 187.012 25.245c5.6-9.193 10.947-10.463 12.227-10.629l1.633.279.19-.229c1.62.3 6.659 1.945 11.93 10.579 5.51 9.034 43.886 73.828 81.005 136.492 36.114 60.983 67.307 113.649 69.83 117.673 1.642 2.88 3.328 15.197 3.503 25.814v69.138c0 7.443-4.61 11.06-14.102 11.06h0z"/><path fill="#FFF" d="M198.88 51.049c-6.488-.333-14.1 4.833-14.1 10.073s-10.074 9.674-9.673 12.898c.402 3.223 11.684 3.223 11.684 8.059 0 4.836 1.615 14.505-3.22 16.522l-4.837 2.016s-12.09 8.864-14.507 13.7c-2.418 4.836-18.938 27.807-20.553 37.883-1.615 10.075-4.435 38.283-4.435 42.314 0 4.03 3.221 6.449 8.865-.805 5.643-7.254 2.824-20.149 8.869-31.434 6.045-11.284 16.925-19.343 17.327-13.298.401 6.044-5.644 34.654-8.463 40.297-2.82 5.644 6.446 12.492 5.237 18.135-1.209 5.649-35.863 94.306-36.67 97.933-.808 3.627 1.61 7.655 9.671 10.88 8.062 3.226 18.536 9.673 18.536 2.017 0-7.66-9.27-5.64-4.836-15.717 4.435-10.078 30.631-66.499 35.869-69.318 5.237-2.82 14.512 8.062 20.15 15.316 5.64 7.253 29.824 60.85 35.061 66.092 5.238 5.238 29.819-1.615 31.835-1.615s.808-4.836-5.237-8.463c-6.045-3.627-10.484-1.209-16.123-14.909-5.639-13.7-12.085-29.823-16.52-39.897-4.434-10.073-28.902-49.058-29.837-53.578-.935-4.52 4.52-27.735 7.013-32.72 2.493-4.985 4.983-3.894 12.93 3.584 7.948 7.479 16.516 6.388 19.165 8.258 2.65 1.87 4.207 6.387 7.169 6.387 2.96 0 8.255-6.387 8.255-9.036 0-2.65-4.048-3.582-9.347-7.479-5.298-3.896-26.02-18.387-31.632-29.138-5.61-10.751-11.848-25.242-13.875-29.139-2.025-3.896-8.098-7.166-8.722-8.257-.623-1.091-1.091-5.301-.156-7.013.935-1.712 9.19-6.697 9.19-13.086 0-6.39 7.325-5.452 7.325-9.037 0-3.584-9.51-4.055-10.598-8.104-1.086-4.05-2.455-9.894-10.81-10.321z"/><path fill="#FFF" d="M269.2 266.059c0-2.659 2.177-4.836 4.836-4.836h35.387c2.658 0 6.195 1.7 7.858 3.773l2.942 3.684c1.663 2.078 3.022 5.955 3.022 8.614v.864a4.85 4.85 0 01-4.836 4.836h-34.984c-2.66 0-6.225-1.677-7.925-3.722l-3.21-3.863c-1.701-2.044-3.09-5.898-3.09-8.556v-.794zM51.45 359.911c-2.658 0-4.835-1.813-4.835-4.033 0-2.21 1.195-5.847 2.659-8.067l5.038-7.65c1.465-2.22 4.836-4.033 7.496-4.033h276.384c2.66 0 6.032 1.813 7.496 4.033l5.039 7.65c1.463 2.22 2.658 5.857 2.658 8.067 0 2.22-2.177 4.033-4.836 4.033H51.45zM130.8 266.059c0-2.659-2.177-4.836-4.836-4.836H90.578c-2.66 0-6.197 1.7-7.859 3.773l-2.942 3.684c-1.662 2.078-3.023 5.955-3.023 8.614v.864a4.851 4.851 0 004.836 4.836h34.985c2.66 0 6.225-1.677 7.925-3.722l3.211-3.863c1.7-2.044 3.089-5.898 3.089-8.556v-.794z"/></svg>