<svg class="svgOrigin" xmlns="http://www.w3.org/2000/svg" width="400" height="400"><path fill="red" d="M200 390.164c-18.29 0-27.67-14.541-45.02-49.24-17.35-34.705-128.092-243.17-143.567-271.78C-4.063 40.54-.244 9.835 40.089 9.835H359.91c40.332 0 44.152 30.705 28.676 59.309-15.476 28.61-126.217 237.075-143.567 271.78-17.35 34.699-26.73 49.24-45.02 49.24z"/><path fill="none" stroke="#FFF" stroke-width="2.814" d="M200.005 384.537c-14.48 0-22.691-11.518-39.99-46.13-17.73-35.48-128.409-243.763-143.656-271.945C8.017 51.031 6.305 36.33 11.78 27.136c5.754-9.645 18.567-11.673 28.305-11.673H359.91c9.738 0 22.56 2.028 28.303 11.673 5.49 9.194 3.775 23.895-4.578 39.326-14.953 27.632-126.388 237.433-143.656 271.945-17.294 34.612-25.5 46.13-39.975 46.13h0z"/><g fill="#FFF"><path d="M146.731 145.78h-25.582V110.23h15.767a5.634 5.634 0 005.639-5.627 5.634 5.634 0 00-5.639-5.628h-15.767V70.727a5.624 5.624 0 10-11.25 0v33.864l-.002.01.002.012v41.167H97.526V93.907a5.62 5.62 0 00-5.633-5.627 5.617 5.617 0 00-5.62 5.627v51.873h-4.181a5.631 5.631 0 00-5.63 5.633 5.638 5.638 0 005.63 5.633h64.639a5.641 5.641 0 005.633-5.633 5.634 5.634 0 00-5.633-5.633zM227.862 97.304c3.106 0 5.634-2.523 5.634-5.628a5.633 5.633 0 00-5.634-5.628h-15.294V73.612c0-3.1-2.528-5.616-5.627-5.616a5.62 5.62 0 00-5.617 5.616h-.01v12.436h-28.287a5.628 5.628 0 000 11.255h28.286v9.255h-28.286a5.624 5.624 0 100 11.25h28.286v8.59c-2.467-.253-5.083-.325-7.968-.265-6.53.028-12.992 1.869-18.279 4.908-5.105 3.04-9.93 7.425-10.15 14.377-.039 3.55 1.67 6.99 4.275 9.557 2.897 2.912 6.81 4.06 10.365 4.06h.16c7.666-.126 14.986-4.006 21.169-8.688 3.666-3.06 7.061-6.15 9.244-9.843 3.203 1.732 7.045 4.49 13.04 8.925a5.633 5.633 0 007.887-1.055 5.626 5.626 0 00-1.044-7.886c-6.93-5.473-12.294-9.018-17.444-11.217v-11.463h15.294c3.106 0 5.634-2.517 5.634-5.622a5.633 5.633 0 00-5.634-5.628h-15.294v-9.254h15.294zm-48.146 50.477c-1.555-.033-2.133-.368-2.567-.775-1.044-1.094-.95-1.429-.984-1.588-.137-.248.94-2.638 4.545-4.633 3.375-1.99 8.277-3.396 12.53-3.396h.105c1.88.044 3.506.088 4.968.159-4.61 5.133-14.064 10.579-18.597 10.233zM320.59 148.22c-1.824-2.511-5.336-3.077-7.848-1.253-1.01.72-1.813 1.16-2.335 1.38-.731-1.512-1.407-5.727-1.369-11.228 0-4.764.396-10.562 1.045-16.975.521-5.282.769-9.788.769-13.706-.028-8.645-1.082-14.388-3.523-18.735-2.324-4.451-7.183-6.776-10.81-6.578-5.638.324-10.265 3.368-15.92 7.693a61.031 61.031 0 00-2.836 2.49v-12.53a5.63 5.63 0 10-11.26 0v9.375h-7.035a5.631 5.631 0 00-5.627 5.628 5.631 5.631 0 005.627 5.627h4.996l-15.992 50.835a5.61 5.61 0 003.418 6.963 5.61 5.61 0 007.122-3.067c.006-.011 3.457-8.09 7.49-17.613v18.69c0 3.1 2.518 5.622 5.634 5.622 3.1 0 5.627-2.522 5.627-5.622V109.69c1.928-4.302 5.841-8.858 9.925-12.145 2.16-1.752 4.33-3.17 6.078-4.066.869-.456 1.627-.753 2.16-.94.27-.082.467-.132.583-.154l.01-.011c.166.06.231.033.28.022.105-.022.066-.055.765.885.874 1.429 2.072 5.534 2.033 13.157.016 3.44-.22 7.6-.71 12.59-.67 6.61-1.104 12.733-1.104 18.091.017 5.545.385 10.216 1.737 14.261 1.044 3.803 4.71 8.43 10.128 8.43h.143c3.639-.06 6.546-1.604 9.541-3.73 2.51-1.826 3.083-5.348 1.258-7.86z"/></g></svg>