<svg class="svgOrigin" xmlns="http://www.w3.org/2000/svg" width="400" height="400"><path fill="#0334A6" d="M397.143 368.807c0 14.796-12.106 26.901-26.902 26.901H29.76c-14.796 0-26.902-12.105-26.902-26.901V31.193c0-14.795 12.106-26.901 26.902-26.901H370.24c14.796 0 26.902 12.106 26.902 26.901v337.614z"/><path fill="none" stroke="#FFF" stroke-width="2.69" d="M370.241 390.317H29.76c-11.87 0-21.521-9.657-21.521-21.51V31.189c0-11.86 9.652-21.511 21.52-21.511h340.483c11.87 0 21.52 9.652 21.52 21.51v337.619c0 11.853-9.65 21.51-21.52 21.51h0z"/><path fill="#FFF" d="M129.179 79.792c-12.111 0-18.48 12.424-20.712 14.657s-.962 9.878 3.184 12.428c4.145 2.551 3.825 11.158 7.33 12.111 3.504.954 3.194 5.733-.316 8.284-3.51 2.55-16.256 10.198-22.309 19.758-6.053 9.56-14.975 26.767-15.295 40.788-.32 14.02-1.592 20.715-1.592 22.307 0 1.592 3.814 5.732 9.237 5.732 5.422 0 10.519-7.965 14.344-7.965 3.824 0 4.781 7.965 2.548 8.922-2.233.956-1.271 8.606-.636 11.79.636 3.189 1.277 11.16-.956 12.431-2.233 1.272-.006 11.79-2.233 15.295-2.228 3.505-.636 11.154-.636 17.849 0 6.688 4.14 12.105 2.549 14.659-1.593 2.543-3.19 13.697 1.591 14.333 4.782.642 11.155-.956 12.747-3.184 1.592-2.227-1.592-8.922-.636-11.47.957-2.548 6.374-2.863 6.374 2.233v15.61c0 2.87 5.417 5.097 7.965 5.097s9.563.142 9.563-5.543v-60.738c0-4.14 6.373 4.781 6.373 8.285 0 3.505 3.184 20.713 1.272 23.901-1.913 3.185-2.229 25.173-3.184 27.407-.957 2.227-3.185 12.431 4.78 14.338 7.966 1.908 13.704 1.592 11.47-4.46-2.232-6.053-6.367-8.287-5.096-13.388 1.272-5.097 8.601-11.476 8.601-38.876s-9.878-35.371-9.878-41.744v-11.791h7.966s-.951 7.65 6.058 7.33c7.009-.32 11.15-8.922 11.15-17.208 0-8.285-12.107-41.426-14.019-47.8-1.912-6.373-20.712-20.397-24.217-23.583-3.504-3.187-5.106-5.735-1.597-8.922 3.51-3.186 7.014-8.286 7.014-11.472 0-3.187 4.141-3.187 4.141-7.33 0-4.143-5.418-7.647-8.286-10.834-2.869-3.187-7.97-9.237-14.66-9.237z"/><path fill="#0334A6" d="M107.794 170.787c-2.832.236-5.942 6.717-7.235 10.077-1.292 3.36 0 11.628-2.328 13.696-2.327 2.067-3.094 8.01.778 8.782 3.872.777 8.27-2.06 9.043-4.648.772-2.585 1.03-14.727 1.03-17.312 0-2.585 4.917-11.113-1.288-10.595zM157.147 172.34c-4.535-1.049-3.878 6.714-3.878 12.142 0 5.427-.772 15.502 3.878 16.022 4.65.516 9.557 1.288 9.557-2.845 0-4.132-4.65-10.335-4.65-13.952 0-3.618-1.545-10.59-4.907-11.368zM122.264 253.725c-3.394 0-5.164 7.234-5.164 12.404s2.07 10.335 4.392 10.335h2.322s.778-5.427.778-11.37.515-11.37-2.328-11.37z"/><path fill="#FFF" d="M141.647 315.997H124.98v18.605c0 2.838 2.707 6.458 7.62 6.458 4.912 0 9.047-3.358 9.047-7.494v-17.569zM265.998 79.792c-12.111 0-18.48 12.424-20.712 14.657-2.233 2.233-.962 9.878 3.184 12.428 4.145 2.551 3.825 11.158 7.33 12.111 3.504.954 3.194 5.733-.316 8.284-3.51 2.55-16.257 10.198-22.31 19.758-6.052 9.56-14.974 26.767-15.294 40.788-.32 14.02-1.592 20.715-1.592 22.307 0 1.592 3.814 5.732 9.236 5.732 5.423 0 10.52-7.965 14.345-7.965 3.824 0 4.781 7.965 2.548 8.922-2.233.956-1.272 8.606-.636 11.79.636 3.189 1.277 11.16-.956 12.431-2.233 1.272-.006 11.79-2.233 15.295-2.228 3.505-.636 11.154-.636 17.849 0 6.688 4.14 12.105 2.549 14.659-1.593 2.543-3.19 13.697 1.592 14.333 4.78.642 11.154-.956 12.746-3.184 1.592-2.227-1.592-8.922-.636-11.47.957-2.548 6.374-2.863 6.374 2.233v15.61c0 2.87 5.417 5.097 7.965 5.097 2.549 0 9.562.142 9.562-5.543v-60.738c0-4.14 6.374 4.781 6.374 8.285 0 3.505 3.184 20.713 1.272 23.901-1.913 3.185-2.229 25.173-3.185 27.407-.956 2.227-3.183 12.431 4.782 14.338 7.965 1.908 13.703 1.592 11.47-4.46-2.233-6.053-6.368-8.287-5.096-13.388 1.271-5.097 8.6-11.476 8.6-38.876s-9.878-35.371-9.878-41.744v-11.791h7.966s-.951 7.65 6.058 7.33c7.008-.32 11.15-8.922 11.15-17.208 0-8.285-12.106-41.426-14.02-47.8-1.912-6.373-20.711-20.397-24.215-23.583-3.505-3.187-5.108-5.735-1.598-8.922 3.51-3.186 7.015-8.286 7.015-11.472 0-3.187 4.14-3.187 4.14-7.33 0-4.143-5.418-7.647-8.286-10.834-2.869-3.187-7.97-9.237-14.659-9.237z"/><path fill="#0334A6" d="M244.613 170.787c-2.832.236-5.942 6.717-7.235 10.077-1.292 3.36 0 11.628-2.327 13.696-2.328 2.067-3.095 8.01.777 8.782 3.872.777 8.27-2.06 9.043-4.648.773-2.585 1.03-14.727 1.03-17.312 0-2.585 4.917-11.113-1.288-10.595zM293.966 172.34c-4.534-1.049-3.878 6.714-3.878 12.142 0 5.427-.772 15.502 3.878 16.022 4.65.516 9.557 1.288 9.557-2.845 0-4.132-4.65-10.335-4.65-13.952 0-3.618-1.545-10.59-4.907-11.368zM259.083 253.725c-3.394 0-5.165 7.234-5.165 12.404s2.07 10.335 4.392 10.335h2.323s.778-5.427.778-11.37.515-11.37-2.328-11.37z"/><path fill="#FFF" d="M278.466 315.997H261.8v18.605c0 2.838 2.706 6.458 7.618 6.458 4.913 0 9.048-3.358 9.048-7.494v-17.569z"/><path fill="#0334A6" d="M144.71 224.663c-2.916-.01-23.318-.01-25.777 0-3.184 0-4.781 2.417-4.781 4.77 0 2.544 1.755 5.308 5.002 5.308h5.16v4.939c0 .368.299.673.672.673a.677.677 0 00.672-.673v-4.939h12.558v4.939c0 .373.289.673.673.673.362 0 .667-.3.667-.673v-4.939h5.154c2.685-.09 4.114-3.037 4.125-5.59 0-2.181-1.256-4.488-4.125-4.488zm0 8.743h-25.556c-2.37-.01-3.641-1.97-3.662-3.972.052-1.833 1.008-3.394 3.441-3.431h25.777c2.044.037 2.722 1.34 2.79 3.147 0 2.149-1.36 4.246-2.79 4.256zM281.53 224.663h-25.783c-3.179 0-4.781 2.422-4.781 4.77 0 2.539 1.76 5.313 5.007 5.313h5.15v4.934a.67.67 0 00.677.667.67.67 0 00.678-.667v-4.934h12.551v4.929a.68.68 0 00.679.678.677.677 0 00.667-.678v-4.929h5.154c2.685-.1 4.115-3.032 4.14-5.596 0-2.175-1.276-4.487-4.14-4.487zm0 8.743h-19.725l-.005-.005-.005.005h-5.822c-2.37-.01-3.641-1.965-3.667-3.972.057-1.829 1.018-3.394 3.441-3.431h25.782c2.038.037 2.727 1.34 2.795 3.147-.01 2.155-1.366 4.246-2.795 4.256z"/></svg>