<svg class="svgOrigin" xmlns="http://www.w3.org/2000/svg" width="400" height="400"><path fill="#0334A6" d="M46.972 397.25c-18.645 0-26.158-11.188-26.158-23.115V304.89s.382-24.074 5.339-31.993c5.037-8.046 139.836-236.122 150.57-253.724C187.46 1.572 200 2.768 200 2.768s12.542-1.196 23.276 16.406c10.735 17.602 145.534 245.678 150.57 253.724 4.959 7.92 5.34 31.993 5.34 31.993v69.244c0 11.927-7.513 23.115-26.158 23.115H46.972z"/><path fill="none" stroke="#FFF" stroke-width="2.415" d="M353.033 385.185H46.972c-9.48 0-14.084-3.618-14.084-11.05v-69.24c.175-10.414 1.859-22.71 3.519-25.61 2.5-4 33.652-56.595 69.72-117.499 37.067-62.584 75.398-127.295 80.902-136.318 5.594-9.18 10.934-10.45 12.212-10.614l1.632.278.188-.229c1.619.3 6.65 1.943 11.915 10.565 5.503 9.023 43.83 73.734 80.902 136.318 36.067 60.904 67.22 113.5 69.738 117.518 1.642 2.882 3.325 15.177 3.501 25.785v69.046c0 7.432-4.603 11.05-14.084 11.05h0z"/><path fill="#FFF" d="M57.593 372.72c-2.603 0-4.735-1.812-4.735-4.024 0-2.213 1.137-5.825 2.528-8.023l4.877-7.707c1.391-2.197 4.66-4 7.263-4H332.47c2.603 0 5.877 1.803 7.268 4l4.872 7.707c1.396 2.198 2.533 5.81 2.533 8.023 0 2.212-2.131 4.024-4.736 4.024H57.593zM288.134 253.184c-4.972 0-9.72.923-14.136 2.537a635.16 635.16 0 01-2.773-8.179c-7.07-20.998-13.504-42.317-15.465-48.234-.46-1.318-.6-2.316-.61-3.15.03-2.243 1.07-3.365 2.849-5.167 1.66-1.656 4.265-3.931 4.273-7.893 0-1.328-.296-2.729-.886-4.24-3.004-7.144-10.778-7.854-14.933-7.884-2.028 0-3.419.205-3.509.226a2.406 2.406 0 00-2.028 2.748 2.418 2.418 0 002.745 2.028v-.013s1.095-.162 2.792-.162c3.778-.033 9.117.998 10.439 4.825.418 1.07.565 1.875.565 2.472.01 1.575-.948 2.582-2.854 4.457-1.778 1.728-4.301 4.374-4.273 8.603-.009 1.431.26 2.985.844 4.693.906 2.712 2.85 8.987 5.383 17.052l-95.992-.801-6.23-12.226c5.414.028 13.234.122 13.234-2.987 0-3.34-11.437-7.391-16.329-7.391-4.89 0-10.791 3.098-10.791 5.9 0 2.42.882 3.996 8.584 4.372.038.253.085.498.203.734l7.197 14.121-22.512 38.143a41 41 0 00-18.847-4.584c-22.79 0-41.27 18.48-41.28 41.27.01 22.799 18.49 41.269 41.28 41.269 21.979 0 39.892-17.187 41.152-38.85h19.078a22.052 22.052 0 0019.55 19.55v11.287a2.416 2.416 0 004.834 0v-11.287c11.118-1.222 19.796-10.523 19.796-21.96 0-5.944-2.363-11.302-6.15-15.287l45.542-53.924c2.345 7.366 5.005 15.62 7.77 23.833.98 2.877 1.96 5.73 2.937 8.536-13.466 6.797-22.725 20.711-22.73 36.832.01 22.8 18.49 41.27 41.28 41.27 22.79 0 41.27-18.47 41.28-41.27-.01-22.8-18.49-41.27-41.28-41.27zm-129.107-28.46l26.078 51.174c-5.4 3.547-9.06 9.391-9.8 16.14h-19.08a41.206 41.206 0 00-18.14-31.846l20.942-35.468zm40.661 52.589c2.477.348 4.784 1.188 6.806 2.467l-6.806 8.06v-10.527zm-4.834 7.08l-3.211-6.306a17.309 17.309 0 013.211-.775v7.08zm-1.528 7.645h-13.202c.694-4.873 3.34-9.094 7.189-11.8l6.013 11.8zm-41.935 0h-32.105l16.329-27.658a36.42 36.42 0 0115.776 27.658zm-36.317 38.855c-20.126-.029-36.408-16.32-36.445-36.44.037-20.126 16.32-36.407 36.445-36.44 5.9.01 11.451 1.448 16.376 3.934l-18.456 31.276a2.403 2.403 0 00-.019 2.427 2.41 2.41 0 002.108 1.223h36.303c-1.268 18.983-16.998 33.991-36.312 34.02zm65.05-34.02h14.73v14.715a17.314 17.314 0 01-14.73-14.715zm34.53-2.41c-.02 8.753-6.523 15.933-14.966 17.125V295.33l10.486-12.413c2.749 3.074 4.47 7.089 4.48 11.546zm-4.985-18.442c-2.905-1.953-6.325-3.132-9.98-3.533v-8.749a2.418 2.418 0 00-4.835 0v8.75c-1.891.206-3.711.598-5.428 1.25l-26.394-51.798 91.661.774-45.024 53.306zm78.465 54.872c-20.13-.034-36.407-16.32-36.44-36.44.023-14.004 7.923-26.13 19.502-32.233 5.647 15.96 11.028 29.526 15.23 33.94a2.411 2.411 0 003.41 0c.948-.933.948-2.47.01-3.414-2.81-2.586-8.541-16.437-14.24-32.46 3.91-1.433 8.118-2.264 12.528-2.273 20.13.033 36.406 16.319 36.44 36.44-.034 20.12-16.31 36.406-36.44 36.44z"/><path fill="#FFF" d="M284.775 235.803c-1.631-2.099-2.966-5.278-2.966-7.07 0-1.788 2.173-3.254 4.83-3.254h13.757c2.656 0 6.132 1.74 7.726 3.867l3.312 4.414c1.593 2.128 2.895 5.231 2.895 6.9 0 1.666-2.175 3.033-4.829 3.033h-13.759c-2.655 0-6.165-1.716-7.796-3.81l-3.17-4.08zM125.488 235.803c1.632-2.099 2.967-5.278 2.967-7.07 0-1.788-2.175-3.254-4.83-3.254h-13.758c-2.656 0-6.132 1.74-7.726 3.867l-3.31 4.414c-1.595 2.128-2.897 5.231-2.897 6.9 0 1.666 2.174 3.033 4.83 3.033h13.758c2.655 0 6.164-1.716 7.797-3.81l3.169-4.08z"/></svg>