<svg class="svgOrigin" xmlns="http://www.w3.org/2000/svg" width="400" height="400"><circle fill="#0334A6" cx="200" cy="200" r="197.5"/><circle transform="rotate(-45 200 200)" fill="none" stroke="#FFF" stroke-width="5.643" cx="200" cy="200" r="189.036"/><path fill="#FFF" d="M347.15 156.138s-80.345-26.222-86.572-27.9c-7.522-2.022-13.584 8.084-4.38 15.99 3.344 2.873 9.075 8.3 15.004 14.043 2.877 3.717.6 4.822-4.65 6.067-.023.006-.033.022-.056.028-8.276 1.821-17.854 4.64-27.734 9.056-13.496 6.092-27.713 15.427-38.762 29.94-11.049-14.513-25.266-23.848-38.759-29.94-9.88-4.417-19.458-7.235-27.735-9.056-.022-.006-.033-.022-.055-.028-5.251-1.245-7.527-2.35-4.65-6.067 5.928-5.742 11.66-11.17 15.005-14.044 9.202-7.905 3.14-18.011-4.381-15.989-6.227 1.678-86.572 27.9-86.572 27.9s-6.767 2.194-7.098 3.527c-.325 1.334 4.657 6.417 4.657 6.417s59.007 60.495 63.752 64.871c5.726 5.28 15.264 1.24 10.779-10.035-1.538-3.868-4.094-9.985-6.778-16.344-1.747-4.117.55-5.698 5.279-4.822 2.64.53 5.428 1.146 8.36 1.962 14.14 3.857 29.779 11.407 39.097 23.95 6.23 8.396 10.633 19.11 10.76 35.752l-.006 78.371c0 .287-.003.43-.003.43h36.693v-78.801c.12-16.637 4.524-27.356 10.757-35.753 9.318-12.542 24.957-20.092 39.097-23.95 2.932-.815 5.72-1.432 8.36-1.961 4.728-.876 7.026.705 5.279 4.822-2.684 6.359-5.24 12.476-6.778 16.344-4.486 11.275 5.053 15.314 10.779 10.035 4.744-4.376 63.752-64.871 63.752-64.871s4.981-5.083 4.656-6.417c-.33-1.333-7.098-3.527-7.098-3.527z"/></svg>