<svg class="svgOrigin" xmlns="http://www.w3.org/2000/svg" width="400" height="400"><path fill="#0334A6" d="M46.272 398.152c-18.73 0-26.278-11.239-26.278-23.221v-69.56s.384-24.185 5.363-32.14c5.061-8.083 140.476-237.201 151.26-254.884C187.401.664 200 1.865 200 1.865s12.599-1.2 23.383 16.482c10.784 17.683 146.199 246.801 151.26 254.884 4.98 7.955 5.363 32.14 5.363 32.14v69.56c0 11.982-7.548 23.221-26.278 23.221H46.271z"/><path fill="none" stroke="#FFF" stroke-width="2.426" d="M353.733 386.032H46.271c-9.523 0-14.147-3.634-14.147-11.101v-69.556c.175-10.462 1.867-22.814 3.534-25.728 2.511-4.018 33.807-56.853 70.04-118.036C142.933 98.74 181.44 33.734 186.97 24.67c5.62-9.223 10.983-10.497 12.267-10.663l1.64.28.19-.23c1.624.3 6.68 1.952 11.967 10.613 5.53 9.064 44.032 74.071 81.274 136.94 36.232 61.184 67.527 114.019 70.057 118.056 1.65 2.895 3.341 15.247 3.516 25.903v69.362c0 7.467-4.624 11.101-14.148 11.101h0z"/><path fill="#FFF" d="M293.682 266.276a4.868 4.868 0 014.852-4.852h25.799c2.668 0 6.217 1.706 7.884 3.79l2.952 3.696c1.668 2.08 3.032 5.97 3.032 8.638v.867a4.866 4.866 0 01-4.851 4.852h-25.397c-2.667 0-6.244-1.677-7.95-3.734l-3.222-3.876c-1.706-2.055-3.1-5.918-3.1-8.585v-.796zM50.962 360.432c-2.667 0-4.851-1.82-4.851-4.036 0-2.228 1.199-5.867 2.667-8.093l5.056-7.676c1.469-2.228 4.852-4.056 7.519-4.056h277.293c2.668 0 6.051 1.828 7.52 4.056l5.056 7.676c1.468 2.226 2.668 5.865 2.668 8.093 0 2.216-2.185 4.036-4.853 4.036H50.962zM106.318 266.276c0-2.668-2.184-4.852-4.852-4.852H75.667c-2.668 0-6.216 1.706-7.884 3.79l-2.952 3.696c-1.668 2.08-3.033 5.97-3.033 8.638v.867c0 2.668 2.185 4.852 4.852 4.852h25.397c2.667 0 6.244-1.677 7.95-3.734l3.222-3.876c1.706-2.055 3.099-5.918 3.099-8.585v-.796z"/><path fill="#FFF" d="M179.063 91.712c-6.065 0-16.375 4.246-19.711 12.13-3.336 7.884-3.64 13.949-.91 19.407 2.729 5.458 6.368 10.613 6.065 13.646-.303 3.032-9.097 5.458-19.71 15.465-10.614 10.007-12.737 24.26-13.343 25.169-.607.91-9.098 5.155-11.523 17.89-2.427 12.74-4.246 21.837-1.82 24.263 2.426 2.425 18.801 7.277 18.498 10.916-.303 3.64-5.762 9.097-2.73 12.736 3.033 3.639 8.188 4.549 4.852 9.704-3.336 5.155-16.981 30.93-20.62 35.782-3.639 4.852-4.548 7.581-.91 11.523 3.64 3.942 13.646 17.588 14.86 18.801 1.212 1.213 8.49.303 6.064-7.278-2.426-7.58-6.671-9.097-2.73-14.858 3.943-5.762 26.99-38.208 27.596-40.938.606-2.73 6.974-1.819 9.703 1.82 2.73 3.638 7.885 10.917 10.007 26.988 2.123 16.071 4.245 32.446 6.975 33.356 2.729.91 16.981 2.123 19.407 2.123s5.458-3.64 1.213-6.672c-4.245-3.032-9.4-4.548-9.704-11.826-.303-7.277 1.82-27.594 0-33.962-1.82-6.369-6.065-11.827-5.458-15.163.606-3.335 5.155-2.425 3.639-7.883-1.516-5.46-12.13-24.26-12.433-28.202-.303-3.942-.303-20.32 4.245-19.41 4.549.91 11.523 10.92 17.588 12.436 6.065 1.515 10.917 2.728 12.433 4.549 1.516 1.819 2.426 6.973 2.426 11.22 0 4.245-2.123 11.22-.303 17.284 1.819 6.065 6.065 14.251 6.065 17.285 0 3.032-1.517 8.187-1.517 10.31 0 2.122 6.065 3.031 5.458 5.155-.606 2.123-3.941 14.555-6.67 18.194-2.73 3.639-8.492 11.22-3.64 16.072 4.852 4.852 10.008 11.523 12.433 12.735 2.426 1.213 3.943-4.851 2.73-6.368-1.213-1.515-5.762-6.67-2.73-9.4 3.033-2.729 9.097-12.735 10.614-15.162 1.516-2.426 2.123-13.948 7.884-13.646 5.761.304 9.4 6.672 10.916 15.466 1.517 8.794 4.55 16.375 4.55 21.833 0 5.458 3.638 6.671 7.58 6.671 3.943 0 10.31.91 10.614-3.639.302-4.549-11.524-5.761-10.007-12.736 1.515-6.975 3.336-15.465 2.73-20.014-.608-4.548-1.821-10.31-.91-11.523.91-1.213 9.703-4.852 6.974-9.4-2.73-4.548-6.672-11.827-6.672-15.162 0-3.335-3.639-7.278-2.426-10.614 1.213-3.335 11.827 2.427 15.769 3.033 3.942.607 9.4 3.639 13.04 3.639 3.638 0 6.064-3.942.606-7.885-5.459-3.941-22.137-13.342-23.653-20.013-1.516-6.671-5.156-14.862-9.703-18.197-4.55-3.336-6.672-6.065-6.672-8.794 0-2.73 6.065.303 10.007-5.155 3.942-5.458 3.336-16.072 3.336-18.194 0-2.123 4.245-4.246 4.245-7.278s-6.065-13.646-13.04-14.252c-6.974-.607-8.187-.607-10.31-.607-2.122 0 3.336-9.704-.91-10.007-4.244-.303-5.76 7.885-8.49 7.885-2.729 0-6.367-2.123-8.794-3.336-2.426-1.213-6.975 3.032-4.548 5.155l2.426 2.122s6.974.607 4.549 4.246l-2.427 3.639s-4.548 3.639-4.548 12.13c0 8.49 10.31 18.8 10.31 21.226s-5.762 5.459-7.884 5.459c-2.123 0-10.31 8.49-13.04 8.49-2.729 0-23.653-11.523-26.685-23.35-3.032-11.825-5.762-24.259-8.49-27.29-2.73-3.033-8.188-7.279-8.188-10.31 0-3.034 13.646-6.672 13.95-11.524.302-4.852 1.515-8.187 3.334-9.704 1.82-1.516 10.311-2.426 10.311-6.368s-8.794-2.73-11.523-6.671c-2.73-3.942-7.278-15.162-20.62-15.162z"/><path fill="#0334A6" d="M236.99 229.11c-3.378.374-6.789 4.245-6.789 6.368s7.643 3.398 7.643 1.275 2.966-8.07-.854-7.643zM151.647 179.855c-2.369-.947-3.823 4.243-5.52 5.094-1.696.85-1.274 3.397 2.972 3.397 4.245 0 6.794-6.792 2.548-8.491z"/></svg>