<svg class="svgOrigin" xmlns="http://www.w3.org/2000/svg" width="400" height="400"><path fill="red" d="M396.434 369.57c0 15.687-12.836 28.523-28.524 28.523H32.09c-15.688 0-28.524-12.836-28.524-28.524V30.431c0-15.687 12.836-28.523 28.524-28.523h335.82c15.688 0 28.524 12.836 28.524 28.523V369.57z"/><path fill="none" stroke="#FFF" stroke-width="2.852" d="M367.91 392.388H32.093c-12.58 0-22.822-10.24-22.822-22.819V30.437c0-12.58 10.242-22.825 22.822-22.825H367.91c12.58 0 22.824 10.245 22.824 22.825v339.132c0 12.58-10.245 22.819-22.824 22.819h0z"/><path fill="#FFF" d="M326.272 72.598a15.595 15.595 0 00-11.069-4.596H89.312l61.507 61.504-26.167 14.184L69.14 88.18v228.164c0 4.323 1.757 8.233 4.593 11.063a15.579 15.579 0 0011.064 4.591h228.161l-81.042-81.036 25.042-15.32 73.905 73.905V83.662a15.61 15.61 0 00-4.59-11.064z"/><path fill="#0334A6" d="M71.257 185.617a5.715 5.715 0 012.3-7.732L272.864 69.852a5.714 5.714 0 017.733 2.3 5.707 5.707 0 01-2.295 7.733L78.995 187.918c-.866.468-1.8.69-2.719.69a5.696 5.696 0 01-5.02-2.99zM181.22 268.6c-1.638-2.685-.797-6.206 1.894-7.844L312.54 181.6c2.685-1.633 6.206-.791 7.838 1.894a5.714 5.714 0 01-1.883 7.85l-129.431 79.15a5.71 5.71 0 01-7.844-1.893v-.001z"/><path fill="#FFF" d="M216.54 267.174h-.005c-.568-1.259-.568-2.363-.568-2.752.295-3.9 1.593-5.193 2.612-7.421a170.672 170.672 0 001.788-3.342l-.116-.234c-.535-1.059-1.354-2.519-2.245-4.01-1.806-3.088-3.79-6.208-4.864-8.358-1.036-2.106-3.426-8.122-6.15-14.641a319.049 319.049 0 00-4.135-9.603c-.138.11-.272.222-.412.344-2.083 1.705-4.445 4.023-5.019 4.657a16.216 16.216 0 00-.39 1.371c-.284 1.181-.579 2.83-.824 4.613-.535 3.577-.93 7.744-1.165 10.685-.484 4.98-1.014 11.064-3.354 15.844-.819 1.404-2.306 4.268-6.746 4.558-.707-.045-6.997.68-11.677.69-2.451-.167-4.084.235-7.387-1.426-.98-.512-2.585-1.995-3.042-4.2a6.199 6.199 0 01-.15-1.193v-.211c.479-4.96 2.685-6.073 3.972-7.967 1.46-1.65 2.747-3.242 3.108-4.067.173 0 1.672-7.41 2.402-13.95.863-6.729 1.493-13.983 1.482-16.01.122-5.084 2.624-8.672 4.941-11.77 2.401-3.03 4.997-5.42 6.624-6.78.74-.629 1.493-1.425 1.917-2.077.434-.67.484-1.07.484-1.07s-.039-.083-.039-.072c-1.978-4.117-4.852-11.772-6.3-18.134-.44.3-.892.624-1.338.953-2.835 2.067-6.646 4.061-10.139 6.261-3.454 2.034-6.373 4.708-6.384 5.142-.88 1.845-3.37 4.407-6.786 4.38-4.997-.435-6.362-3.343-7.626-5.299-1.137-2.217-1.828-4.651-1.856-7.404.012-1.754.324-3.677 1.366-5.554 2.423-3.972 6.122-6.624 10.038-9.604 3.499-2.53 6.596-4.535 8.78-5.688a21.06 21.06 0 001.293-1.839c1.114-1.721 2.523-4.15 3.95-6.763 2.885-5.209 5.894-11.086 7.576-14.217 2.457-4.457 6.033-7.76 8.434-10.095a27.112 27.112 0 01-2.99-2.373c-2.664-2.713-3.528-5.627-3.9-7.733-1.176-.078-2.452-.25-3.834-.657-1.777-.524-5.008-1.96-6.083-5.86l-.006.005c-.273-.908-.261-1.8-.25-1.872-.011-2.886 1.71-4.964 2.919-5.916 1.276-1.025 2.406-1.533 3.431-1.978 1.22-.485 2.407-.897 3.126-1.16.34-.628.87-1.676 1.626-2.879 1.605-2.635 4.914-6.145 10.05-7.449a12.98 12.98 0 013.605-.495c7.008.35 10.78 4.551 12.546 8.273.847.345 2.15.674 3.877 1.543.98.557 3.79 2.006 4.012 6.19-.245 4.5-3.466 6-4.408 6.473-.233.111-.456.211-.662.306-.133 1.638-.301 3.52-.301 5.47-.034 1.589.19 3.098.323 3.633 2.875 2.736 13.822 11.164 18.975 18.64 2.351 3.466 6.786 10.597 10.841 17.761 4.05 7.454 7.615 13.616 8.507 19.025.1.891.145 1.805.145 2.747 0 3.32-.63 6.39-1.894 9.097-1.26 2.479-3.293 5.844-8.351 6.14-4.262-.296-5.622-2.624-6.736-3.962-1.092-1.554-1.844-3.153-2.512-4.785a73.815 73.815 0 01-.97-2.686c.201.998.273 1.979.273 2.92-.183 5.938-2.584 11.253-2.289 11.894-.111.039.858 4.122 1.984 7.616 1.075 3.85 2.3 6.932 2.45 10.543l.023.11c.028.224.077.558.15.981.151.825.384 1.961.669 3.254.58 2.596 1.387 5.883 2.267 9.159 1.605 6.362 4.006 13.682 4.317 13.983.87 1.56 2.39 4.267 3.739 7.12 1.314 2.997 2.663 5.626 2.807 9.38-.01 1.372-.222 3.622-2.422 5.728-2.43 2.028-9.622 6.752-15.238 9.66-2.066.903-3.02 1.76-6.2 1.984-.078.01-.179.021-.295.021-1.165 0-4.078-.756-5.371-3.598z"/><path fill="#FFF" d="M228.98 174.08a20.733 20.733 0 01-.535-2.986c-.134-.245-.35-.619-.624-1.053-.155-.251-.334-.524-.529-.808.663 1.977 1.265 3.7 1.688 4.847zM191.47 102.95c.742 1.448.864 2.406 1.037 3.247.284 1.632.446 2.92.696 3.599.134.407.162.395.162.395 1.075 1.003 2.29 1.71 3.86 2.752.703.463 2 1.338 3.037 2.786-.25-1.693-.201-3.315-.312-4.92 0-3.899.518-8.127.479-8.289a7.382 7.382 0 01.696-3.008c-.952-.763-1.95-1.906-2.562-3.75-.028.011-.011-.077-.19-.322a3.814 3.814 0 00-.668-.808c-.58-.507-.975-.67-1.42-.67-.224 0-.363.03-.447.051l-1.582-5.482 1.432 5.521c-2.005.596-2.502 1.248-3.438 2.585-.913.986-.846 2.306-2.534 4.229.874.685 1.515 1.476 1.755 2.083z"/><path fill="#0334A6" d="M194.262 88.537c-7.226 1.872-7.688 8.384-9.783 9.548-2.095 1.165-7.677 2.095-7.214 4.658.462 2.563 5.85 2.58 8.178 2.345 2.328-.233.786 6.262 4.044 9.288 3.26 3.024 6.636 3.737 6.636 6.066 0 2.329-7.683 7.226-10.942 13.276-3.26 6.05-12.111 23.749-14.674 24.913-2.563 1.165-14.668 9.087-16.997 13.276-2.329 4.19 2.334 13.276 4.891 8.385 2.557-4.892 13.738-10.017 18.162-13.276 4.423-3.26 9.548-6.056 9.548-2.095 0 3.96 4.418 17.231 6.518 21.192 2.101 3.961-.924 7.916-3.72 10.245-2.798 2.329-9.55 8.847-9.55 14.204 0 5.359-2.568 28.422-4.428 32.378-1.861 3.956-6.753 7.443-6.518 9.772.233 2.328 13.971.468 16.534.468 2.563 0 3.955-9.081 4.424-15.131.467-6.062 1.626-17.003 3.258-19.331 1.633-2.33 10.714-10.017 12.112-10.251 1.399-.235 11.877 26.774 13.504 30.039 1.627 3.265 8.15 13.047 8.15 15.142 0 2.094-5.353 9.314-4.657 11.175.697 1.86 16.06-8.145 18.161-10.006 2.101-1.872-3.258-11.42-5.353-15.141-2.095-3.722-8.15-27.02-8.15-30.274 0-3.264-4.424-14.437-4.424-18.164 0-3.727 3.487-10.016 1.861-14.674-1.627-4.657-8.146-22.584-6.519-25.38 1.627-2.798 5.354 1.163 6.519 3.492 1.164 2.328 10.245 13.042 10.245 15.37s3.024 12.106 5.821 12.106c2.797 0 5.131-5.821 4.43-11.643-.702-5.822-13.978-27.705-18.401-34.229-4.424-6.523-15.84-15.359-18.63-18.155-2.791-2.797-1.164-13.51-1.164-15.605 0-2.095 4.891-2.1 4.891-3.96 0-1.862-6.29-2.096-6.986-4.424-.696-2.329-4.245-7.031-9.777-5.599z"/><g fill="#0334A6"><path d="M258.173 320.4h-16.82v-16.792h9.627a2.865 2.865 0 002.853-2.863 2.855 2.855 0 00-2.853-2.852h-9.626v-13.014a2.853 2.853 0 00-2.847-2.853 2.854 2.854 0 00-2.853 2.853v15.832c0 .012-.006.022-.006.034 0 .01.006.01.006.023v19.631h-4.1v-26.785a2.865 2.865 0 00-2.852-2.852 2.842 2.842 0 00-2.847 2.852V320.4h-6.273a2.855 2.855 0 00-2.853 2.853 2.855 2.855 0 002.853 2.852h38.59a2.853 2.853 0 000-5.705zM114.43 323.063c-1.647-.68-2.614-1.85-3.235-2.954-.523-.947-.63-1.537-.688-1.715h.894c.755 0 1.474-.301 2.009-.835.543-.547.841-1.26.841-2.018v-15.152c0-.77-.298-1.483-.841-2.017a2.786 2.786 0 00-2.009-.836h-5.89v-1.415h7.308a2.873 2.873 0 002.861-2.863 2.863 2.863 0 00-2.86-2.853h-4.992v-1.426h2.682a2.854 2.854 0 002.85-2.852 2.846 2.846 0 00-2.85-2.853h-2.682v-.702a2.848 2.848 0 10-5.697 0v.702h-1.078v-.702a2.848 2.848 0 10-5.696 0v.702h-.894a2.846 2.846 0 00-2.85 2.853 2.854 2.854 0 002.85 2.852h.894v1.426h-6.379c-.465-.936-1.412-1.604-2.535-1.604h-2.317v-4.1a2.857 2.857 0 00-5.713 0v4.1h-2.855a2.853 2.853 0 000 5.704h2.565c-.211 1.627-.54 3.867-1.011 6.306-.891 4.792-2.515 10.408-4.226 12.713a2.87 2.87 0 00.658 3.99 2.865 2.865 0 001.66.523c.891 0 1.772-.412 2.329-1.192.314-.468.593-1.014.88-1.537v7.899a2.857 2.857 0 005.713 0v-12.98c.593.29 1.278.412 1.97.234a2.865 2.865 0 002.03-3.487l-3.073-11.633c.508.468 1.173.78 1.92.78H99.81v1.415h-6.426c-.741 0-1.485.3-2.02.836a2.916 2.916 0 00-.83 2.017v15.152c0 .758.299 1.47.844 2.018.532.534 1.25.835 2.006.835h.713a30.243 30.243 0 01-1.51 2.072c-1.19 1.571-2.986 3.031-3.593 3.11a2.845 2.845 0 00-2.022 3.487 2.86 2.86 0 002.766 2.117c.245 0 .492-.023.74-.09 5.714-1.939 8.8-8.58 9.123-8.724.354-.624.423-1.326.298-1.972h2.705c.02 0 .036.011.056.011.02 0 .036-.011.055-.011h2.15c-.035.278-.07.568-.016.869l-.011-.011c.086.289 1.064 6.373 7.448 9.092.348.144.71.212 1.067.212 1.123 0 2.19-.67 2.649-1.772.582-1.46-.111-3.142-1.574-3.721zm-13.377-34.084h1.078v1.426h-1.078v-1.426zm-4.816 23.699v-1.415h3.574v1.415h-3.574zm9.273-1.415h3.028v1.415h-3.028v-1.415zm3.028-8.023v2.319h-3.028v-2.319h3.028zm-8.727 0v2.319h-3.574v-2.319h3.574zM162.022 285.77H153.6c3.627-2.763 6.596-5.471 6.74-5.527a2.858 2.858 0 00.263-4.021 2.841 2.841 0 00-4.028-.257c-.011 0-2.58 2.262-5.677 4.669-3.02 2.406-6.936 4.969-8.189 5.236-.05.012-.073.068-.117.078-.072.033-.15.023-.218.056-.312-.546-.763-1.014-1.342-1.259a2.839 2.839 0 00.045-3.99 2.839 2.839 0 00-4.023-.065l-.061.055c-.2-1.382-1.348-2.463-2.78-2.463-1.337 0-2.407.937-2.719 2.185l-.585-.613a2.852 2.852 0 00-4.033-.045 2.833 2.833 0 00-.05 4.022h-.011l.668.691h-1.292c-.19 0-.362.078-.54.112v-4.747a2.838 2.838 0 00-2.853-2.841 2.827 2.827 0 00-2.836 2.84h-.01v42.608c0 .758.295 1.47.84 2.017a2.833 2.833 0 002.006.836h14.524c-.262.39-.452.668-.452.668a2.845 2.845 0 00.68 3.977 2.851 2.851 0 001.655.525c.897 0 1.777-.413 2.34-1.204.033-.301 4.534-5.883 4.78-11.276v-26.562h5.905v33.872c0 1.57 1.259 2.84 2.846 2.84a2.852 2.852 0 002.853-2.84v-33.872h4.094a2.85 2.85 0 002.847-2.853 2.85 2.85 0 00-2.847-2.852zm-22.1 4.457c.25 0 .48-.079.708-.145 0 2.05 0 6.017-.006 10.396l-2.707-10.251h2.005zm-14.273-.112c.179.045.351.112.54.112h4.931c-.167 1.96-.44 4.646-.836 7.476-.623 5.382-2.445 11.644-3.259 12.066a2.868 2.868 0 000 4.056 2.854 2.854 0 004.04 0v-.01c.11-.134.189-.301.295-.435v1.983a2.854 2.854 0 005.71 0v-9.293c.624.358 1.387.49 2.145.29.59-.156 1.047-.512 1.415-.947 0 5.75 0 11.13.005 12.624.028.29-.134.903-.373 1.605H125.65v-29.527zM214.078 288.578a2.853 2.853 0 00-2.847-2.852h-3.214v-4.591a2.855 2.855 0 00-2.847-2.863 2.857 2.857 0 00-2.853 2.863v4.59h-4.322c-1.377 0-2.474 1.004-2.736 2.296-.267-1.292-1.37-2.295-2.74-2.295h-3.215v-4.591a2.857 2.857 0 00-2.853-2.863 2.858 2.858 0 00-2.858 2.863v4.59h-4.312a2.853 2.853 0 000 5.705h1.17a65.784 65.784 0 01-2.919 3.12 2.865 2.865 0 000 4.045 2.847 2.847 0 002.022.835c.73 0 1.466-.279 2.028-.835l-.01-.012a64.045 64.045 0 002.021-2.15v2.618a2.865 2.865 0 002.858 2.864 2.864 2.864 0 002.853-2.864v-2.24l.974 1.238a2.832 2.832 0 004 .49 2.851 2.851 0 00.48-4l-2.44-3.11h.2c1.37 0 2.474-1.001 2.741-2.305.262 1.304 1.36 2.306 2.736 2.306h1.17a63.083 63.083 0 01-2.915 3.12 2.856 2.856 0 00.012 4.045 2.867 2.867 0 002.022.835c.73 0 1.46-.279 2.017-.835l-.011-.012c.724-.724 1.376-1.437 2.027-2.15v2.618a2.865 2.865 0 002.853 2.864c1.571 0 2.847-1.293 2.847-2.864v-2.228l.97 1.237c.963 1.237 2.757 1.448 4 .48 1.236-.981 1.458-2.775.484-4.013l-2.44-3.097h.2a2.853 2.853 0 002.847-2.852zM203.209 309.124a2.865 2.865 0 002.852-2.852 2.865 2.865 0 00-2.852-2.853h-14.44a2.854 2.854 0 00-2.853 2.853 2.854 2.854 0 002.853 2.852h14.44zM213.37 315.185a2.854 2.854 0 00-2.852-2.852h-30.663a2.85 2.85 0 00-2.852 2.852 2.858 2.858 0 002.852 2.852h5.181c-.172.19-.323.368-.496.546-1.203 1.293-2.479 2.563-3.532 3.432-.518.434-.98.77-1.276.936-.083.044-.155.078-.2.1a2.83 2.83 0 00-2.524 2.83 2.843 2.843 0 002.847 2.852c4.117-.579 5.928-3.532 8.847-6.261a102.972 102.972 0 003.805-4.312v9.325a2.854 2.854 0 002.852 2.853 2.858 2.858 0 002.853-2.853v-9.448h1.303a64.34 64.34 0 002.507 4.3c2.207 2.864 3.6 6.296 8.134 6.92a2.837 2.837 0 002.847-2.841 2.85 2.85 0 00-2.613-2.84c-.474-.28-2.596-2.542-3.877-4.814-.157-.245-.284-.48-.429-.725h4.434a2.862 2.862 0 002.852-2.852z"/></g></svg>