<svg class="svgOrigin" xmlns="http://www.w3.org/2000/svg" width="400" height="400"><circle transform="rotate(-45 200 200)" fill="red" cx="200" cy="200" r="197.667"/><circle transform="rotate(-45 200 200)" fill="none" stroke="#FFF" stroke-width="5.648" cx="200" cy="200" r="189.195"/><path fill="#FFF" d="M296.164 276.183l5.074 5.079c17.88-22.248 28.602-50.498 28.602-81.262 0-71.715-58.131-129.851-129.84-129.851-30.767 0-59.019 10.727-81.267 28.613l24.454 24.45c-.292 1.141-.507 2.3-.543 3.523.033 3.15.937 5.654 1.635 7.6.218.613.433 1.17.607 1.622-1.914.838-2.876 2.146-4.037 3.227-3.188 3.628-6.185 8.83-8.364 13.258l-33.717-33.714C80.882 140.976 70.154 169.225 70.154 200c0 71.709 58.134 129.84 129.846 129.84 30.764 0 59.013-10.722 81.262-28.602l-22.304-22.31c4.908 2.257 10.347 3.552 16.104 3.552a38.416 38.416 0 0021.102-6.297z"/><path fill="#0334A6" d="M275.063 210.942c-2.67 0-5.24.348-7.733.949-.033-.022-.066-.038-.1-.06-2.569-1.584-8.801-15.532-9.397-18.107-.596-2.57-2.868-7.027-5.052-11.378-2.174-4.357-6.53-4.848-11.174-4.848-4.755 0-4.257 4.352-.497 4.352 5.637 0 8.207 5.244 8.903 5.94.694.689 3.264 7.12 2.669 8.802-.596 1.682-8.207-1.782-11.174-1.782h-20.186c-4.357 0-9.608 4.06-12.575 4.06-2.967 0-6.922-4.556-9.296-6.73-2.374-2.178-1.583-9.502-.595-11.873.987-2.377 6.232-8.61 8.314-11.378 2.073-2.769 4.743-2.576 6.629.193 1.875 2.768 12.762 10.589 14.737 11.482 1.986.888 7.997 2.488 8.195-.386.199-2.867-6.011-4.462-10.27-7.727-4.257-3.264-8.305-7.82-8.305-17.715 0-9.894-.794-11.08-1.985-12.663-1.192-1.582-3.861-4.654-3.861-6.238 0-1.582 1.29-2.57 4.457-4.251 3.165-1.683 1.676-10.193 3.165-10.193 1.478 0 4.159-.993 4.159-2.873 0-1.88-6.43-8.212-11.582-8.212-5.14 0-11.177 7.92-11.177 12.072 0 4.16 2.769 6.431 2.769 10.292 0 3.86-4.057 4.252-7.421 7.815-3.365 3.563-11.775 19.596-14.742 24.146-2.968 4.55-5.54 4.947-8.213 5.046-2.672.1-5.838-3.96-7.52-5.543-1.682-1.582-2.868-8.61-2.868-12.563 0-3.96-3.268-5.642-4.158-7.324-.89-1.683-.692-5.245 1.484-5.245s5.738-3.663 5.738-6.63.695-7.026 2.672-7.026c1.977 0 1.98-2.57.496-4.054-1.483-1.483-5.74-6.332-11.38-6.332-5.64 0-9.895 8.014-9.895 11.775 0 3.762 2.573 8.114 2.573 9.696 0 1.583.888 4.39-2.641 4.39s-10.59 13.182-12.707 18.593c-2.119 5.415-14.737 26.677-14.737 29.588 0 2.913 1.853 4.678 1.853 5.825 0 1.147-.883 5.824-1.942 5.824s-3.998-.055-6.116-.53c-2.118-.469-7.06-4.941-7.06-1.643 0 3.293 5.41 5.647 6.823 7.06 1.029 1.026 1.053 4.544.629 7.29-12.829 4.506-22.045 16.695-22.045 31.057 0 18.2 14.753 32.942 32.943 32.954 14.836-.012 27.372-9.817 31.506-23.297h44.505c7.531 0 13.653-7.302 15.77-10.357 2.119-3.056-6.122.231-7.301 1.412-1.181 1.18-3.53-1.644-3.53-6.828 0-5.174-5.88-5.648-5.88-8.472 0-7.462 9.498-19.646 12.862-19.646h41.353c2.185 0 3.575 2.808 4.38 5.185-10.369 5.549-17.418 16.48-17.418 29.055 0 18.2 14.748 32.948 32.949 32.948 18.189 0 32.937-14.748 32.937-32.948 0-18.196-14.748-32.949-32.938-32.949zm-173.356 36.004c-.13-1.015-.309-2.007-.312-3.061.022-13.513 10.96-24.45 24.472-24.47 7.84.01 14.728 3.76 19.204 9.485-.066 1.324-.29 2.284-.61 2.284h-19.766c-9.65 0-10.355 15.762-11.767 15.762h-11.221zm24.16 21.41c-10.082-.016-18.72-6.11-22.47-14.814h44.939c-3.748 8.703-12.379 14.798-22.47 14.814zm149.196 0c-13.524-.022-24.456-10.948-24.477-24.465.01-8.693 4.566-16.265 11.394-20.606.1.077.199.133.298.22 2.526 2.219 6.133 10.811 7.258 15.366-1.213 1.335-2.008 3.072-2.008 5.02 0 4.158 3.376 7.533 7.535 7.533s7.534-3.375 7.534-7.533c0-3.662-2.67-6.564-6.122-7.247-4.027-4.898-6.74-11.197-6.972-13.535-.088-.932.11-2.04.419-3.122a24.677 24.677 0 015.14-.573c13.513.022 24.456 10.964 24.477 24.477-.021 13.517-10.964 24.443-24.476 24.465z"/><path fill="#0334A6" d="M260.999 192.709c0-3.707 6.706-7.854 10.853-7.854 4.148 0 3.971 3.883 3.971 7.148 0 3.265-1.677 8.207-6.353 8.207-4.677 0-8.471-3.795-8.471-7.501zM232.032 226.54c0 2.724-7.445 12.712-11.118 12.712-3.674 0-8.196-4.517-8.196-8.003 0-3.485 8.295-11.68 11.306-11.68 3.012 0 8.008 4.047 8.008 6.97z"/><path fill="#FFF" d="M190.117 220.793c0 2.542-4.898 12.056-10.642 12.056s-6.028-1.699-6.028-5.372 7.065-10.831 11.491-10.831c4.426 0 5.179 1.604 5.179 4.147zM172.694 176.809c1.6 0 1.696 6.027.471 6.783-1.224.75-3.485 1.793-3.485 3.486 0 1.693 3.58 4.991 4.239 5.835.659.85.659 7.44-1.884 7.44h-9.417c-1.509 0-12.995-8.196-14.315-8.477-1.321-.281-2.452-4.33-.284-6.685 2.167-2.355 6.78-12.43 6.78-14.88 0-2.448 4.143-2.354 5.745-.187 1.602 2.168 4.332 6.685 12.15 6.685z"/></svg>