<svg class="svgOrigin" xmlns="http://www.w3.org/2000/svg" width="400" height="400"><path fill="#0334A6" d="M389.626 375.874c0 11.709-9.573 21.282-21.278 21.282H31.654c-11.705 0-21.28-9.573-21.28-21.282V24.126c0-11.709 9.575-21.283 21.28-21.283h336.694c11.705 0 21.278 9.574 21.278 21.283v351.748z"/><path fill="none" stroke="#FFF" stroke-width="4.555" d="M383.887 370.918c0 11.354-9.288 20.638-20.642 20.638H36.755c-11.351 0-20.638-9.284-20.638-20.638V29.082c0-11.353 9.287-20.638 20.637-20.638h326.491c11.354 0 20.642 9.285 20.642 20.638v341.836z"/><path fill="#FFF" d="M262.985 272.768c-6.232 2.539-21.118 7.865-34.846 12.696h-.01c-2.922 1.027-3.656-.793-3.656-2.98V254.58c0-5.009-4.102-9.11-9.11-9.11H184.64c-5.012 0-9.112 4.101-9.112 9.11v27.903c0 2.188-.733 4.008-3.656 2.98h-.007c-13.733-4.83-28.614-10.156-34.848-12.695-12.922-5.264-19.621-2.87-7.178 9.573 8.772 8.772 40.054 42.76 57.743 62.05 7.399 8.066 9.914 9.925 12.419 9.925 2.505 0 5.026-1.864 12.434-9.939 17.688-19.29 48.958-53.264 57.726-62.036 12.447-12.444 5.748-14.837-7.176-9.573zM285.589 69.231H117.606c-9.964 0-24.77 21.639-24.77 31.323v39.002c0 7.687 8.542 13.096 13.098 13.096h9.522c1.159 0 3.877-2.793 4.128-4.132 1.944-10.343 11.044-18.19 21.939-18.19 11.242 0 20.573 8.354 22.101 19.187.145 1.023 2.916 3.135 4.28 3.135H250.8c1.81 0 5.459-2.535 5.667-3.758 1.788-10.526 10.974-18.565 22.003-18.565 11.15 0 20.42 8.217 22.061 18.92.174 1.113 1.993 3.403 2.612 3.403h1.521c3.705 0 7.117-2.846 7.117-7.112V98.846c0-10.814-16.512-29.615-26.193-29.615z"/><path fill="#0334A6" d="M152.438 102.997a4.57 4.57 0 01-4.556 4.555h-16.894a4.57 4.57 0 01-4.555-4.555v-18.6a4.57 4.57 0 014.555-4.556h16.894a4.57 4.57 0 014.556 4.556v18.6zM122.734 102.997a4.57 4.57 0 01-4.555 4.555h-12.815a4.57 4.57 0 01-4.555-4.555v-.548c0-2.504 1.236-6.188 2.75-8.185l8.167-10.793c1.512-1.997 4.606-3.63 6.878-3.63 2.272 0 4.13 2.051 4.13 4.556v18.6zM182.45 102.997a4.57 4.57 0 01-4.555 4.555h-16.891a4.57 4.57 0 01-4.556-4.555v-18.6a4.57 4.57 0 014.556-4.556h16.891a4.57 4.57 0 014.556 4.556v18.6zM212.467 102.997a4.57 4.57 0 01-4.557 4.555h-16.893a4.57 4.57 0 01-4.556-4.555v-18.6a4.57 4.57 0 014.556-4.556h16.893a4.57 4.57 0 014.557 4.556v18.6zM242.481 102.997a4.57 4.57 0 01-4.555 4.555h-16.897a4.57 4.57 0 01-4.554-4.555v-18.6a4.57 4.57 0 014.554-4.556h16.897a4.57 4.57 0 014.555 4.556v18.6zM272.492 102.997a4.567 4.567 0 01-4.556 4.555h-16.891a4.57 4.57 0 01-4.556-4.555v-18.6a4.57 4.57 0 014.556-4.556h16.891c2.51 0 4.556 2.051 4.556 4.556v18.6zM302.485 102.997c0 2.504-2.054 4.555-4.555 4.555h-16.897a4.57 4.57 0 01-4.555-4.555v-18.6a4.57 4.57 0 014.555-4.556h5.602c2.505 0 5.765 1.655 7.247 3.679l5.912 8.092c1.481 2.025 2.691 5.73 2.691 8.235v3.15z"/><path fill="#FFF" d="M111.837 91.88a1.703 1.703 0 01-1.708-1.7c0-.952.763-1.708 1.708-1.708h4.084c.936 0 1.708.756 1.708 1.708 0 .938-.772 1.7-1.708 1.7h-4.084zM284.993 91.88a1.701 1.701 0 01-1.708-1.7 1.7 1.7 0 011.708-1.708h4.084c.934 0 1.708.756 1.708 1.708 0 .938-.774 1.7-1.708 1.7h-4.084zM136.727 92.475a2.297 2.297 0 01-2.3-2.295c0-1.277 1.026-2.3 2.3-2.3h7.396a2.298 2.298 0 012.298 2.3 2.303 2.303 0 01-2.298 2.295h-7.396zM166.542 92.475a2.305 2.305 0 01-2.309-2.295 2.3 2.3 0 012.309-2.3h7.396a2.298 2.298 0 012.298 2.3 2.303 2.303 0 01-2.298 2.295h-7.396zM196.346 92.475a2.296 2.296 0 01-2.298-2.295c0-1.277 1.024-2.3 2.298-2.3h7.396a2.287 2.287 0 012.295 2.3 2.292 2.292 0 01-2.295 2.295h-7.396zM226.164 92.475a2.306 2.306 0 01-2.309-2.295c0-1.277 1.037-2.3 2.31-2.3h7.392a2.3 2.3 0 012.3 2.3 2.305 2.305 0 01-2.3 2.295h-7.393zM255.97 92.475a2.305 2.305 0 01-2.3-2.295 2.3 2.3 0 012.3-2.3h7.402a2.289 2.289 0 012.287 2.3 2.294 2.294 0 01-2.287 2.295h-7.401zM141.523 136.709c-8.806 0-15.944 7.14-15.944 15.943 0 8.805 7.138 15.945 15.944 15.945 8.806 0 15.944-7.14 15.944-15.945 0-8.803-7.138-15.943-15.944-15.943zM278.47 136.709c-8.808 0-15.944 7.14-15.944 15.943 0 8.805 7.136 15.945 15.945 15.945 8.81 0 15.945-7.14 15.945-15.945 0-8.803-7.136-15.943-15.945-15.943zM336.428 41.583h14.815v37.044h-14.815zM336.428 132.94h14.815v37.044h-14.815zM336.428 224.298h14.815v37.046h-14.815zM336.428 315.661h14.815v37.044h-14.815zM45.611 41.583H60.43v37.044H45.611zM45.611 132.94H60.43v37.044H45.611zM45.611 224.298H60.43v37.046H45.611zM45.611 315.661H60.43v37.044H45.611z"/><g fill="#FFF"><path d="M131.86 180.51a1.708 1.708 0 00-2.012 1.344c0 .018-1.847 9.284-9.071 19.819a1.725 1.725 0 00.433 2.389 1.727 1.727 0 002.39-.445 67.668 67.668 0 003.153-5.125v28.912h3.417v-35.817c2.25-5.316 3.01-8.982 3.034-9.066.178-.925-.425-1.832-1.344-2.01zM164.542 208.19c.332.33.768.494 1.206.494a1.72 1.72 0 001.212-.495c2.903-2.993 3.268-7.126 3.317-7.277.06-.48-.087-.965-.414-1.33a1.716 1.716 0 00-1.272-.583h-6.237c.066-.183.118-.378.118-.587v-3.906c0-.009.005-.013.005-.022s-.005-.013-.005-.023v-4.355c0-.009.005-.013.005-.022s-.005-.013-.005-.022v-3.817c0-.454-.178-.881-.505-1.206a1.672 1.672 0 00-1.203-.503h-12.639l1.114-1.677h15.564a1.71 1.71 0 001.706-1.717 1.7 1.7 0 00-1.706-1.703h-24.908c-.937 0-1.706.76-1.706 1.703 0 .947.769 1.717 1.706 1.717h5.245l-1.622 2.443-.029.097c-.147.254-.249.525-.251.837l-.005.013v12.532c0 .075.034.142.045.218h-5.526a1.7 1.7 0 00-1.656 1.295l-1.186 4.746a1.709 1.709 0 001.235 2.082 1.721 1.721 0 002.082-1.24l.858-3.466h2.351c-.367.618-.422 1.379.076 1.952v-.009c.047.063.503.543 1.301 1.202a1.714 1.714 0 00-1.74.725l-2.666 4a1.713 1.713 0 001.414 2.664c.554 0 1.1-.271 1.43-.76l2.666-4a1.69 1.69 0 00.046-1.78c1.533 1.09 3.772 2.407 6.973 3.55-.062.08-.149.139-.195.231 0 .01-.603 1.265-2.182 2.955-1.602 1.686-4.1 3.693-7.794 4.916a1.715 1.715 0 001.087 3.252c1.826-.614 3.328-1.406 4.691-2.252.876.784 2.33 2.003 4.23 3.395-2.926 1.682-7.106 3.358-13.17 4.444a1.702 1.702 0 00-1.392 1.976 1.72 1.72 0 001.682 1.423c.1 0 .202-.009.305-.031 7.356-1.294 12.331-3.51 15.686-5.712 3.39 2.122 7.48 4.129 11.773 4.822a1.7 1.7 0 001.944-1.423 1.692 1.692 0 00-1.421-1.944c-3.21-.467-6.489-1.971-9.371-3.684 2.526-2.283 3.37-4.16 3.432-4.373.247-.64.11-1.361-.374-1.847l-4.991-4.982c3.116.738 6.822 1.232 11.188 1.228.947 0 1.708-.761 1.708-1.708s-.76-1.708-1.708-1.708c-3.877 0-7.129-.427-9.887-1.041.227-.152.436-.338.576-.592.3-.56.23-1.205-.089-1.713l4.778 2.425a1.692 1.692 0 002.29-.752c.433-.841.1-1.865-.751-2.291l-5.007-2.554 8.466.005c-.356 1.107-.955 2.451-1.898 3.344a1.706 1.706 0 000 2.42zm-8.063 9.458c-.482.671-1.354 1.66-2.68 2.748a59.656 59.656 0 01-4.4-3.397c1.384-1.201 2.474-2.398 3.172-3.347l3.944 3.943c-.011.017-.025.035-.036.053zm-9.831-25.847h12.41v.966h-12.41v-.966zm12.41-3.421h-12.41v-.431h12.41v.43zm-12.41 10.401v-2.59h12.41v2.221c0 .209.05.404.117.587h-12.572c.012-.076.045-.143.045-.218zm2.257 6.633c-1.745-.876-2.98-1.734-3.77-2.357-.35-.28-.567-.48-.734-.641l3.681.004c-.037.054-.09.089-.124.147a1.714 1.714 0 00.69 2.318l3.454 1.864a30.401 30.401 0 01-3.197-1.335zm5.726-1.196l-3.339-1.798h3.417c-.047.067-.11.111-.147.186-.269.54-.205 1.13.069 1.612zM283.066 218.996a2.268 2.268 0 00-3.02 1.085s-.596 1.255-1.878 2.559c-1.303 1.325-3.052 2.49-5.43 2.49-2.95.018-4.197-.565-4.436-.809-.205-.2-.334-.41-.357-1.505v-14.848h13.445a2.284 2.284 0 002.282-2.283 2.278 2.278 0 00-2.282-2.282h-15.695c-.01 0-.014-.004-.018-.004-.009 0-.018.004-.027.004h-2.473v-8.532h12.567a2.278 2.278 0 000-4.556h-12.567v-7.945a2.27 2.27 0 00-2.278-2.278 2.269 2.269 0 00-2.27 2.278v7.945h-9.407c.84-1.602 1.356-2.713 1.383-2.753a2.281 2.281 0 00-1.112-3.021 2.273 2.273 0 00-3.021 1.112c.022.022-3.813 8.083-7.492 11.704-.899.881-.899 2.332-.008 3.221.444.45 1.03.673 1.614.673.588 0 1.17-.224 1.611-.664 1.618-1.637 3.105-3.71 4.381-5.716h12.052v8.532h-19.98a2.278 2.278 0 00-2.28 2.282 2.284 2.284 0 002.28 2.283h13.97v4.604c.049.204-2.123 7.732-14.863 11.79a2.282 2.282 0 00-1.45 2.881 2.28 2.28 0 002.16 1.57c.242 0 .478-.039.714-.115 14.111-4.77 17.847-12.759 17.99-16.126v-4.604h6.223V222.816c-.022 1.375.21 3.467 1.936 4.949 1.708 1.422 4.013 1.898 7.407 1.925 8.078-.186 11.285-7.523 11.42-7.665a2.278 2.278 0 00-1.09-3.029z"/></g></svg>