<svg class="svgOrigin" xmlns="http://www.w3.org/2000/svg" width="400" height="400"><circle fill="red" cx="200" cy="200" r="197.667"/><circle transform="rotate(-45 200 200)" fill="none" stroke="#FFF" stroke-width="5.648" cx="200" cy="200" r="189.195"/><path fill="#FFF" d="M329.852 200c0-71.715-58.143-129.852-129.852-129.852-71.715 0-129.857 58.137-129.857 129.852 0 71.72 58.142 129.852 129.857 129.852 71.709 0 129.852-58.131 129.852-129.852z"/><path fill="#0334A6" d="M267.938 89.336C248.17 77.176 224.907 70.148 200 70.148c-24.913 0-48.176 7.027-67.942 19.188L200 121.055l67.938-31.719zM132.063 310.664c19.767 12.161 43.03 19.188 67.937 19.188 24.912 0 48.176-7.027 67.942-19.188L200 278.945l-67.937 31.72zM193.161 277.76a2.829 2.829 0 01-2.824 2.823h-7.605a2.829 2.829 0 01-2.824-2.823v-4.291a2.83 2.83 0 012.824-2.824h7.605a2.83 2.83 0 012.824 2.824v4.29zM176.825 196.867a31.073 31.073 0 00-6.392-3.81 100.975 100.975 0 004.66-5.665c4.622-6.387 10.17-14.141 10.485-24.742-.06-6.568-.205-15.966-4.744-25.193-4.313-9.431-15.475-17.412-29.947-17.01-15.289-.23-25.702 8.864-30.075 16.927-4.633 8.09-5.262 15.239-5.383 16.022l19.684 1.947c-.01-.011-.01-.011.05-.375.204-1.44 1.307-5.885 3.667-9.095 2.537-3.155 4.98-5.476 12.057-5.659 8.763.403 10.01 2.472 12.293 6.134 2.057 3.882 2.708 10.628 2.636 16.302.315 1.595-2.597 8.025-6.458 12.769-1.848 2.443-3.773 4.616-5.184 6.144-1.418 1.522-2.24 2.283-2.229 2.294a9.795 9.795 0 00-3.055 7.562l.386 9.453a9.915 9.915 0 004.269 7.727 9.862 9.862 0 005.934 1.742c.248.022.734.083 1.44.265 1.649.463 3.75 1.329 5.72 3.882 1.963 2.565 4.284 7.463 4.296 17.5-.05 14.644-3.63 20.06-6.106 22.3-2.504 2.282-5.978 2.878-9.619 2.889-2.233.071-7.351-1.164-10.76-3.905-3.447-2.857-5.995-6.215-6.144-13.8h-19.772c-.132 13.303 6.172 23.727 13.86 29.458 7.716 5.818 15.989 7.93 22.816 8.003h.122c5.45 0 14.704-.823 22.69-7.943 8.052-7.22 12.746-19.336 12.685-37.002.154-17.39-5.99-29.082-13.882-35.12zM246.14 224.978A19.962 19.962 0 00242.59 223c.76-.8 1.589-1.716 2.432-2.714 2.95-3.745 6.602-8.195 6.84-14.775-.012-5.598-1.005-11.472-4.507-16.491-3.47-5.09-9.906-8.427-17.439-8.306-9.432-.149-15.983 4.93-18.896 9.746-3.039 4.787-3.458 9.067-3.545 9.585l12.005 1.318c-.01-.01.017-.303.254-1.186 1.186-2.9 2.372-7.24 10.182-7.396 4.594.122 6.122 1.33 7.583 3.205 1.429 1.93 2.333 5.438 2.312 9.525.242.496-1.55 4.296-4.027 7.004-2.372 2.83-4.776 4.87-4.754 4.892a6.013 6.013 0 00-2.09 4.854l.253 5.487a6.04 6.04 0 002.973 4.92 6.07 6.07 0 003.265.821c.474.029 2.278.25 3.739 1.33 1.628 1.285 3.795 3.364 3.928 10.948-.073 8.35-2.202 11.18-3.812 12.525-1.654 1.39-4.191 1.814-6.585 1.798-1.65.05-5.08-.734-7.34-2.377-2.284-1.732-3.74-3.508-3.834-7.595H209.47c-.11 8.025 4.136 14.257 8.995 17.494 4.887 3.337 10.049 4.501 14.235 4.545 3.408-.01 9.078-.397 14.19-4.495 5.152-4.137 8.335-11.488 8.262-21.895.133-10.303-4.014-17.38-9.011-20.787zM321.121 244.806v-23.252c.204-4.192-2.537-7.865-5.405-8.947-2.741-1.207-5.206-1.075-6.443-1.096-2.222.038-4.758.64-7.55 2.1-.198.106-.408.282-.618.409-.694-.624-1.433-1.125-2.2-1.413-2.752-1.207-5.217-1.075-6.453-1.096-2.167.038-4.638.623-7.346 2.007-1.263-1.638-3.232-3.04-5.884-3.011-6.36.325-8.268 5.306-8.5 5.57a4.229 4.229 0 002.007 5.648 4.233 4.233 0 005.643-2.008l.017-.022c.071-.116.154-.22.242-.314.26 1.048.403 2.846.387 4.323 0 .872-.017 1.633-.017 2.262-.012 2.608-.012 18.829-.012 18.84a4.246 4.246 0 004.241 4.24 4.246 4.246 0 004.242-4.24c-.011-.011 0-16.242-.011-18.84 0-.475.01-1.296.01-2.262 0-.292-.032-.667-.032-.981 0-.06.033-.116.033-.177-.033-.193.122-.689 1.511-1.5 1.208-.723 3.277-1.114 3.47-1.075 1.163-.023 2.503.11 2.961.352.336.37.22-.391.414 1.23v23.253a4.246 4.246 0 004.241 4.24 4.253 4.253 0 004.241-4.24h-.011v-22.26c-.038-.192.122-.689 1.511-1.5 1.209-.723 3.271-1.114 3.463-1.075 1.154-.023 2.504.11 2.962.352.342.37.21-.391.414 1.23v23.253a4.246 4.246 0 004.242 4.24 4.253 4.253 0 004.24-4.24h-.01z"/></svg>