<svg class="svgOrigin" xmlns="http://www.w3.org/2000/svg" width="400" height="400"><path fill="#0334A6" d="M396.352 369.477c0 12.126-9.92 22.036-22.036 22.036H25.684c-12.121 0-22.036-9.91-22.036-22.036V30.523c0-12.121 9.915-22.036 22.036-22.036h348.632c12.116 0 22.036 9.915 22.036 22.036v338.954z"/><path fill="none" stroke="#FFF" stroke-width="4.132" d="M390.402 364.345c0 11.76-9.619 21.368-21.369 21.368H30.964c-11.752 0-21.369-9.609-21.369-21.368V35.655c0-11.755 9.617-21.369 21.37-21.369h338.068c11.75 0 21.37 9.614 21.37 21.369v328.69z"/><path fill="#FFF" d="M370.249 77.171V36.537h9.642v40.634h-9.642zM370.249 162.291v-40.628h9.642v40.628h-9.642zM370.249 247.398v-40.619h9.642v40.619h-9.642zM166.165 77.171V36.537h9.64v40.634h-9.64zM166.163 162.291v-40.628h9.635v40.628h-9.635zM166.157 247.398v-40.619h9.643v40.619h-9.643zM21.07 77.171V36.537h9.641v40.634h-9.64zM21.073 162.291v-40.628h9.638v40.628h-9.638zM21.076 247.398v-40.619h9.633v40.619h-9.633zM317.839 115.422c-4.4-7.338-21.207-35.383-33.065-55.187-7.004-11.685-9.758-17.075-12.287-17.075-2.518 0-5.337 5.498-12.406 17.285-11.857 19.793-28.546 47.666-32.936 54.977-7.004 11.669 1.334 18.334 13.666 9.334 4.54-3.314 10.028-7.166 15.16-10.717V238.08h33.053V114.044c5.122 3.551 10.61 7.403 15.14 10.712 12.34 9 20.68 2.335 13.675-9.334zM380.73 345.57c0 7.23-5.854 13.082-13.085 13.082-7.22 0-13.084-5.852-13.084-13.083 0-7.22 5.865-13.084 13.084-13.084 7.231 0 13.084 5.865 13.084 13.084zM352.432 345.57c0 7.23-5.865 13.082-13.084 13.082-7.23 0-13.084-5.852-13.084-13.083 0-7.22 5.853-13.084 13.084-13.084 7.22 0 13.084 5.865 13.084 13.084zM261.685 332.42H201.91c-2.98 0-3.475-2.754-3.475-4.82v-26.684c0-3.099-1.033-3.701-2.496-3.701H173.3c-1.643 0-19.636 22.638-19.636 23.8v7.069c0 3.347 1.42.894 1.42 4.014 0 3.109.226 4.67-1.119 4.67-2.786 0-3.002 8.801 0 8.801h12.191c0-8.726 7.104-15.839 15.838-15.839 8.734 0 15.838 7.113 15.838 15.84h56.814c0-5.478 2.798-10.31 7.038-13.15z"/><path fill="#FFF" d="M378.599 278.364H238.465a2.76 2.76 0 00-2.755 2.754v47.515a2.76 2.76 0 002.755 2.755h38.929c5.261 2.571 8.93 7.94 8.93 14.181h5.95c1.26 0 1.894-.495 1.894-1.635v-8.856c0-2.657 2.916-3.69 4.561-3.69h79.87a2.76 2.76 0 002.754-2.755v-47.515a2.76 2.76 0 00-2.754-2.754z"/><path fill="#FFF" d="M270.485 332.485c-7.23 0-13.083 5.865-13.083 13.084 0 7.23 5.853 13.083 13.083 13.083 7.22 0 13.084-5.852 13.084-13.083 0-7.22-5.864-13.084-13.084-13.084zM181.995 332.485c-7.225 0-13.083 5.865-13.083 13.084 0 7.23 5.858 13.083 13.083 13.083s13.084-5.852 13.084-13.083c0-7.22-5.859-13.084-13.084-13.084z"/><path fill="#0334A6" d="M165.716 310.374c-.942 1.184-1.711 3.4-1.711 4.917v.603a2.762 2.762 0 002.755 2.754h12.653a2.762 2.762 0 002.754-2.754v-10.587a2.762 2.762 0 00-2.754-2.755h-4.734c-1.515 0-3.524.969-4.466 2.152l-4.497 5.67z"/></svg>