<svg class="svgOrigin" xmlns="http://www.w3.org/2000/svg" width="400" height="400"><path fill="#0334A6" d="M396 200c0 108.252-87.754 196.006-195.995 196.006C91.755 396.006 4 308.252 4 200S91.754 3.995 200.005 3.995C308.246 3.995 396 91.748 396 200z"/><path fill="none" stroke="#FFF" stroke-width="5.6" d="M387.6 200c0 103.608-83.992 187.605-187.595 187.605C96.392 387.605 12.4 303.608 12.4 200c0-103.614 83.992-187.605 187.605-187.605C303.608 12.395 387.6 96.386 387.6 200z"/><path fill="#FFF" d="M305.135 302.492a6.647 6.647 0 01-6.65 6.65 6.647 6.647 0 01-6.652-6.65 6.649 6.649 0 016.651-6.65 6.65 6.65 0 016.65 6.65zM202.549 298.293a4.518 4.518 0 11-4.518-4.519 4.52 4.52 0 014.518 4.519z"/><path fill="none" stroke="#FFF" stroke-width="5.6" d="M223.581 298.293c0 14.11-11.44 25.55-25.55 25.55-14.11 0-25.551-11.44-25.551-25.55 0-14.11 11.441-25.55 25.551-25.55 14.11 0 25.55 11.44 25.55 25.55zM324.034 302.492c0 14.11-11.44 25.552-25.55 25.552-14.11 0-25.55-11.441-25.55-25.552 0-14.11 11.44-25.55 25.55-25.55 14.11 0 25.55 11.44 25.55 25.55zM259.634 297.943a9.1 9.1 0 01-9.102 9.1 9.1 9.1 0 01-9.1-9.1 9.1 9.1 0 019.1-9.101 9.1 9.1 0 019.102 9.101z"/><path fill="none" stroke="#FFF" stroke-width="5.6" stroke-linecap="round" d="M247.733 281.142l5.599 35.701M218.682 267.842l39.704 34.65h40.098l-21.619-43.93h-51.183M250.379 298.02l32.005-47.679M233.032 236.691c-5.25 0-17.85-1.4-17.85 6.65s15.75 4.55 12.25 8.05c-3.5 3.5-14.985 25.808-14.985 25.808M215.199 279.408l-17.168 18.885"/><path fill="#FFF" d="M280.65 252.922c.683 0 5.796.936 8.996-.567 2.887-1.352 4.118-5.164.963-5.164h-13.651c-3.15 0-2.243 5.73 3.691 5.73zM139.815 42.665c-3.035 0-15.171 8.17-15.171 11.436 0 3.265 10.03 5.135 9.8 9.1-.23 3.965-1.864 6.765-3.965 8.165-2.1 1.4-13.294 6.07-16.565 19.136-3.27 13.065-5.835 27.306-5.835 35.936s3.035 17.27 5.835 16.8c2.8-.47 4.665-6.305 2.565-10.27-2.1-3.966.235-19.6.235-23.1s5.36-12.83 10.03-12.83c4.67 0 2.565 6.529 0 9.33-2.565 2.799-1.394 14-3.73 16.1-2.335 2.1-5.83 11.906-2.8 13.07 3.03 1.165 3.965 1.87 3.965 5.6v43.166c0 5.365-3.27 10.506-1.635 13.536 1.635 3.03 11.205 12.365 13.07 12.365 1.865 0 5.13-5.6 3.03-7.7-2.1-2.1-1.4-4.895-1.4-8.165 0-3.27 1.17-16.33 1.17-21 0-4.671-.47-18.901 1.63-18.901 2.1 0 3.036 3.965 3.036 17.265s-2.795 19.83-1.865 22.166c.93 2.334 9.565 11.2 11.665 11.2 2.1 0 3.494-3.26 2.565-6.53-.93-3.27 1.64-17.036 1.87-20.536.23-3.5.93-17.97-.47-20.536-1.4-2.564-1.87-7.93-1.4-10.965.47-3.035 7.235-7.935 6.535-11.435-.7-3.5-7.23-15.4-7.465-22.166-.235-6.764 2.565-7.464 3.265-6.3.7 1.166 4.9 21.23 7 24.266 2.1 3.035 5.365 4.9 5.365 7 0 2.1 1.018 8.105 2.417 8.105 1.4 0 7.794 2.717 7.094 5.053-.7 2.335-1.012 8.712-2.648 10.342-1.635 1.63-3.072 7.383-1.203 8.783 1.87 1.4 3.91 4.118 3.91 6.218 0 2.1-1.864 7.7 0 9.335 1.866 1.635 3.73 3.03 2.566 4.666-1.165 1.634-2.095 9.8.235 10.035 2.33.235 9.33-3.03 9.565-6.065.235-3.035-2.335-5.83-2.1-9.8.235-3.971 1.4-2.8 3.5-2.8s6.065 3.964 6.065 6.3c0 2.335-2.1 11.2.7 10.5 2.8-.7 8.635-3.035 8.635-7.235s-7.235-14.23-7-17.966c.235-3.735.706-5.37-1.864-6.77-2.57-1.4-3.036-7.46-3.036-9.33s4.9-2.33 4.9.7c0 3.03.935 9.33 3.035 9.564 2.102.236 3.735-.704 2.8-3.035-.935-2.33-1.4-8.87-2.335-13.3-.934-4.43-1.629-10.26-3.965-12.13-2.335-1.87-3.27-4.44-2.57-6.77.7-2.33 3.04-5.6 2.57-8.865-.47-3.265-2.8-6.765-7.235-6.765-4.435 0-9.565 4.9-10.265 8.165-.7 3.265 3.73 4.435 1.63 7-2.1 2.565-4.2 3.735-6.765 2.8-2.566-.935-5.136-6.53-5.6-11.665-.466-5.135-3.73-29.171-3.966-34.071-.235-4.9-2.57-8.86-5.834-11.43-3.266-2.57-11.666-7-14-9.335-2.336-2.336-3.737-5.366 0-7.466 3.734-2.1 6.534-4.435 4.9-6.535-1.636-2.1-7.696-11.436-14.466-11.436z"/></svg>