<svg class="svgOrigin" xmlns="http://www.w3.org/2000/svg" width="400" height="400"><circle fill="red" cx="200" cy="200" r="197"/><circle transform="rotate(-45 200 200)" fill="none" stroke="#FFF" stroke-width="5.629" cx="200" cy="200" r="188.557"/><path fill="#FFF" d="M329.413 200c0-71.473-57.945-129.413-129.413-129.413-71.473 0-129.419 57.94-129.419 129.413 0 71.479 57.946 129.413 129.419 129.413 71.468 0 129.413-57.934 129.413-129.413z"/><path fill="#0334A6" d="M310.296 267.708c12.12-19.7 19.123-42.885 19.123-67.708 0-24.828-7.003-48.013-19.123-67.713L278.685 200l31.61 67.708zM89.715 132.293c-12.12 19.7-19.123 42.884-19.123 67.707 0 24.828 7.003 48.014 19.123 67.713L121.326 200l-31.61-67.707zM212.62 284.82a2.819 2.819 0 01-2.814 2.813h-7.58a2.82 2.82 0 01-2.814-2.814v-4.276a2.82 2.82 0 012.815-2.814h7.579a2.82 2.82 0 012.814 2.814v4.276zM282.444 133.419v-23.174c.203-4.177-2.528-7.838-5.386-8.915-2.732-1.204-5.189-1.072-6.42-1.094-2.216.038-4.744.638-7.526 2.094-.197.105-.406.28-.615.407-.692-.621-1.43-1.122-2.193-1.407-2.744-1.204-5.2-1.072-6.431-1.094-2.16.038-4.623.62-7.322 2-1.259-1.632-3.22-3.028-5.865-3-6.337.324-8.24 5.287-8.47 5.551a4.215 4.215 0 002 5.629c2.111 1 4.623.104 5.624-2.001l.016-.022c.072-.116.154-.22.242-.313.258 1.044.401 2.836.384 4.309 0 .868-.016 1.627-.016 2.254-.01 2.6-.01 18.765-.01 18.776a4.232 4.232 0 004.227 4.227 4.232 4.232 0 004.226-4.227c-.01-.01 0-16.188-.01-18.776 0-.473.01-1.292.01-2.254 0-.291-.033-.665-.033-.978 0-.06.033-.116.033-.177-.033-.192.121-.687 1.506-1.494 1.204-.72 3.266-1.11 3.458-1.072 1.16-.022 2.495.11 2.951.352.335.368.22-.39.412 1.225v23.174a4.232 4.232 0 004.228 4.227 4.239 4.239 0 004.226-4.227h-.01v-22.185c-.04-.192.12-.687 1.505-1.494 1.205-.72 3.26-1.11 3.453-1.072 1.148-.022 2.495.11 2.95.352.342.368.21-.39.413 1.225v23.174a4.233 4.233 0 004.227 4.227 4.239 4.239 0 004.227-4.227h-.01z"/><path fill="none" stroke="#0334A6" stroke-width="19.7" stroke-linejoin="round" d="M144.445 167.933v-9.515c0-13.912 11.28-25.191 25.191-25.191 13.912 0 25.192 10.636 25.192 25.191s-54.308 106.35-54.308 106.35h59.942"/><path fill="none" stroke="#0334A6" stroke-width="16.886" stroke-linejoin="round" d="M221.305 202.287v-6.135c0-8.981 8.542-16.253 19.073-16.253 10.537 0 19.079 6.86 19.079 16.253 0 9.389-41.126 68.616-41.126 68.616h45.392"/></svg>