<svg class="svgOrigin" xmlns="http://www.w3.org/2000/svg" width="400" height="400"><circle fill="red" cx="200.417" cy="200.218" r="195"/><path fill="none" stroke="#FFF" stroke-width="11.143" d="M200.654 241.307h-39.928c-5.12 0-5.12-3.319-9.214-3.319-4.095 0-11.774-.685-11.774 1.877v16.802c0 3.873-5.574 8.89-11.518 8.89-7.533 0-12.03-5.849-12.03-8.89V237.21c0-5.12-10.237-5.12-10.237-11.263v-32.683c0-9.728 13.308-18.507 18.94-24.138 5.63-5.631 0-17.405 10.236-36.345 10.238-18.94 33.786-18.428 65.525-18.428 31.739 0 55.286-.512 65.527 18.428 10.234 18.94 4.602 30.714 10.234 36.345 5.63 5.631 18.94 14.41 18.94 24.138v32.683c0 6.143-10.24 6.143-10.24 11.263v19.457c0 3.041-4.495 8.89-12.024 8.89-5.947 0-11.525-5.017-11.525-8.89v-16.802c0-2.562-7.676-1.877-11.773-1.877-4.092 0-4.092 3.319-9.212 3.319h-39.927z"/><circle transform="rotate(-45 200.417 200.218)" fill="none" stroke="#FFF" stroke-width="5.571" cx="200.417" cy="200.218" r="186.643"/><path fill="#FFF" d="M72.323 200.218c0 70.747 57.35 128.093 128.094 128.093 30.354 0 58.223-10.577 80.17-28.221L100.55 120.042c-17.644 21.95-28.227 49.821-28.227 80.176zM328.51 200.218c0-70.745-57.346-128.094-128.093-128.094-30.352 0-58.223 10.58-80.17 28.222l180.042 180.043c17.645-21.949 28.222-49.817 28.222-80.171z"/><path fill="#0334A6" d="M200.654 241.307h-39.928c-5.12 0-5.12-3.319-9.214-3.319-4.095 0-11.774-.685-11.774 1.877v16.802c0 3.873-5.574 8.89-11.518 8.89-7.533 0-12.03-5.849-12.03-8.89V237.21c0-5.12-10.237-5.12-10.237-11.263v-32.683c0-9.728 13.308-18.507 18.94-24.138 5.63-5.631 0-17.405 10.236-36.345 10.238-18.94 33.786-18.428 65.525-18.428 31.739 0 55.286-.512 65.527 18.428 10.234 18.94 4.602 30.714 10.234 36.345 5.63 5.631 18.94 14.41 18.94 24.138v32.683c0 6.143-10.24 6.143-10.24 11.263v19.457c0 3.041-4.495 8.89-12.024 8.89-5.947 0-11.525-5.017-11.525-8.89v-16.802c0-2.562-7.676-1.877-11.773-1.877-4.092 0-4.092 3.319-9.212 3.319h-39.927z"/><path fill="#FFF" d="M221.272 126.837c10.424 0 22.318 1.686 30.142 7.603 5.778 4.367 7.89 9.86 7.89 12.958 0 3.099 1.403 10.422-3.95 10.422h-45.91c-3.102 0-3.945-5.914-3.945-14.647s1.41-16.336 15.773-16.336zM283.243 191.06c0 5.447-4.418 9.86-9.86 9.86-5.44 0-9.858-4.413-9.858-9.86 0-5.446 4.418-9.858 9.859-9.858s9.86 4.412 9.86 9.859zM241.48 174.006a1.39 1.39 0 011.022-1.69c5.474-1.346 14.429-1.792 14.473-1.803a1.401 1.401 0 011.464 1.325 1.406 1.406 0 01-1.323 1.461c-.01 0-8.95.479-13.95 1.722a1.395 1.395 0 01-1.687-1.015zM180.033 126.837c-10.425 0-22.313 1.686-30.14 7.603-5.775 4.367-7.886 9.86-7.886 12.958 0 3.099-1.407 10.422 3.944 10.422h45.916c3.099 0 3.942-5.914 3.942-14.647s-1.412-16.336-15.776-16.336zM118.064 191.06c0 5.447 4.416 9.86 9.86 9.86 5.443 0 9.858-4.413 9.858-9.86 0-5.446-4.415-9.858-9.859-9.858s-9.859 4.412-9.859 9.859zM270.849 222.612H130.456a5.07 5.07 0 000 10.137H270.85a5.068 5.068 0 100-10.137zM200.654 211.062c-21.685 0-21.745-2.536-21.745-4.789v-21.692c0-8.733 13.287-13.52 21.745-13.52 8.457 0 21.744 4.787 21.744 13.52v21.692c0 2.253-.06 4.789-21.744 4.789zM158.13 175.026c-4.997-1.243-13.933-1.732-13.947-1.732a1.399 1.399 0 01-1.322-1.461 1.407 1.407 0 011.471-1.325c.047.011 8.995.468 14.473 1.814.74.183 1.197.936 1.015 1.679a1.401 1.401 0 01-1.358 1.066c-.108 0-.22-.013-.331-.04z"/></svg>