<svg class="svgOrigin" xmlns="http://www.w3.org/2000/svg" width="400" height="400"><path fill="#0334A6" d="M396.642 368.378c0 14.758-12.076 26.833-26.833 26.833H30.19c-14.758 0-26.833-12.075-26.833-26.833V31.622c0-14.758 12.075-26.833 26.833-26.833H369.81c14.757 0 26.833 12.075 26.833 26.833v336.756z"/><path fill="none" stroke="#FFF" stroke-width="2.683" d="M369.809 389.834H30.19c-11.838 0-21.466-9.628-21.466-21.456V31.618c0-11.83 9.628-21.457 21.466-21.457H369.81c11.838 0 21.466 9.628 21.466 21.456v336.76c0 11.83-9.628 21.457-21.466 21.457h0z"/><g fill="#FFF"><path d="M174.351 87.615c3.087-5.068 1.494-11.666-3.558-14.758-5.068-3.097-11.667-1.504-14.753 3.564h-.016c-.021.042-11.394 18.647-28.2 44.123-16.808 25.465-39.009 57.701-60.286 84.472-3.69 4.632-2.92 11.393 1.73 15.072a10.691 10.691 0 006.676 2.338c3.16 0 6.289-1.389 8.406-4.052 9.748-12.269 19.601-25.533 29.035-38.75v129.18c0 5.933 4.8 10.74 10.733 10.74 5.922 0 10.728-4.807 10.728-10.74V148.688c22.782-33.709 39.432-60.967 39.505-61.072z"/><path d="M167.47 110.371c0 5.923 4.806 10.734 10.733 10.734h129.685c5.927 0 10.733-4.811 10.733-10.734a10.727 10.727 0 00-10.733-10.733h-55.73V84.8c0-5.927-4.812-10.728-10.74-10.728-5.927 0-10.728 4.8-10.728 10.728v14.837h-52.487a10.727 10.727 0 00-10.733 10.733zM199.586 132.634a10.745 10.745 0 00-7.584 3.145 10.763 10.763 0 00-3.144 7.583v41.371c0 2.872 1.116 5.56 3.144 7.59a10.633 10.633 0 007.584 3.138h84.603a10.68 10.68 0 007.583-3.139 10.655 10.655 0 003.13-7.589v-41.37c0-2.857-1.101-5.561-3.13-7.584-2.039-2.028-4.727-3.145-7.583-3.145h-84.603zm73.86 41.361h-63.133v-19.894h63.132v19.894zM324.658 213.553c0-2.824-1.147-5.597-3.138-7.594a10.816 10.816 0 00-7.594-3.14H162.863a10.772 10.772 0 00-7.583 3.14 10.788 10.788 0 00-3.15 7.594v46.481c0 5.922 4.806 10.734 10.733 10.734 5.927 0 10.734-4.812 10.734-10.734v-35.759h129.59v35.76c0 5.921 4.811 10.733 10.739 10.733 5.922 0 10.743-4.812 10.743-10.734l-.01-46.481z"/><path d="M290.688 235.821H239.61c-.015 0-.037-.005-.052-.005-.016 0-.037.005-.052.005h-50.611c-5.933 0-10.729 4.801-10.729 10.734 0 5.922 4.796 10.727 10.729 10.727h39.924v13.495c0 10.503 0 21.388.005 25.723-.025.005-.057.016-.083.02-3.354.99-11.776 1.63-24.507 1.578-5.937 0-10.743 4.8-10.743 10.739 0 5.927 4.806 10.738 10.743 10.738 13.553-.068 22.714-.325 30.523-2.453 3.868-1.11 7.861-2.888 11.074-6.498 3.255-3.622 4.544-8.58 4.465-12.474-.005-2.914-.01-26.623-.005-40.868h40.396c5.933 0 10.739-4.805 10.739-10.727 0-5.933-4.806-10.734-10.738-10.734z"/></g></svg>