<svg class="svgOrigin" xmlns="http://www.w3.org/2000/svg" width="400" height="400"><circle fill="red" cx="200" cy="200" r="196.886"/><path fill="none" stroke="#FFF" stroke-width="10.859" d="M168.333 213.585s-2.41-3.817-3.292-3.817-3.29 3.817-3.29 3.817-28.71 45.304-30.712 48.867c-2.418 4.306 2.267 12.318 8.614 7.87 3.073-2.159 9.112-7.016 14.531-11.465v40.792h21.711v-40.797c5.422 4.449 11.461 9.311 14.534 11.47 6.35 4.448 11.032-3.564 8.614-7.87-2.002-3.563-30.71-48.867-30.71-48.867zM271.87 201.193c-9.423-9.194-20.177-15.208-29.27-21.284-5.832-3.775-9.783-10.721-11.995-18.007-2.226-7.106-2.57-14.2-2.539-15.107v-6.75c6.692 5.594 14.12 11.682 17.911 14.386 7.87 5.615 13.681-4.497 10.685-9.937-2.481-4.497-38.088-61.705-38.088-61.705s-2.985-4.825-4.083-4.825c-1.092 0-4.077 4.825-4.077 4.825s-35.603 57.208-38.085 61.705c-2.998 5.44 2.808 15.552 10.682 9.937 3.788-2.704 11.218-8.792 17.909-14.386v6.75c.024 3.41.434 12.212 3.73 23.082 3.32 10.679 9.677 23.797 22.98 32.668 10.044 6.59 19.345 12.148 25.187 17.991 5.818 6.024 8.644 10.812 8.84 20.389-.185 14.358-1.643 18.882-6.087 25.011-4.645 6.304-15.277 14.645-33.56 28.332l16.342 21.681c18.125-13.787 30.018-22.255 38.798-33.555 8.978-11.453 11.836-25.287 11.656-41.47.19-16.978-7.466-30.696-16.937-39.73z"/><path fill="none" stroke="#FFF" stroke-width="5.625" d="M388.455 200c0 104.077-84.373 188.444-188.455 188.444S11.55 304.077 11.55 200C11.55 95.918 95.918 11.545 200 11.545S388.455 95.918 388.455 200z"/><path fill="#FFF" d="M70.668 200c0 71.424 57.905 129.327 129.332 129.327 30.648 0 58.788-10.68 80.947-28.49L99.17 119.042C81.355 141.202 70.668 169.347 70.668 200zM329.332 200c0-71.435-57.902-129.343-129.332-129.343-30.646 0-58.786 10.684-80.945 28.5l181.782 181.785c17.816-22.159 28.495-50.3 28.495-80.942z"/><path fill="#0334A6" d="M168.333 213.585s-2.41-3.817-3.292-3.817-3.29 3.817-3.29 3.817-28.71 45.304-30.712 48.867c-2.418 4.306 2.267 12.318 8.614 7.87 3.073-2.159 9.112-7.016 14.531-11.465v40.792h21.711v-40.797c5.422 4.449 11.461 9.311 14.534 11.47 6.35 4.448 11.032-3.564 8.614-7.87-2.002-3.563-30.71-48.867-30.71-48.867zM271.87 201.193c-9.423-9.194-20.177-15.208-29.27-21.284-5.832-3.775-9.783-10.721-11.995-18.007-2.226-7.106-2.57-14.2-2.539-15.107v-6.75c6.692 5.594 14.12 11.682 17.911 14.386 7.87 5.615 13.681-4.497 10.685-9.937-2.481-4.497-38.088-61.705-38.088-61.705s-2.985-4.825-4.083-4.825c-1.092 0-4.077 4.825-4.077 4.825s-35.603 57.208-38.085 61.705c-2.998 5.44 2.808 15.552 10.682 9.937 3.788-2.704 11.218-8.792 17.909-14.386v6.75c.024 3.41.434 12.212 3.73 23.082 3.32 10.679 9.677 23.797 22.98 32.668 10.044 6.59 19.345 12.148 25.187 17.991 5.818 6.024 8.644 10.812 8.84 20.389-.185 14.358-1.643 18.882-6.087 25.011-4.645 6.304-15.277 14.645-33.56 28.332l16.342 21.681c18.125-13.787 30.018-22.255 38.798-33.555 8.978-11.453 11.836-25.287 11.656-41.47.19-16.978-7.466-30.696-16.937-39.73z"/></svg>