<svg class="svgOrigin" xmlns="http://www.w3.org/2000/svg" width="400" height="400"><path fill="#0334A6" d="M3 287.896c0 15.269 12.491 27.756 27.756 27.756h338.488c15.26 0 27.756-12.487 27.756-27.756V112.104c0-15.265-12.496-27.756-27.756-27.756H30.756C15.491 84.348 3 96.838 3 112.104v175.792z"/><path fill="none" stroke="#FFF" stroke-width="4.626" d="M19.2 287.128c0 7.626 6.243 13.878 13.878 13.878h333.844c7.635 0 13.878-6.252 13.878-13.878v-174.25c0-7.632-6.243-13.877-13.878-13.877H33.078c-7.635 0-13.878 6.245-13.878 13.877v174.25z"/><path fill="#FFF" d="M349.732 177.314H178.668c-5.62 0-9.099-2.8-6.772-7.177 0-.002 12.464-23.462 16.2-30.595 8.773-16.745-7.44-23.388-22.06-14.086C151.418 134.757 40.719 200 40.719 200s110.7 65.243 125.319 74.541c14.619 9.306 30.832 2.665 22.06-14.086-3.737-7.129-16.197-30.594-16.201-30.594-2.327-4.381 1.152-7.173 6.772-7.173h171.064c2.543 0 4.626-2.087 4.626-4.626v-36.124a4.641 4.641 0 00-4.626-4.625z"/></svg>