<svg class="svgOrigin" xmlns="http://www.w3.org/2000/svg" width="400" height="400"><circle fill="#0334A6" cx="200.001" cy="200" r="198.125"/><path fill="none" stroke="#FFF" stroke-width="5.661" d="M389.63 200c0 104.73-84.896 189.634-189.629 189.634C95.27 389.634 10.367 304.73 10.367 200 10.367 95.266 95.27 10.366 200 10.366c104.733 0 189.63 84.9 189.63 189.634z"/><path fill="#FFF" d="M301.094 140.275c-3.117-5.667-47.916-77.646-47.916-77.646s-3.76-6.07-5.135-6.07c-1.378 0-5.137 6.07-5.137 6.07s-44.796 71.98-47.92 77.646c-3.771 6.844 3.537 19.57 13.444 12.499 3.177-2.272 8.408-6.445 14.033-11.057 5.12-4.168 8.598-.032 8.598 5.142v110.294c-.769-.67-1.541-1.347-2.317-1.999-9.186-7.53-18.924-13.755-28.264-18.342-9.487-4.489-17.947-7.712-27.834-7.905h-32.058c-4.223 0-4.984-5.246-2.189-9.167 3.608-5.045 6.993-9.783 9.207-12.885 7.071-9.906-1.318-15.987-8.162-12.211-5.666 3.123-81.984 43.579-81.984 43.579s-6.07 3.757-6.07 5.133 6.07 5.135 6.07 5.135 76.318 47.256 81.984 50.38c6.844 3.773 15.233-2.306 8.162-12.213-2.233-3.13-5.663-8.607-9.303-14.629-2.786-3.924-2.026-9.158 2.194-9.158h32.149c.29-.192 6.363 1.093 12.902 4.451 10.102 4.886 22.611 13.685 31.632 23.355 9.277 9.68 14.135 19.988 13.87 26.093v34.593h33.975V316.77c0-.017-.005-.028-.005-.045V146.859c0-5.174 3.477-9.31 8.601-5.142 5.628 4.612 10.856 8.785 14.036 11.057 9.907 7.07 17.214-5.655 13.437-12.499z"/></svg>