<svg class="svgOrigin" xmlns="http://www.w3.org/2000/svg" width="400" height="400"><path fill="#0334A6" d="M396.642 368.378c0 14.758-12.076 26.833-26.833 26.833H30.19c-14.758 0-26.833-12.075-26.833-26.833V31.622c0-14.758 12.075-26.833 26.833-26.833H369.81c14.757 0 26.833 12.075 26.833 26.833v336.756z"/><path fill="none" stroke="#FFF" stroke-width="2.683" d="M369.809 389.834H30.19c-11.838 0-21.466-9.628-21.466-21.456V31.622c0-11.833 9.628-21.455 21.466-21.455H369.81c11.838 0 21.466 9.622 21.466 21.455v336.756c0 11.828-9.628 21.456-21.466 21.456h0z"/><path fill="#FFF" d="M43.876 68.9h312.259v74.776H43.876z"/><g fill="#FFF"><path d="M63.23 222.677a5.35 5.35 0 00-5.938 4.717h-.01c0 .015-.771 6.734-2.752 15.308-1.945 8.559-5.23 18.889-9.517 25.194a5.37 5.37 0 001.467 7.452 5.355 5.355 0 002.982.912 5.412 5.412 0 003.417-1.242v47.272a5.368 5.368 0 005.367 5.372c2.96 0 5.36-2.411 5.36-5.372v-71.627c3.177-11.692 4.246-21.833 4.34-22.058a5.353 5.353 0 00-4.716-5.928zM136.628 228.626H111.44v-3.392a5.362 5.362 0 00-5.361-5.361 5.356 5.356 0 00-5.367 5.361v3.392H75.53a5.37 5.37 0 00-5.366 5.371 5.37 5.37 0 005.366 5.367h61.098a5.37 5.37 0 000-10.738zM129.248 268.645c1.426 0 2.789-.561 3.79-1.584a5.313 5.313 0 001.572-3.783V248.52a5.384 5.384 0 00-5.362-5.377H82.904c-1.41 0-2.794.582-3.795 1.583a5.362 5.362 0 00-1.572 3.794v14.758a5.38 5.38 0 001.572 3.794 5.45 5.45 0 003.795 1.573h46.344zM88.271 253.88h35.61v4.025h-35.61v-4.025zM139.96 274.467a5.394 5.394 0 00-3.799-1.572H73.916c-1.41 0-2.793.566-3.8 1.572a5.369 5.369 0 00-1.562 3.784v21.445c0 2.961 2.406 5.372 5.362 5.372 2.961 0 5.377-2.41 5.377-5.372h-.016v-16.068H130.8v15.382a5.365 5.365 0 005.361 5.361c2.962 0 5.378-2.4 5.378-5.361l-.017-20.759c0-1.41-.555-2.783-1.561-3.784z"/><path d="M121.403 289.268h-10.57c-.011 0-.017-.006-.027-.006-.01 0-.016.006-.026.006H88.438c-2.96 0-5.361 2.4-5.361 5.36s2.4 5.373 5.361 5.373h16.991c0 5.304.005 12.981.01 15.617-.078.44.074.162-.288.509-.388.304-1.609.807-3.569.796-4.313.032-9.213-1.666-11.88-4.418-2.102-2.102-5.504-2.102-7.59 0a5.368 5.368 0 000 7.6c5.399 5.303 12.71 7.51 19.47 7.546 3.559-.015 6.95-.77 9.795-2.777 2.867-1.944 4.864-5.571 4.79-9.256v-15.617h5.236c2.971 0 5.372-2.411 5.372-5.372s-2.4-5.361-5.372-5.361zM247.523 316.923h-35.212v-58.655h27.829c2.96 0 5.372-2.4 5.372-5.357a5.373 5.373 0 00-5.372-5.371h-27.83v-23.92a5.366 5.366 0 00-5.366-5.361c-2.96 0-5.361 2.4-5.361 5.361v93.303h-22.237v-71.626a5.374 5.374 0 00-5.362-5.372 5.367 5.367 0 00-5.377 5.372v71.626h-6.388a5.37 5.37 0 00-5.367 5.367 5.375 5.375 0 005.367 5.372h85.304c2.962 0 5.363-2.411 5.363-5.372 0-2.96-2.4-5.367-5.363-5.367zM272.161 281.375c-2.96-.084-5.434 2.248-5.503 5.209h-.015c0 .01-.163 6.053-.603 12.813-.362 6.588-1.342 14.586-1.95 15.807-1.074 2.768.314 5.864 3.077 6.94a5.392 5.392 0 006.95-3.077c1.623-4.607 2.1-11.802 2.635-18.972a377.68 377.68 0 00.618-13.217c.084-2.962-2.264-5.436-5.209-5.503z"/><path d="M314.942 273.985c-2.458-.01-10.503-.01-10.513-.01-.194 0-.362.089-.55.11-.058-.535-.121-1.07-.346-1.588l-2.316-5.278a.169.169 0 01-.022-.047l-2.19-4.985c-1.19-2.724-4.345-3.946-7.075-2.755-1.866.817-2.956 2.583-3.109 4.485h-6.933c1.886-2.426 3.307-4.323 3.36-4.38v-.006l12.054-15.848c1.781-2.365 1.325-5.729-1.038-7.511-2.364-1.792-5.729-1.34-7.51 1.022l-7.553 9.921-2.552-3.762c1.787-1.993 3.291-4.267 4.984-6.541 2.69-3.89 4.796-7.426 4.833-7.484 1.513-2.553.686-5.85-1.866-7.363-2.536-1.526-5.833-.687-7.343 1.865v-.01c-.016.01-2.007 3.338-4.45 6.881-1.22 1.766-2.562 3.584-3.726 4.947-.571.687-1.105 1.258-1.504 1.62a4.835 4.835 0 01-.45.382l.01.016a5.337 5.337 0 00-2.772 3.417 5.32 5.32 0 00.76 4.38l7.216 10.661c-2.447 3.166-6.152 7.861-7.694 9.365a5.34 5.34 0 00-1.152 5.849 5.348 5.348 0 004.947 3.318h8.726v47.634c0 2.961 2.4 5.372 5.361 5.372s5.367-2.411 5.367-5.372v-47.634h2.862l.943 2.154a5.371 5.371 0 004.921 3.212c.184 0 .367-.094.55-.115.294 2.689 2.48 4.817 5.257 4.817v-.011h7.5c-.147 2.835-2.008 9.276-8.313 19.727.729-1.52.823-3.318-.057-4.895-.796-.77-1.53-9.292-1.363-11.378 0-.42.011-.571.011-.571.104-2.961-2.207-5.456-5.162-5.56-2.961-.106-5.456 2.205-5.56 5.161 0 .063-.011.399-.011.97.172 2.935-.284 10.607 2.699 16.608a5.375 5.375 0 004.695 2.751c.886 0 1.782-.22 2.615-.675.54-.305.965-.724 1.358-1.165a162.844 162.844 0 01-6.142 9.235c-1.724 2.411-1.153 5.76 1.268 7.484a5.31 5.31 0 003.108.996 5.385 5.385 0 004.381-2.254c13.218-18.747 17.09-29.569 17.206-37.005-.048-4.523-1.656-9.576-7.72-10.157z"/><path d="M360.333 315.807c-6.132-6.106-12.986-15.146-17.216-20.99 8.4-4.24 13.883-11.713 14.291-11.854 1.887-2.285 1.572-5.666-.712-7.547a5.353 5.353 0 00-7.552.702s-2.112 2.542-5.273 5.236c-2.457 2.165-5.56 4.119-8.023 4.957v-15.68h16.666c1.43 0 2.783-.566 3.8-1.583a5.343 5.343 0 001.556-3.783v-16.048c0-.02.01-.037.01-.053s-.01-.031-.01-.052v-16.048c0-1.42-.571-2.793-1.557-3.793a5.401 5.401 0 00-3.8-1.573h-19.286c1.095-2.165 1.783-3.815 1.85-3.92a5.377 5.377 0 00-2.804-7.05c-2.72-1.173-5.885.08-7.053 2.804 0 0-1.149 2.653-2.58 5.204-.655 1.18-1.367 2.285-1.896 2.962H308.46a5.36 5.36 0 00-3.794 1.573 5.36 5.36 0 00-1.572 3.793v32.2c0 1.41.565 2.794 1.572 3.795a5.43 5.43 0 003.794 1.572h16.65c0 11.158 0 36.576.005 43.986-.555.142-1.273.262-1.839.246a5.53 5.53 0 01-.692-.047c-2.106-1.545-5.078-1.368-6.965.535a5.374 5.374 0 000 7.604c2.81 2.495 5.267 2.516 7.657 2.63 2.39-.009 4.76-.418 7.091-1.477 2.096-.959 5.314-3.124 5.482-7.651v-13.364c4.397 5.98 10.754 14.15 16.885 20.303a5.368 5.368 0 003.795 1.567 5.399 5.399 0 003.805-1.567 5.384 5.384 0 000-7.59zm-46.518-77.376h33.322v5.367h-33.322v-5.367zm0 21.45v-5.35h33.327v5.35h-33.327z"/></g></svg>