<svg class="svgOrigin" xmlns="http://www.w3.org/2000/svg" width="400" height="400"><path fill="#0334A6" d="M396.642 368.377c0 14.758-12.076 26.833-26.833 26.833H30.19c-14.758 0-26.833-12.075-26.833-26.833V31.624c0-14.758 12.075-26.833 26.833-26.833H369.81c14.757 0 26.833 12.075 26.833 26.833v336.753z"/><path fill="none" stroke="#FFF" stroke-width="2.683" d="M369.809 389.833H30.19c-11.838 0-21.466-9.622-21.466-21.456V31.619c0-11.829 9.628-21.456 21.466-21.456H369.81c11.838 0 21.466 9.627 21.466 21.456v336.758c0 11.834-9.628 21.456-21.466 21.456h0z"/><path fill="#FFF" d="M286.128 83.873c-16.892-16.826-36.455-27.538-58.01-28.01-24.722-.01-97.465-.01-97.56-.01H107.74v291.434h45.627v-90.792h74.75c22.253-.43 42.189-11.74 58.802-28.992 16.362-17.368 28.82-42.39 28.83-71.988-.01-29.857-13.06-54.725-29.621-71.642zm-32.456 112.4c-9.282 10.319-21.75 15.046-25.555 14.606h-74.75V101.477h74.75c3.165-.475 16.016 4.176 25.35 14.247 9.664 9.978 16.66 23.526 16.66 39.79.01 16.512-6.917 30.565-16.455 40.759z"/></svg>