<svg class="svgOrigin" xmlns="http://www.w3.org/2000/svg" width="400" height="400"><circle fill="red" cx="200.046" cy="200.435" r="195.492"/><path fill="none" stroke="#FFF" stroke-width="5.585" d="M200.82 172.158c-8.209 0-31.47-.53-35.918-.53s-6.68 3.606-6.68 7.37c0 3.764-8.895 3.076-8.895 0v-10.266c0-2.394-7.184-2.732-7.184-5.814v-22.92c0-6.846 3.254-8.035 8.896-13.68 5.643-5.646 7.866-9.579 7.866-19.157s7.183-14.71 13-14.71h57.83c5.82 0 13.004 5.132 13.004 14.71 0 9.578 2.226 13.511 7.865 19.157 5.64 5.645 8.897 6.834 8.897 13.68v22.92c0 3.082-7.184 3.42-7.184 5.814v10.266c0 3.076-8.896 3.764-8.896 0s-2.232-7.37-6.682-7.37c-4.446 0-27.71.53-35.919.53z"/><circle transform="rotate(-45 200.046 200.434)" fill="none" stroke="#FFF" stroke-width="5.585" cx="200.046" cy="200.435" r="187.114"/><path fill="#FFF" d="M71.629 200.435c0 70.92 57.494 128.412 128.417 128.412 30.43 0 58.369-10.605 80.373-28.288L99.927 120.056c-17.69 22.004-28.298 49.942-28.298 80.379zM328.463 200.435c0-70.926-57.491-128.423-128.417-128.423-30.428 0-58.37 10.61-80.373 28.298L300.17 280.803c17.69-22.004 28.293-49.943 28.293-80.368z"/><path fill="#0334A6" d="M200.82 172.158c-8.209 0-31.47-.53-35.918-.53s-6.68 3.606-6.68 7.37c0 3.764-8.895 3.076-8.895 0v-10.266c0-2.394-7.184-2.732-7.184-5.814v-22.92c0-6.846 3.254-8.035 8.896-13.68 5.643-5.646 7.866-9.579 7.866-19.157s7.183-14.71 13-14.71h57.83c5.82 0 13.004 5.132 13.004 14.71 0 9.578 2.226 13.511 7.865 19.157 5.64 5.645 8.897 6.834 8.897 13.68v22.92c0 3.082-7.184 3.42-7.184 5.814v10.266c0 3.076-8.896 3.764-8.896 0s-2.232-7.37-6.682-7.37c-4.446 0-27.71.53-35.919.53z"/><path fill="#FFF" d="M236.526 107.99c1.751 3.879-.05 8.657-.05 8.657-.217.578-.894 1.047-1.51 1.047h-25.309a1.119 1.119 0 01-1.118-1.118v-13.331c0-.617.501-1.118 1.118-1.118h20.291c.616 0 1.56.24 2.1.529 0 0 2.727 1.456 4.478 5.334zM251.87 142.556a6.325 6.325 0 01-6.327 6.327 6.329 6.329 0 01-6.328-6.327 6.33 6.33 0 016.328-6.327 6.325 6.325 0 016.327 6.327zM167.46 107.99c-1.75 3.879.05 8.657.05 8.657.215.578.894 1.047 1.51 1.047h25.31a1.12 1.12 0 001.118-1.118v-13.331a1.12 1.12 0 00-1.118-1.118h-20.291c-.617 0-1.56.24-2.103.529 0 0-2.725 1.456-4.476 5.334zM200.82 129.236c-9.845 0-16.595 9.283-16.595 15.474 0 6.191.651 9.802 16.595 9.802 15.945 0 16.599-3.61 16.599-9.802 0-6.19-6.753-15.474-16.599-15.474zM149.771 142.556a6.327 6.327 0 006.327 6.327 6.327 6.327 0 100-12.654 6.327 6.327 0 00-6.327 6.327z"/><path fill="#0334A6" d="M263.27 275.113c1.68-5.05-14.727-17.04-17.252-18.092-2.527-1.053-6.105-4.207-6.105-6.732 0-2.525-2.105-6.103-5.678-11.781-3.573-5.679-10.522-6.312-13.467-6.312s-5.258 5.466-8.623 5.466c-3.367 0-6.312-2.52-7.365-3.152-1.053-.633-5.47-3.366-5.47-5.892 0-2.525-.843-8.209-2.736-10.308-1.893-2.101-1.893-4-.84-4.211 1.053-.213 5.468-1.894 5.468-7.785 0-5.89-2.522-9.256-7.154-9.256-4.63 0-8.203 5.051-8.203 7.364s.84 5.89.84 8.624c0 2.732-4.838 3.37-4.628 6.736.21 3.366-4.839 14.515-6.731 17.673-1.893 3.158-1.896 8.836-.423 10.309 1.473 1.472 3.788 3.578 3.788 5.47 0 1.894.63 5.046-1.683 5.046-2.312 0-4.84-1.472-6.1-1.472h-14.94c-2.103 0-1.896 4.21 0 4.21 1.895 0 3.58 2.106 3.367 3.579-.12.835-.643 2.335-1.077 3.485-7.603 2.057-13.221 8.94-13.221 17.198 0 9.867 7.993 17.87 17.869 17.87 7.175 0 13.312-4.25 16.156-10.342 6.423.082 23.28.339 28.876-.022 6.524-.42 8.625-12.835 9.884-14.307 1.266-1.473 5.477-1.473 6.732-1.473.228 0 .643-.163 1.036-.31-1.407 2.557-2.28 5.453-2.28 8.584 0 9.867 7.99 17.87 17.869 17.87 9.873 0 17.869-8.003 17.869-17.87 0-3.43-1.015-6.61-2.689-9.333 3.256.333 6.61.072 6.91-.834zm-100.364 23.848c-7.56-.01-13.67-6.13-13.68-13.68.01-7.56 6.12-13.68 13.68-13.691 5.986.01 11.007 3.867 12.875 9.218-.125.965-.245 1.669-.245 1.669h-14.307c-2.736 0-2.316 5.471 0 5.471h15.095c-1.255 6.273-6.772 11.002-13.418 11.013zm78.273 0c-7.56-.01-13.67-6.13-13.69-13.68.01-3.988 1.744-7.539 4.461-10.043.556.89 1.113 1.779 1.69 2.706a239.587 239.587 0 005.837 8.553 2.108 2.108 0 001.702.873c.425 0 .851-.126 1.221-.393a2.105 2.105 0 00.48-2.923c-.01-.006-1.603-2.221-3.6-5.172-.032-3.632 2.81-6.093 4.004-6.294.753-.126 2.378.093 4.211.622 4.359 2.29 7.353 6.807 7.364 12.07-.011 7.55-6.12 13.67-13.68 13.68z"/><path fill="#FFF" d="M212.188 247.736c0-2.59-4.075-6.294-7.222-6.294-3.15 0-7.593 2.41-7.593 4.631 0 2.22 4.63 7.587 7.593 7.587s7.221-2.59 7.221-5.924zM231.464 253.736c-1.483 0-6.3-4.074-8.7-4.074-2.41 0-4.08-2.22-4.08-4.074 0-1.85.37-6.11 5.744-6.11 5.367 0 9.998 5.924 9.998 8.515 0 2.597-.741 5.743-2.962 5.743zM221.936 270.4c0 2.04-1.114 4.817-5.745 4.817-4.63 0-4.26 10.926-8.143 10.926-3.89 0-6.112.55-6.112-3.154 0-3.698 4.999-4.804 4.999-7.958 0-3.147 2.967-7.401 4.811-7.401 1.855 0 4.08-1.855 6.665-1.855 2.597 0 3.525 1.849 3.525 4.625zM191.602 286.497c-2.593 0-4.074-2.22-4.074-4.44 0-2.226 2.964-7.598 5.184-7.598s4.075 2.04 4.075 6.3-2.22 5.738-5.185 5.738zM186.655 161.178c0 1.15 2.514 2.09 5.585 2.09h17.16c3.077 0 5.586-.94 5.586-2.09 0-1.146-2.51-2.084-5.586-2.084h-17.16c-3.07 0-5.585.938-5.585 2.084z"/></svg>