<svg class="svgOrigin" xmlns="http://www.w3.org/2000/svg" width="400" height="400"><circle transform="rotate(-45 200 200)" fill="red" cx="200.001" cy="200" r="196.132"/><path fill="none" stroke="#FFF" stroke-width="11.208" d="M286.475 183.419c-4.663 3.343-13.922 10.934-22.142 17.807h-1.926v-45.274c-.176-13.183-6.02-26.683-16.767-38.203-10.716-11.399-27.33-20.204-47.767-20.15-32.81-.486-53.854 18.054-62.613 36.606-9.202 18.464-9.667 36.528-9.75 42.696.009.744.023 1.324.036 1.724V279.87h28.022V177.952l-.022-.29s-.013-.072-.013-.761c-.069-3.803.722-18.388 6.733-30.071 6.463-11.613 14.592-20.73 37.607-21.206 12.502.055 21.147 4.915 27.452 11.426 6.294 6.403 9.238 15.082 9.063 18.902v45.28h-1.915c-8.22-6.874-17.48-14.47-22.154-17.813-9.518-6.792-16.55 5.439-12.923 12.017 3.005 5.445 46.065 74.638 46.065 74.638s3.612 5.84 4.936 5.84c1.325 0 4.936-5.84 4.936-5.84s43.068-69.193 46.067-74.638c3.634-6.578-3.404-18.809-12.925-12.017z"/><ellipse transform="rotate(-89.93 200 200)" fill="none" stroke="#FFF" stroke-width="5.604" cx="200.001" cy="200" rx="187.727" ry="187.726"/><path fill="#FFF" d="M71.164 200c0 71.152 57.682 128.832 128.838 128.832 30.533 0 58.562-10.639 80.639-28.38L99.555 119.358c-17.747 22.076-28.39 50.106-28.39 80.642zM328.842 200c0-71.158-57.68-128.843-128.84-128.843-30.528 0-58.561 10.644-80.637 28.39l181.086 181.084c17.752-22.075 28.39-50.106 28.39-80.631z"/><path fill="#0334A6" d="M286.475 183.419c-4.663 3.343-13.922 10.934-22.142 17.807h-1.926v-45.274c-.176-13.183-6.02-26.683-16.767-38.203-10.716-11.399-27.33-20.204-47.767-20.15-32.81-.486-53.854 18.054-62.613 36.606-9.202 18.464-9.667 36.528-9.75 42.696.009.744.023 1.324.036 1.724V279.87h28.022V177.952l-.022-.29s-.013-.072-.013-.761c-.069-3.803.722-18.388 6.733-30.071 6.463-11.613 14.592-20.73 37.607-21.206 12.502.055 21.147 4.915 27.452 11.426 6.294 6.403 9.238 15.082 9.063 18.902v45.28h-1.915c-8.22-6.874-17.48-14.47-22.154-17.813-9.518-6.792-16.55 5.439-12.923 12.017 3.005 5.445 46.065 74.638 46.065 74.638s3.612 5.84 4.936 5.84c1.325 0 4.936-5.84 4.936-5.84s43.068-69.193 46.067-74.638c3.634-6.578-3.404-18.809-12.925-12.017z"/></svg>