<svg class="svgOrigin" xmlns="http://www.w3.org/2000/svg" width="400" height="400"><path fill="#0334A6" d="M397.21 369.652c0 11.857-9.693 21.55-21.549 21.55H25.504c-11.852 0-21.548-9.693-21.548-21.55V30.347c0-11.856 9.696-21.55 21.548-21.55H375.66c11.856 0 21.55 9.694 21.55 21.55v339.305z"/><path fill="none" stroke="#FFF" stroke-width="4.613" d="M391.395 364.635c0 11.495-9.4 20.901-20.896 20.901H30.669c-11.494 0-20.898-9.406-20.898-20.901V35.365c0-11.496 9.404-20.897 20.898-20.897h339.83c11.495 0 20.896 9.401 20.896 20.897v329.27z"/><path fill="#FFF" d="M361.643 35.365h18.451V80.92h-18.451zM361.643 119.801h18.451v45.555h-18.451zM361.643 204.233h18.451v45.552h-18.451zM22.609 35.365H41.06V80.92H22.609zM22.609 119.801H41.06v45.555H22.609zM22.609 204.233H41.06v45.552H22.609zM274.037 145.714c-6.945-11.577-33.45-55.818-52.163-87.058-11.04-18.433-15.388-26.937-19.37-26.937-3.98 0-8.43 8.673-19.574 27.268-18.7 31.223-45.039 75.193-51.958 86.727-11.045 18.406 2.104 28.922 21.563 14.723 7.163-5.227 15.82-11.304 23.904-16.906v94.218h52.147v-94.208c8.077 5.6 16.73 11.678 23.888 16.896 19.46 14.199 32.609 3.683 21.563-14.723z"/><circle fill="#FFF" cx="343.422" cy="347.228" r="18.108"/><circle fill="#FFF" cx="304.245" cy="347.228" r="18.108"/><path fill="#FFF" d="M196.754 329.022h-82.72c-4.126 0-4.81-3.812-4.81-6.668v-36.937c0-4.288-1.428-5.117-3.455-5.117H74.437c-2.275 0-27.178 31.334-27.178 32.946v9.784c0 4.621 1.966 1.235 1.966 5.55 0 4.306.313 6.469-1.55 6.469-3.856 0-4.153 12.18 0 12.18H64.55c0-12.082 9.832-21.92 21.92-21.92 12.09 0 21.922 9.838 21.922 21.92h78.629c0-7.577 3.872-14.271 9.734-18.207z"/><path fill="#FFF" d="M358.57 254.209H164.623a3.822 3.822 0 00-3.813 3.81v65.76c0 2.098 1.716 3.819 3.813 3.819h53.873c7.288 3.558 12.365 10.982 12.365 19.63h8.235c1.752 0 2.626-.693 2.626-2.27v-12.26c0-3.676 4.03-5.1 6.306-5.1H358.57a3.827 3.827 0 003.816-3.82V258.02a3.82 3.82 0 00-3.816-3.811z"/><path fill="#FFF" d="M208.938 329.12c-9.997 0-18.107 8.108-18.107 18.108s8.11 18.109 18.107 18.109c10 0 18.108-8.109 18.108-18.109s-8.108-18.108-18.108-18.108z"/><circle transform="rotate(-67.5 86.469 347.228)" fill="#FFF" cx="86.469" cy="347.228" r="18.108"/><path fill="#0334A6" d="M63.939 298.517c-1.304 1.64-2.37 4.702-2.37 6.801v.829c0 2.1 1.717 3.811 3.814 3.811h17.514a3.821 3.821 0 003.81-3.811v-14.649a3.82 3.82 0 00-3.81-3.81h-6.555c-2.094 0-4.876 1.341-6.18 2.98l-6.223 7.849z"/></svg>