<svg class="svgOrigin" xmlns="http://www.w3.org/2000/svg" width="400" height="400"><path fill="red" d="M397.001 200c0 108.8-88.198 196.998-197.003 196.998C91.198 396.998 3 308.8 3 200S91.198 3.002 199.998 3.002C308.803 3.002 397 91.201 397 200z"/><path fill="none" stroke="#FFF" stroke-width="5.629" d="M162.198 202.138c-3.09-6.992-25.296-46.43-34.673-60.963-2.094-3.254-4.249-6.25-7.134-6.25-2.886 0-5.046 2.996-7.135 6.25-9.383 14.534-31.589 53.971-34.672 60.963-3.782 8.542 2.951 14.292 14.456 6.728 5.282-3.468 11.46-7.722 16.616-11.323v85.862h22.992V198.61c4.82 3.353 10.323 7.13 15.088 10.257 11.505 7.564 18.238 1.814 14.462-6.728zM220.912 168.13c6.986-3.088 46.424-25.295 60.957-34.677 3.254-2.089 6.256-4.249 6.256-7.135 0-2.885-3.002-5.04-6.256-7.134-14.533-9.377-53.97-31.584-60.957-34.673-8.542-3.776-14.297 2.957-6.733 14.462 3.468 5.277 7.722 11.46 11.323 16.616H139.64v22.987h84.801c-3.358 4.825-7.134 10.322-10.262 15.093-7.564 11.505-1.809 18.238 6.733 14.462z"/><g fill="none" stroke="#FFF" stroke-width="5.629"><path d="M200.597 263.86a3.83 3.83 0 002.693-1.133 3.805 3.805 0 001.133-2.71V237.02a3.845 3.845 0 00-1.116-2.705 3.88 3.88 0 00-2.71-1.132h-12.824v-4.634h20.486a3.83 3.83 0 003.83-3.831 3.827 3.827 0 00-3.83-3.831v-.011h-55.444a3.884 3.884 0 00-2.72 1.132 3.877 3.877 0 00-1.122 2.71V270.317c.06 1.892-1.226 5.437-2.7 8.185-1.444 2.781-2.879 4.805-2.879 4.815a3.834 3.834 0 00.94 5.337c.67.473 1.44.699 2.198.699 1.21 0 2.397-.567 3.139-1.627.06-.358 6.711-8.927 6.975-17.409V228.55h23.46v4.634h-13.863a3.851 3.851 0 00-2.71 1.132 3.816 3.816 0 00-1.132 2.705v22.998c0 1.01.412 2 1.132 2.725a3.907 3.907 0 002.71 1.116h14.352l-.011 16.029c-1.677.412-5.777.698-7.745.588a3.83 3.83 0 00-3.831 3.847 3.829 3.829 0 003.83 3.825c1.722-.01 4.756 0 7.663-.445 1.468-.236 2.914-.565 4.397-1.335 1.397-.66 3.37-2.528 3.359-5.194v-17.315h12.34zm-3.842-23.01v3.915h-26.68v-3.914h26.68zm-26.68 11.582h26.68v3.76h-26.68v-3.76z"/><path d="M175.324 268.142a3.823 3.823 0 00-5.382-.556l-14.241 11.587a3.83 3.83 0 00-.556 5.387 3.837 3.837 0 002.98 1.412 3.8 3.8 0 002.407-.858l14.242-11.587c1.649-1.324 1.89-3.748.55-5.385zM203.169 266.574a3.845 3.845 0 00-5.425-.252 3.835 3.835 0 00-.253 5.408l9.12 10.038a3.859 3.859 0 002.846 1.242c.918 0 1.848-.324 2.578-.99a3.847 3.847 0 00.253-5.425l-9.12-10.02zM246.725 220.524a3.847 3.847 0 00-5.162 1.66l-15.88 30.952a3.83 3.83 0 003.397 5.59 3.845 3.845 0 003.419-2.083l1.265-2.474v32.507a3.835 3.835 0 003.836 3.83 3.837 3.837 0 003.826-3.83v-47.43l6.964-13.56a3.84 3.84 0 00-1.665-5.162zM288.537 235.717h-6.024v-13.973a3.831 3.831 0 00-3.831-3.83 3.824 3.824 0 00-3.831 3.83c-.006.017-.006 5.953-.012 13.973h-21.64a3.836 3.836 0 00-3.837 3.83 3.837 3.837 0 003.837 3.838h21.64c-.005 14.224-.005 30.972-.005 35.343.137 1.208-1.056 2.28-4.188 3.264-2.87.82-5.937.809-5.937.847a3.838 3.838 0 00-3.848 3.83 3.847 3.847 0 003.848 3.844v-.012c.187-.01 3.902.022 8.036-1.143 3.837-1 9.636-3.908 9.768-10.63v-35.343h6.024a3.845 3.845 0 003.842-3.837 3.844 3.844 0 00-3.842-3.831z"/><path d="M264.435 269.405c.709 0 1.428-.192 2.066-.598 1.781-1.15 2.298-3.53 1.144-5.3l-7.394-11.504a3.825 3.825 0 00-5.287-1.154 3.826 3.826 0 00-1.154 5.288l7.392 11.51a3.826 3.826 0 003.233 1.758z"/></g><path fill="none" stroke="#FFF" stroke-width="5.629" d="M388.559 200c0 104.133-84.428 188.555-188.561 188.555-104.139 0-188.555-84.422-188.555-188.555 0-104.138 84.416-188.555 188.555-188.555 104.133 0 188.56 84.417 188.56 188.555z"/><path fill="#FFF" d="M70.591 200c0 71.467 57.934 129.4 129.407 129.4 30.665 0 58.818-10.685 80.992-28.504L99.108 119.002C81.282 141.175 70.59 169.33 70.59 200zM329.404 200c0-71.472-57.934-129.412-129.406-129.412-30.666 0-58.82 10.691-80.993 28.517l181.893 181.881c17.82-22.172 28.506-50.326 28.506-80.986z"/><path fill="#0334A6" d="M162.198 202.138c-3.09-6.992-25.296-46.43-34.673-60.963-2.094-3.254-4.249-6.25-7.134-6.25-2.886 0-5.046 2.996-7.135 6.25-9.383 14.534-31.589 53.971-34.672 60.963-3.782 8.542 2.951 14.292 14.456 6.728 5.282-3.468 11.46-7.722 16.616-11.323v85.862h22.992V198.61c4.82 3.353 10.323 7.13 15.088 10.257 11.505 7.564 18.238 1.814 14.462-6.728zM220.912 168.13c6.986-3.088 46.424-25.295 60.957-34.677 3.254-2.089 6.256-4.249 6.256-7.135 0-2.885-3.002-5.04-6.256-7.134-14.533-9.377-53.97-31.584-60.957-34.673-8.542-3.776-14.297 2.957-6.733 14.462 3.468 5.277 7.722 11.46 11.323 16.616H139.64v22.987h84.801c-3.358 4.825-7.134 10.322-10.262 15.093-7.564 11.505-1.809 18.238 6.733 14.462z"/><g fill="#0334A6"><path d="M200.597 263.86a3.83 3.83 0 002.693-1.133 3.805 3.805 0 001.133-2.71V237.02a3.845 3.845 0 00-1.116-2.705 3.88 3.88 0 00-2.71-1.132h-12.824v-4.634h20.486a3.83 3.83 0 003.83-3.831 3.827 3.827 0 00-3.83-3.831v-.011h-55.444a3.884 3.884 0 00-2.72 1.132 3.877 3.877 0 00-1.122 2.71V270.317c.06 1.892-1.226 5.437-2.7 8.185-1.444 2.781-2.879 4.805-2.879 4.815a3.834 3.834 0 00.94 5.337c.67.473 1.44.699 2.198.699 1.21 0 2.397-.567 3.139-1.627.06-.358 6.711-8.927 6.975-17.409V228.55h23.46v4.634h-13.863a3.851 3.851 0 00-2.71 1.132 3.816 3.816 0 00-1.132 2.705v22.998c0 1.01.412 2 1.132 2.725a3.907 3.907 0 002.71 1.116h14.352l-.011 16.029c-1.677.412-5.777.698-7.745.588a3.83 3.83 0 00-3.831 3.847 3.829 3.829 0 003.83 3.825c1.722-.01 4.756 0 7.663-.445 1.468-.236 2.914-.565 4.397-1.335 1.397-.66 3.37-2.528 3.359-5.194v-17.315h12.34zm-3.842-23.01v3.915h-26.68v-3.914h26.68zm-26.68 11.582h26.68v3.76h-26.68v-3.76z"/><path d="M175.324 268.142a3.823 3.823 0 00-5.382-.556l-14.241 11.587a3.83 3.83 0 00-.556 5.387 3.837 3.837 0 002.98 1.412 3.8 3.8 0 002.407-.858l14.242-11.587c1.649-1.324 1.89-3.748.55-5.385zM203.169 266.574a3.845 3.845 0 00-5.425-.252 3.835 3.835 0 00-.253 5.408l9.12 10.038a3.859 3.859 0 002.846 1.242c.918 0 1.848-.324 2.578-.99a3.847 3.847 0 00.253-5.425l-9.12-10.02zM246.725 220.524a3.847 3.847 0 00-5.162 1.66l-15.88 30.952a3.83 3.83 0 003.397 5.59 3.845 3.845 0 003.419-2.083l1.265-2.474v32.507a3.835 3.835 0 003.836 3.83 3.837 3.837 0 003.826-3.83v-47.43l6.964-13.56a3.84 3.84 0 00-1.665-5.162zM288.537 235.717h-6.024v-13.973a3.831 3.831 0 00-3.831-3.83 3.824 3.824 0 00-3.831 3.83c-.006.017-.006 5.953-.012 13.973h-21.64a3.836 3.836 0 00-3.837 3.83 3.837 3.837 0 003.837 3.838h21.64c-.005 14.224-.005 30.972-.005 35.343.137 1.208-1.056 2.28-4.188 3.264-2.87.82-5.937.809-5.937.847a3.838 3.838 0 00-3.848 3.83 3.847 3.847 0 003.848 3.844v-.012c.187-.01 3.902.022 8.036-1.143 3.837-1 9.636-3.908 9.768-10.63v-35.343h6.024a3.845 3.845 0 003.842-3.837 3.844 3.844 0 00-3.842-3.831z"/><path d="M264.435 269.405c.709 0 1.428-.192 2.066-.598 1.781-1.15 2.298-3.53 1.144-5.3l-7.394-11.504a3.825 3.825 0 00-5.287-1.154 3.826 3.826 0 00-1.154 5.288l7.392 11.51a3.826 3.826 0 003.233 1.758z"/></g></svg>