<svg class="svgOrigin" xmlns="http://www.w3.org/2000/svg" width="400" height="400"><circle fill="red" cx="200" cy="200" r="197.933"/><path fill="none" stroke="#FFF" stroke-width="5.655" d="M389.447 200c0 104.623-84.824 189.448-189.447 189.448-104.635 0-189.454-84.825-189.454-189.448C10.546 95.368 95.366 10.55 200 10.55c104.623 0 189.447 84.818 189.447 189.45z"/><path fill="#0334A6" d="M69.97 200c0 71.804 58.214 130.013 130.03 130.013 30.803 0 59.092-10.733 81.368-28.639L98.621 118.617C80.72 140.897 69.97 169.183 69.97 200zM330.012 200c0-71.81-58.208-130.027-130.012-130.027-30.815 0-59.11 10.744-81.386 28.654l182.76 182.741c17.9-22.276 28.638-50.565 28.638-81.368z"/></svg>