<svg class="svgOrigin" xmlns="http://www.w3.org/2000/svg" width="400" height="400"><circle fill="#0334A6" cx="200.001" cy="200" r="196.875"/><circle fill="none" stroke="#FFF" stroke-width="5.625" cx="200.001" cy="200" r="188.437"/><path fill="#FFF" d="M233.111 254.295c-4.943-.594-12.952-1.154-21.94-1.66-7.623-.472-20.019-6.613-14.045-13.095L329.154 96.322l-31.707-29.226L167.65 207.894c-11.049 11.986-18.55-21.91-18.55-21.91-.66-3.96-1.283-7.39-1.832-9.953-3.751-17.446-24.244-10.877-26.91.263-2.214 9.229-24.778 131.47-24.778 131.47s-1.922 10.295-.433 11.646c1.49 1.362 11.557-1.499 11.557-1.499s119.64-33.74 128.617-36.799c10.855-3.691 15.513-24.697-2.209-26.817z"/></svg>