<svg class="svgOrigin" xmlns="http://www.w3.org/2000/svg" width="400" height="400"><path fill="#0334A6" d="M395.8 367.657c0 14.695-12.024 26.718-26.719 26.718H30.92c-14.695 0-26.719-12.023-26.719-26.718V32.343C4.2 17.648 16.224 5.625 30.92 5.625H369.08c14.695 0 26.719 12.023 26.719 26.718v335.314z"/><path fill="none" stroke="#FFF" stroke-width="2.672" d="M369.081 389.02H30.92c-11.789 0-21.375-9.585-21.375-21.363V32.343c0-11.783 9.586-21.364 21.375-21.364H369.08c11.79 0 21.375 9.581 21.375 21.364v335.314c0 11.778-9.586 21.364-21.375 21.364h0z"/><path fill="#FFF" d="M200.005 362.501S79.555 269.718 69.347 261.473c-10.207-8.245-7.415-15.17 4.41-11.492 14.496 4.51 91.15 25.18 91.15 25.18v-79.247h70.197v79.246s76.653-20.67 91.15-25.179c11.825-3.678 14.617 3.247 4.41 11.492C320.456 269.718 200.005 362.5 200.005 362.5z"/><g fill="#FFF"><path d="M135.688 80.723H109.45v-14.22a6.677 6.677 0 00-13.353 0v14.22H69.853c-1.764 0-3.48.715-4.728 1.967a6.688 6.688 0 00-1.946 4.718v32.84c0 1.758.704 3.475 1.946 4.716a6.729 6.729 0 004.728 1.968h26.244v15.77c0 3.684 2.99 6.685 6.679 6.685 3.684 0 6.674-3 6.674-6.685v-15.77h26.238c1.775 0 3.455-.71 4.718-1.968a6.645 6.645 0 001.957-4.717v-32.84c0-1.753-.715-3.47-1.957-4.717a6.725 6.725 0 00-4.718-1.967zm-59.16 32.84V94.087h19.569v19.476h-19.57zm52.476 0H109.45V94.087h19.554v19.476zM241.58 104.013h-10.274v-22.94c0-1.415-.543-2.74-1.545-3.732a5.264 5.264 0 00-3.737-1.555H206.55v-9.283a5.282 5.282 0 00-5.286-5.286 5.283 5.283 0 00-5.286 5.286v9.283h-19.48c-1.394 0-2.75.569-3.737 1.545a5.307 5.307 0 00-1.545 3.742v22.94H160.94a5.282 5.282 0 00-5.286 5.286 5.292 5.292 0 005.286 5.286h34.212c-3.366 4.921-11.084 10.954-18.421 15.285-8.485 5.172-16.182 8.553-16.198 8.574a5.291 5.291 0 004.28 9.68v-.01c.125-.058 8.276-3.654 17.408-9.206 6.653-4.148 13.886-9.033 19.063-15.04 11.626 13.778 33.142 23.176 33.424 23.609 2.63 1.247 5.776.12 7.04-2.505a5.29 5.29 0 00-2.5-7.04c-.021-.01-6.993-3.334-14.764-8.38-6.71-4.248-13.807-10.067-17.11-14.967H241.58a5.292 5.292 0 005.286-5.286 5.282 5.282 0 00-5.286-5.286zm-20.842-17.66v17.66h-14.19v-17.66h14.19zm-38.966 0h14.205v17.66h-14.205v-17.66zM346.814 135.02c-.057.079-2.035-.5-4.378-2.003-3.214-1.915-7.107-4.937-10.353-7.677 2.349-1.017 4.587-2.207 6.68-3.34 5.05-2.844 8.85-5.61 8.964-5.677a5.286 5.286 0 001.16-7.379 5.283 5.283 0 00-7.385-1.169v-.015c-.01.015-3.444 2.515-7.911 5.02a49.083 49.083 0 01-7.07 3.381v-10.865h10.081a5.286 5.286 0 003.737-1.534 5.3 5.3 0 001.55-3.736v-26.05a5.285 5.285 0 00-5.287-5.286h-11.6c.031-.068.088-.199.104-.23 1.075-2.714-.25-5.792-2.954-6.868a5.296 5.296 0 00-6.873 2.964v-.01s-.031.11-.281.563c-.861 1.571-2.703 3.726-4.78 3.58h-4.347c-1.389 0-2.75.559-3.742 1.545a5.346 5.346 0 00-1.544 3.742v26.05c0 1.409.548 2.74 1.555 3.736a5.244 5.244 0 003.731 1.534h10.076v6.477H302.87a5.287 5.287 0 00-5.29 5.286 5.293 5.293 0 005.29 5.286v-.01h7.864a1.104 1.104 0 00-.098.114c-3.79 4.525-9.076 9.686-14.19 12.279a5.262 5.262 0 00-2.285 7.118 5.25 5.25 0 004.696 2.876c.815 0 1.644-.188 2.421-.585 5.715-3.021 10.703-7.462 14.67-11.726v10.291a5.283 5.283 0 005.286 5.286 5.283 5.283 0 005.286-5.286v-8.245c.475.391.95.783 1.44 1.18 6.038 4.487 11.632 9.434 18.854 9.95 2.913 0 5.287-2.379 5.287-5.29 0-2.913-2.374-5.276-5.287-5.276zM331.31 81.71h-20.158v-2.464h20.158v2.464zm-20.158 10.572h20.158v2.452h-20.158v-2.452z"/><path d="M294.845 133.366a5.285 5.285 0 004.304-2.207 5.3 5.3 0 00-1.215-7.38l-13.16-9.434v-3.528h7.341c1.007 1.315 2.541 2.093 4.155 2.093.74 0 1.492-.157 2.211-.49a5.276 5.276 0 002.59-7.009l-4.431-9.601a5.259 5.259 0 00-6.998-2.594 5.28 5.28 0 00-2.594 7.014l.01.02h-7.545c-.011 0-.016-.005-.027-.005-.01 0-.015.005-.025.005h-.966l17.059-16.84a5.283 5.283 0 00.048-7.467 5.287 5.287 0 00-7.468-.057l-10.792 10.66-3.439-2.416 13.14-11.923a5.278 5.278 0 00.365-7.452c-1.951-2.171-5.29-2.333-7.462-.376l-18.04 16.36a5.293 5.293 0 00-1.727 4.247 5.358 5.358 0 002.238 3.998l7.274 5.109-7.775 7.68a5.27 5.27 0 00-1.179 5.762 5.298 5.298 0 004.895 3.282h8.574v.293l-20.133 23.91c-1.883 2.244-1.602 5.574.637 7.452a5.273 5.273 0 007.436-.637l12.06-14.318v15.185a5.278 5.278 0 005.28 5.286 5.283 5.283 0 005.287-5.286V127.35l6.998 5.025c.934.668 2.01.991 3.074.991z"/></g></svg>