<svg class="svgOrigin" xmlns="http://www.w3.org/2000/svg" width="400" height="400"><path fill="#0334A6" d="M398.125 200c0 109.422-88.703 198.125-198.12 198.125-109.427 0-198.13-88.703-198.13-198.125S90.578 1.875 200.005 1.875c109.417 0 198.12 88.703 198.12 198.125z"/><path fill="none" stroke="#FFF" stroke-width="5.661" d="M389.634 200c0 104.728-84.9 189.634-189.629 189.634-104.733 0-189.639-84.906-189.639-189.634 0-104.734 84.906-189.634 189.64-189.634 104.728 0 189.628 84.9 189.628 189.634z"/><path fill="#FFF" d="M359.97 226.872s-59.343-36.928-64.014-39.503c-5.639-3.113-16.13 2.913-10.305 11.083 1.93 2.697 9.46 11.98 9.46 11.985 3.172 3.168.856 6.512-3.594 6.512-6.296 0-13.495.005-21.172.011-19.746.056-39.98 8.768-55.723 24.246V109.15c0-8.565 4.92-9.967 8.911-6.757.01.002.01.002.017.007 3.665 2.978 6.959 5.579 9.11 7.113 8.17 5.829 14.195-4.663 11.083-10.305-2.576-4.67-39.503-64.015-39.503-64.015s-3.101-5.002-4.235-5.002c-1.138 0-4.234 5.002-4.234 5.002s-36.927 59.344-39.503 64.015c-3.113 5.642 2.913 16.134 11.078 10.305 2.04-1.457 5.108-3.87 8.546-6.654.006-.002.011-.002.011-.005 3.997-3.209 9.486-1.808 9.486 6.758v57.27c0 6.264-3.256 8.163-7.95 3.48l-30.094-30.091-21.034 21.03 49.42 49.413c3.826 3.837 1.123 9.265-5.798 4.49l-.044.066c-12.538-7.79-26.485-12.107-40.228-12.15h-23.19c-3.56 0-6.96-2.39-4.439-4.91.006-.003 7.32-8.47 10.973-13.588 5.832-8.17-4.66-14.193-10.299-11.084-4.67 2.576-64.02 39.504-64.02 39.504s-5.002 3.1-5.002 4.234c0 1.133 5.008 4.235 5.008 4.235s59.338 36.926 64.01 39.503c5.643 3.112 16.135-2.913 10.309-11.083-1.99-2.786-9.84-12.45-9.846-12.461-2.52-2.515-.254-6.042 3.306-6.042h23.19c11.808-.072 26.137 5.827 37.165 17.33 9.542 9.956 16.755 23.782 18.563 41.627v68.122h29.233v-54.303c1.802-17.833 9.016-31.664 18.552-41.614 11.028-11.51 25.357-17.402 37.17-17.336h21.173c4.45 0 6.766 3.344 3.593 6.512-.033.033-7.54 9.31-9.459 11.996-5.826 8.17 4.666 14.195 10.305 11.083 4.671-2.575 64.015-39.503 64.015-39.503s5.003-3.102 5.003-4.235c0-1.133-5.003-4.234-5.003-4.234z"/></svg>