<svg class="svgOrigin" xmlns="http://www.w3.org/2000/svg" width="400" height="400"><path fill="#0334A6" d="M396.802 335.465c0 9.475-7.74 17.214-17.203 17.214H20.404c-9.464 0-17.206-7.74-17.206-17.214V64.529c0-9.469 7.742-17.208 17.206-17.208H379.6c9.464 0 17.203 7.74 17.203 17.208v270.936z"/><path fill="none" stroke="#FFF" stroke-width="3.683" d="M392.161 331.462c0 9.177-7.516 16.692-16.692 16.692H24.529c-9.179 0-16.687-7.515-16.687-16.692V68.535c0-9.18 7.508-16.684 16.687-16.684h350.94c9.176 0 16.692 7.505 16.692 16.684v262.927z"/><path fill="#FFF" d="M215.265 146.5c-2.14-3.577-10.334-17.246-16.115-26.896-3.412-5.696-4.756-8.325-5.985-8.325-1.23 0-2.604 2.68-6.047 8.426-5.778 9.645-13.914 23.231-16.05 26.795-3.413 5.687.648 8.934 6.66 4.548 2.212-1.616 4.887-3.492 7.386-5.225v141.684h16.107v-141.68a416.548 416.548 0 017.38 5.22c6.014 4.387 10.08 1.14 6.664-4.547zM364.535 78.296h10.763v32.764h-10.763zM364.535 151.881h10.763v32.767h-10.763zM364.535 225.465h10.763v32.767h-10.763zM364.535 299.047h10.763v32.767h-10.763zM250.469 78.296h10.763v32.764h-10.763zM250.469 151.881h10.763v32.767h-10.763zM250.469 225.465h10.763v32.767h-10.763zM250.469 299.047h10.763v32.767h-10.763zM136.408 78.296h10.765v32.764h-10.765zM136.408 151.881h10.765v32.767h-10.765zM136.408 225.465h10.765v32.767h-10.765zM136.408 299.047h10.765v32.767h-10.765zM22.339 78.296h10.766v32.764H22.339zM22.339 151.881h10.766v32.767H22.339zM22.339 225.465h10.766v32.767H22.339zM22.339 299.047h10.766v32.767H22.339zM125.212 146.5a84119.868 84119.868 0 01-16.115-26.896c-3.412-5.696-4.756-8.325-5.985-8.325-1.23 0-2.603 2.68-6.047 8.426-5.778 9.645-13.914 23.231-16.05 26.795-3.412 5.687.649 8.934 6.66 4.548 2.212-1.616 4.887-3.492 7.386-5.225v84.422c-.027 5.003-.508 7.664-6.254 3.587-5.88-4.066-13.784-6.354-13.784-6.354 7.335-10.157-1.23-12.051-6.917-8.634-3.576 2.14-8.218 4.929-17.868 10.709-5.695 3.407-8.324 4.748-8.324 5.983 0 1.224 2.68 2.597 8.425 6.046 9.645 5.781 14.204 8.495 17.767 10.635 5.688 3.418 13.614 2.215 6.915-8.633 0 0 20.03 2.033 20.03 18.533 0 .075.01.128.01.202v25.188h16.106v-141.68a407.95 407.95 0 017.38 5.22c6.013 4.387 10.076 1.14 6.665-4.547zM345.928 173.11l-26.795-16.05c-5.685-3.412-8.932.649-4.546 6.661a387.747 387.747 0 015.217 7.385H303.59c-13.754 0-24.91 11.157-24.91 24.917v91.484h16.106v-78.085c0-13.753 6.686-20.431 20.45-20.431h3.322a367.81 367.81 0 01-3.971 5.602c-4.386 6.012-1.139 10.073 4.546 6.667 3.577-2.148 17.245-10.337 26.89-16.117 5.696-3.412 8.325-4.756 8.325-5.986 0-1.23-2.672-2.603-8.42-6.047z"/></svg>