<svg class="svgOrigin" xmlns="http://www.w3.org/2000/svg" width="400" height="400"><path fill="#0334A6" d="M396.642 368.377c0 14.758-12.076 26.833-26.833 26.833H30.19c-14.758 0-26.833-12.075-26.833-26.833V31.624c0-14.758 12.075-26.833 26.833-26.833H369.81c14.757 0 26.833 12.075 26.833 26.833v336.753z"/><path fill="none" stroke="#FFF" stroke-width="2.683" d="M369.809 389.833H30.19c-11.838 0-21.466-9.622-21.466-21.456V31.619c0-11.829 9.628-21.456 21.466-21.456H369.81c11.838 0 21.466 9.627 21.466 21.456v336.758c0 11.834-9.628 21.456-21.466 21.456h0z"/><path fill="#FFF" d="M139.856 191.996c-3.8 0-7.154 1.114-7.154 2.684v21.24c0 12.296-26.162 12.075-26.162.672v-20.348c0-2.463-11.63-9.172-11.63-12.746v-45.28c0-10.734 12.662-16.94 13.952-21.769 1.289-4.829 5.67-22.367 8.008-31.382 2.337-9.014 11.021-18.36 17.027-18.36h116.326c6.005 0 14.69 9.346 17.027 18.36 2.338 9.015 6.719 26.553 8.009 31.382 1.289 4.83 13.951 11.035 13.951 21.768v45.281c0 3.574-11.63 10.283-11.63 12.746v20.348c0 11.403-26.162 11.624-26.162-.671V194.68c0-1.57-3.355-2.684-7.154-2.684H139.856z"/><path fill="#0334A6" d="M136.68 117.157c-17.808 0-14.768-4.342-10.859-19.543 3.91-15.201 7.385-19.111 12.594-19.111h107.29c5.21 0 8.685 3.91 12.594 19.11 3.91 15.202 6.949 19.544-10.859 19.544H136.68zM168.03 180.571h-61.244a2.69 2.69 0 01-2.683-2.683v-5.928a2.69 2.69 0 012.683-2.683h55.878a2.69 2.69 0 002.684-2.683v-14.18a2.69 2.69 0 012.683-2.683h48.058a2.69 2.69 0 012.683 2.684v14.179a2.69 2.69 0 002.684 2.683h55.878a2.69 2.69 0 012.684 2.683v5.928a2.69 2.69 0 01-2.684 2.683H168.031zM103.238 156.17a2.69 2.69 0 002.683 2.683h2.013a2.69 2.69 0 002.683-2.683v-17.654a2.69 2.69 0 00-2.683-2.683h-2.013a2.69 2.69 0 00-2.683 2.683v17.654zM280.882 156.17a2.69 2.69 0 01-2.684 2.683h-2.012a2.69 2.69 0 01-2.683-2.683v-17.654a2.69 2.69 0 012.683-2.683h2.012a2.69 2.69 0 012.684 2.683v17.654z"/><path fill="#FFF" d="M354.28 322.697h20.795l-19.459-22.472h18.936l-15.236-17.588h-18.935L321.21 260.51h18.935l-8.579-9.905h-18.935l-10.246-11.834h18.935l-6.393-7.38H295.99l-6.037-6.97h-11.143l5.352 6.97H160.568l11.729-11.729h-5.645l-13.17 11.73h-14.155l-8.401 7.379h14.265l-13.285 11.834h-14.454l-11.279 9.905h14.612l-24.858 22.127H80.965l-20.026 17.588h15.236l-28.531 25.408h18.678l25.407-25.408h245.298l17.253 22.472zM153.19 238.771h136.644l9.083 11.834H141.355l11.834-11.834zm-43.871 43.866l22.132-22.127h175.075l16.996 22.127H109.318z"/></svg>