<svg class="svgOrigin" xmlns="http://www.w3.org/2000/svg" width="400" height="400"><circle fill="red" cx="200" cy="200" r="197"/><circle transform="rotate(-45 200 200)" fill="none" stroke="#FFF" stroke-width="5.629" cx="200" cy="200" r="188.557"/><path fill="#FFF" d="M236.894 254.439a9.8 9.8 0 006.76-2.732c1.221-1.192 2.023-2.616 2.495-4.111 1.117 4.216 4.926 7.343 9.488 7.343 4.216 0 7.789-2.655 9.19-6.387.901.263 1.82.44 2.743.434h.044c.39 0 .776-.071 1.165-.115l32.117 32.116c17.826-22.172 28.517-50.327 28.517-80.987 0-71.473-57.94-129.413-129.413-129.413-30.66 0-58.814 10.69-80.988 28.517l54.186 54.186c-.516.34-1.05.61-1.544 1.022-4.178 3.6-5.211 8.366-5.211 11.812.011 0-.017.17.011.545 0 .752 0 2.413-.006 4.705h-5.353c.967-1.583 1.874-3.689 2.017-6.228.022-.28.05-.572.033-.869-.083-3.089-1.336-5.117-2.721-6.799-1.352-1.456-2.82-2.831-5.436-3.452-1.045-.291-3.31-.802-5.991-1.385a9.97 9.97 0 00.599-3.391 9.848 9.848 0 00-4.474-8.273 9.949 9.949 0 00-5.365-1.594 9.857 9.857 0 00-5.865 1.935h-.022l-.05.055a9.689 9.689 0 00-2.045 2.105c-.18.214-.131.181-.142.198 0 .005 0 .005-.006.011-.005.005-.016.022-.033.039-.12.175-1.215 1.863-3.221 4.534l-29.259-29.258C81.284 141.175 70.598 169.329 70.598 200c0 71.468 57.935 129.402 129.402 129.402 30.67 0 58.825-10.685 80.999-28.505l-46.887-46.887c.902.259 1.814.434 2.732.429h.05z"/><g fill="#0334A6"><path d="M165.179 177.007v-.01h-15.897c2.194-2.721 4.244-5.31 4.887-5.926 1.325-1.643 3-2.759 3.342-6.442.27-2.171-2.15-4.941-4.035-5.178-1.511-.423-8.366-1.89-13.637-3.012 2.188-2.94 3.413-4.837 3.469-4.903a4.22 4.22 0 00-1.248-5.832c-1.957-1.27-4.574-.714-5.832 1.242h-.011c-.01.012-2.853 4.403-7.767 10.296-4.909 5.876-11.84 13.131-19.645 18.507a4.201 4.201 0 00-1.066 5.876 4.194 4.194 0 003.473 1.82c.83 0 1.666-.243 2.403-.754 8.2-5.684 15.181-12.84 20.332-18.87 3.1.654 8.871 1.88 12.917 2.765-2.55 2.996-6.772 8.465-8.586 10.41h-12.505a4.234 4.234 0 00-4.216 3.898c0 .01-.456 6.15-2.65 16-2.198 9.856-6.106 23.262-12.916 37.296a4.213 4.213 0 001.95 5.644 4.114 4.114 0 001.837.429 4.245 4.245 0 003.809-2.374c11.12-22.96 14.83-44.012 15.952-52.45h35.64a4.22 4.22 0 004.215-4.215 4.213 4.213 0 00-4.215-4.217z"/><path d="M166.322 226.758a4.204 4.204 0 00-5.568 2.138c-.011 0-.143.325-.66 1.127-1.654 2.473-5.53 7.217-13.186 7.217-5.975.028-8.36-1.17-8.795-1.616-.362-.39-.352-.34-.418-1.589v-30.55c-.005-.225 0-.44.006-.632h13.775c.23-.005.439.016.626.05v12.295c-.275.352-1.286 1.336-2.407 1.951-1.303.814-2.447 1.282-2.447 1.292a4.227 4.227 0 00-2.242 5.546c.907 2.15 3.386 3.145 5.546 2.243l-.011-.016c.148-.056 2.171-.902 4.425-2.42 2.078-1.582 5.238-3.473 5.579-8.31v-13.703c.044-2.72-1.764-4.98-3.512-5.942-1.776-1.055-3.656-1.418-5.557-1.429h-15.71c-2.814-.203-5.48 2.44-5.86 4.249-.632 1.852-.62 3.37-.642 4.826-.012 2.573-.012 27.687 0 30.55-.06 1.61.236 5.382 3.358 7.986 3.073 2.546 7.41 3.628 14.286 3.662 15.605-.154 21.382-12.94 21.547-13.352a4.213 4.213 0 00-2.133-5.573zM239.873 241.676c-.012-.011-5.53-5.75-11.043-11.83-2.754-3.044-5.508-6.16-7.503-8.63-.968-1.186-1.754-2.22-2.248-2.94h.577c3.77-.093 6.805.176 10.109-2.137 3.27-2.694 3.55-6.366 3.588-10.362.22-5.315-2.693-9.938-6.612-11.51-2.693-1.182-5.387-1.451-7.954-1.528v-4.469c2.81-.698 5.085-1.907 6.767-3.155.775.693 1.693 1.182 2.72 1.182a4.218 4.218 0 003.688-6.271c-.02-.034-4.314-7.773-12.9-22.361a4.25 4.25 0 00-3.54-2.083 4.237 4.237 0 00-3.628 1.896c-7.431 11.213-12.988 14.654-15.995 15.726.11-.566.292-1.094.33-1.699-.033-2.523.022-5.798-1.314-9.135-1.165-3.419-5.205-6.722-10.036-6.497-3.908.01-7.096.654-9.609 2.76-2.539 2.16-3.231 5.32-3.182 7.739-.01 3.704-.01 77.085-.01 77.085a4.23 4.23 0 108.458 0h-.016v-14.67c1.682-.425 3.952-1.128 6.32-2.26 4.074-1.896 9.147-5.777 10.054-12.263.946 1.209 2.073 2.248 3.535 2.743 2.946 1.115 5.947 1.209 9.669 1.236-1.408 2.133-6.108 7.773-10.384 12.445a561.718 561.718 0 01-9.625 10.438 4.203 4.203 0 00.154 5.958 4.186 4.186 0 002.908 1.166 4.21 4.21 0 003.062-1.314c.01-.011 5.397-5.678 10.79-11.73 2.715-3.034 5.42-6.15 7.514-8.783.033-.04.05-.067.082-.11 6.536 8.113 19.106 21.085 19.194 21.206a4.199 4.199 0 003.05 1.302 4.21 4.21 0 002.92-1.17c1.67-1.622 1.731-4.294.12-5.975h-.01zm-16.644-39.73c1.055.703 1.457.517 1.682 3.831 0 1.726-.143 2.903-.297 3.436-.05.192-.083.258-.1.29-.445.15-2.181.386-4.858.342h-.874v-8.653c1.979.1 3.616.33 4.446.754zm-8.146-34.37c2.49 4.265 4.469 7.695 5.98 10.333-1.457 1.193-3.771 2.55-6.502 2.512-2.056.05-4.76-1.27-6.838-2.864a18.866 18.866 0 01-1.248-1.016c2.666-2.144 5.54-4.992 8.608-8.966zm-34.563-1.204c.05-1.303.214-1.281.247-1.336.06-.104 1.132-.731 4.035-.731h.077c2.012.225 1.528.203 2.22 1.28.517 1.155.72 3.595.698 5.92.034.028-.214 1.04-1.039 2.397-1.225 2.38-3.935 5.513-6.238 7.805v-15.335zm2.66 52.542a23.85 23.85 0 01-2.66 1.077v-18c.835.489 1.753 1.076 2.671 1.769 3.133 2.336 5.519 5.364 5.447 8.575.05 2.88-2.066 4.875-5.458 6.58zm16.506-22.993c-2.979 2.029-4.408 5.212-4.858 8.454-3.112-5.776-8.674-9.097-12.016-10.707v-2.727c2.353-1.725 4.694-4.172 7.124-6.991.533-.687 1.044-1.358 1.555-2.029.434.1 1.072.22 2.061.21 1.413.005 3.265-.303 5.409-1.106 1.76 1.858 5.706 5.607 11.378 7.152v4.672c-4.354.302-7.783 1.127-10.653 3.072zm3.645 13.115c-.033-.049-.259-.588-.259-1.836.11-3.045.533-3.643 1.463-4.364.741-.588 2.654-1.22 5.804-1.517 0 2.94.006 5.87.006 8.493-3.584-.034-6.052-.27-6.74-.627l-.274-.149z"/><path d="M300.17 179.02c-2.121-2.166-4.83-2.568-6.628-2.54-1.742-.011-11.516-.017-17.952-.017 2.672-8.08 4.266-15.203 4.337-15.346a4.221 4.221 0 00-3.166-5.063 4.21 4.21 0 00-5.057 3.166v-.01c0 .01-1.237 5.342-3.26 11.84a132.844 132.844 0 01-2.737 7.992c-.209-.072-.385-.193-.604-.231l-5.239-.874v-21.8a4.221 4.221 0 00-4.221-4.227 4.214 4.214 0 00-4.222 4.227v20.398l-3.996-.67c.302-2.787.401-5.168.407-6.871 0-1.847-.094-2.93-.094-3.034a4.216 4.216 0 00-4.562-3.848c-2.33.186-4.045 2.237-3.848 4.562l-.01-.01c0 .01.07.752.07 2.33.012 4.243-.631 13.725-5.138 23.448a4.239 4.239 0 002.072 5.612 4.23 4.23 0 001.76.385 4.243 4.243 0 003.847-2.457c1.89-4.106 3.166-8.113 4.05-11.796l5.442.907v29.61l-12.735 7.856a4.201 4.201 0 00-1.38 5.803 4.198 4.198 0 003.584 2.007c.758 0 1.522-.203 2.22-.632l8.31-5.123v20.497a4.21 4.21 0 004.223 4.21 4.217 4.217 0 004.221-4.21v-25.697l2.105-1.297c-.269.291-.484.588-.764.874a4.233 4.233 0 00.083 5.98 4.203 4.203 0 002.945 1.193c1.1 0 2.2-.429 3.035-1.275 13.5-13.94 16.78-29.555 16.891-29.984a4.216 4.216 0 00-3.264-4.991 4.193 4.193 0 00-4.986 3.254h-.016s-.671 3.232-2.881 8.24c-1.742 3.946-4.469 8.832-8.394 13.675a4.129 4.129 0 00-.483-3.254 4.21 4.21 0 00-4.27-1.951v-23.383l2.34.39a24.22 24.22 0 01-1.286 2.15 4.204 4.204 0 001.122 5.864 4.229 4.229 0 005.87-1.121c1.654-2.49 3.177-5.59 4.55-8.866 2.057-.006 5.08-.006 8.246-.006 5.59 0 11.516.017 12.835 0 .324 0 .544.05.638.072.11.198.406 1.027.406 2.743-.01 5.804-.01 41.708 0 47.826-.538.868-3.616 3.204-6.393 4.672-2.896 1.633-5.474 2.764-5.474 2.764a4.228 4.228 0 00-2.177 5.569 4.237 4.237 0 003.876 2.528c.565 0 1.142-.115 1.692-.356.094-.05 3.793-1.66 7.668-3.986 1.94-1.15 3.92-2.484 5.63-4.023 1.599-1.589 3.445-3.298 3.61-6.74v-48.254c.011-3.54-.752-6.53-2.847-8.701z"/><path d="M284.226 207.097a4.216 4.216 0 00-4.992 3.264h-.01s-.671 3.238-2.886 8.24c-2.21 5.012-5.92 11.548-11.796 17.584a4.219 4.219 0 00.082 5.98 4.23 4.23 0 002.946 1.198c1.1 0 2.199-.428 3.024-1.281 13.499-13.934 16.786-29.566 16.89-29.978a4.223 4.223 0 00-3.258-5.007z"/></g></svg>