<svg class="svgOrigin" xmlns="http://www.w3.org/2000/svg" width="400" height="400"><circle transform="rotate(-45 200 200)" fill="red" cx="200" cy="200" r="196.698"/><circle transform="rotate(-45 200 200)" fill="none" stroke="#FFF" stroke-width="5.62" cx="200" cy="200" r="188.268"/><path fill="#FFF" d="M329.215 200c0-71.363-57.858-129.215-129.215-129.215-71.363 0-129.22 57.852-129.22 129.215 0 71.367 57.857 129.215 129.22 129.215 71.357 0 129.215-57.848 129.215-129.215z"/><path fill="none" stroke="#0334A6" stroke-width="16.86" stroke-linejoin="round" d="M185.698 131.444h-51.886v60.579s5.165-7.875 22.277-7.875c13.583 0 23.9 18.204 23.9 27.443v34.224c0 8.694-10.053 21.185-21.732 21.185-11.68 0-23.902-14.401-23.902-21.997M220.954 153.294c0-13.437 10.894-24.328 24.33-24.328 13.435 0 24.328 10.891 24.328 24.328v88.822c0 13.436-10.893 24.324-24.329 24.324-13.435 0-24.329-10.888-24.329-24.324v-88.822z"/></svg>