<svg class="svgOrigin" xmlns="http://www.w3.org/2000/svg" width="400" height="400"><path fill="#0334A6" d="M396.134 367.943c0 14.72-12.043 26.764-26.764 26.764H30.63c-14.72 0-26.764-12.044-26.764-26.764V32.057c0-14.72 12.043-26.764 26.763-26.764H369.37c14.72 0 26.764 12.043 26.764 26.764v335.886z"/><path fill="none" stroke="#FFF" stroke-width="2.676" d="M369.37 389.344H30.63c-11.81 0-21.412-9.603-21.412-21.4V32.056c0-11.804 9.603-21.4 21.411-21.4H369.37c11.809 0 21.411 9.596 21.411 21.4v335.886c0 11.798-9.602 21.4-21.41 21.4h0z"/><path fill="#FFF" d="M200.005 304.092L53.211 157.298l40.46-40.46 106.334 106.335L306.34 116.839l40.46 40.459z"/></svg>