<svg class="svgOrigin" xmlns="http://www.w3.org/2000/svg" width="400" height="400"><circle fill="#0334A6" cx="200" cy="200" r="197.5"/><circle transform="rotate(-45 200 200)" fill="none" stroke="#FFF" stroke-width="5.643" cx="200" cy="200" r="189.036"/><path fill="#FFF" d="M272.1 163.404c-4.243-8.514-65.113-116.648-65.113-116.648s-5.113-9.115-6.984-9.115c-1.871 0-6.98 9.115-6.98 9.115s-60.872 108.134-65.115 116.648c-5.128 10.277 4.802 29.394 18.264 18.775 4.833-3.814 21.811-19.1 21.814-19.106 6.17-5.587 8.528-2.612 8.528 4.839v196.254h46.972V167.912c0-7.45 2.359-10.426 8.53-4.839.011.006 16.984 15.292 21.823 19.106 13.457 10.619 23.387-8.498 18.262-18.775z"/></svg>