<svg class="svgOrigin" xmlns="http://www.w3.org/2000/svg" width="400" height="400"><path fill="#0334A6" d="M396.867 332.414c0 11.754-9.616 21.36-21.36 21.36H24.494c-11.749 0-21.36-9.606-21.36-21.36V67.586c0-11.749 9.611-21.36 21.36-21.36h351.015c11.743 0 21.36 9.611 21.36 21.36v264.828z"/><path fill="none" stroke="#FFF" stroke-width="2.67" d="M375.508 348.439H24.49c-8.828 0-16.017-7.192-16.017-16.015V67.58c0-8.829 7.189-16.015 16.017-16.015h351.018c8.823 0 16.014 7.186 16.014 16.015v264.843c0 8.823-7.19 16.015-16.014 16.015h0z"/><path fill="#FFF" d="M375.502 337.759H24.488a5.341 5.341 0 01-5.335-5.335V67.576a5.341 5.341 0 015.335-5.335h351.014a5.344 5.344 0 015.346 5.335v264.848a5.344 5.344 0 01-5.346 5.335z"/><g fill="#0334A6"><path d="M106.407 142.476v9.037a3.472 3.472 0 006.943 0v-9.037h8.398a3.471 3.471 0 000-6.94h-8.398v-.335c6.581-1.366 11.757-6.529 13.17-13.1.144.24.26.502.47.71a3.456 3.456 0 002.453 1.017c.889 0 1.776-.34 2.453-1.017 0-.01 6.201-6.21 12.461-12.557 6.813 6.388 13.587 12.583 13.653 12.656a3.457 3.457 0 004.899-.209 3.48 3.48 0 00-.206-4.907c-.023-.015-6.746-6.185-13.486-12.5a636.335 636.335 0 003.982-4.109 176.482 176.482 0 002.92-3.118c.36-.402.663-.74.913-1.043.13-.162.24-.303.38-.511.11-.402.436-.032.684-2.107.033-.662-.303-1.867-1.195-2.618-.868-.75-1.736-.855-2.292-.87h-21.255a3.61 3.61 0 00-2.185.76c-.933.684-1.379 2.003-1.335 2.749.456 2.727.837 1.997 1.087 2.675 1.16 1.398 4.464 4.647 8.383 8.38-.112.115-.224.23-.336.34a3062.776 3062.776 0 01-11.978 12.076c-.055.053-.071.126-.12.183-.217-8.015-5.922-14.664-13.52-16.239v-1.366h8.394a3.473 3.473 0 100-6.946h-8.394v-3.963a3.472 3.472 0 00-6.943 0v3.963H96.178a3.477 3.477 0 00-3.473 3.473 3.483 3.483 0 003.473 3.473h10.229v1.372c-7.739 1.6-13.556 8.447-13.561 16.655 0 .01-.006.016-.006.021 0 .01.006.021.006.032.018 8.202 5.83 15.04 13.56 16.645v.334H96.182c-1.911 0-3.479 1.554-3.479 3.463a3.482 3.482 0 003.479 3.478h10.226zm40.333-44.602a749.32 749.32 0 01-2.57 2.654c-.973-.928-1.906-1.82-2.772-2.654h5.342zm-33.39 11.211a10.045 10.045 0 015.96 5.966h-5.96v-5.966zm0 12.917h5.956a10.062 10.062 0 01-5.956 5.956v-5.956zm-6.943-12.917v5.966h-5.966a10.076 10.076 0 015.966-5.966zm-5.963 12.917h5.963v5.956a10.095 10.095 0 01-5.963-5.956z"/><path d="M162.573 147.294h-15.441v-11.608h8.658a3.465 3.465 0 003.469-3.462 3.472 3.472 0 00-3.469-3.479h-8.658v-6.18a3.472 3.472 0 00-6.944 0v6.18h-8.787a3.474 3.474 0 00-3.478 3.479 3.468 3.468 0 003.478 3.462h8.787v11.608h-13.613a3.472 3.472 0 100 6.946v-.01h35.998a3.47 3.47 0 003.467-3.468 3.47 3.47 0 00-3.467-3.468zM129.01 165.061a3.478 3.478 0 00-3.473 3.478v4.537h-26.23a3.472 3.472 0 00-3.47 3.468 3.472 3.472 0 003.47 3.468h26.23v2.607h-7.15c-7.814.01-14.147 6.341-14.158 14.148v3.176c.011 7.806 6.344 14.137 14.159 14.148h7.15v1.705H99.306a3.468 3.468 0 100 6.936h26.23v8.546a3.473 3.473 0 006.946 0v-8.547h25.905a3.459 3.459 0 003.462-3.462 3.461 3.461 0 00-3.462-3.473h-25.905v-1.705h7.163c7.804-.01 14.14-6.342 14.15-14.148v-3.176c-.01-7.807-6.346-14.138-14.15-14.148h-7.163v-2.607h25.902a3.47 3.47 0 003.468-3.468 3.47 3.47 0 00-3.468-3.468h-25.902v-4.537a3.478 3.478 0 00-3.473-3.478zm-3.473 42.088h-7.15c-3.295 0-6.075-2.284-6.925-5.324h14.075v5.324zm0-12.265h-14.072c.847-3.04 3.63-5.314 6.923-5.324h7.15v5.324zm14.109 12.265h-7.163v-5.324h14.078c-.848 3.04-3.63 5.324-6.915 5.324zm0-17.589c3.285.01 6.064 2.284 6.915 5.324h-14.078v-5.324h7.163zM157.793 263.965c-2.498-1.992-4.865-3.327-7.757-3.452H131.69v-6.405h27.357a3.474 3.474 0 100-6.946H99.314a3.474 3.474 0 100 6.946h27.032v6.405h-18.354c-2.889.125-5.257 1.46-7.754 3.452-2.347 2.023-4.68 4.985-4.735 9.037v35.205a3.48 3.48 0 003.478 3.478 3.478 3.478 0 003.47-3.478v-35.205c-.054-.965.785-2.498 2.269-3.74a10.653 10.653 0 012.203-1.433c.655-.329 1.058-.329 1.07-.371h18.353v22.596h-8.075c-.204-1.204-.436-3.051-.483-4.657-.151-2.758-.151-5.225-.151-5.225a3.468 3.468 0 00-3.478-3.463 3.459 3.459 0 00-3.468 3.463c0 .042 0 3.436.26 6.935.131 1.758.329 3.526.665 5.095.185.788.383 1.518.809 2.353.38.698 1.296 2.315 3.739 2.434h25.703c2.433-.119 3.348-1.736 3.732-2.434 1.24-2.681 1.308-5.632 1.559-8.751.174-2.993.174-5.59.174-5.632a3.459 3.459 0 00-3.467-3.463 3.459 3.459 0 00-3.469 3.463s0 3.244-.24 6.414c-.096 1.272-.237 2.53-.4 3.468h-8.066v-22.596h18.346c.01-.02.415.042 1.07.371 2.203.917 4.724 3.754 4.471 5.173v23.951c.044 1.674-1.08 3.89-2.803 5.58-1.648 1.72-3.96 2.639-4.406 2.54a3.464 3.464 0 00-3.471 3.467 3.469 3.469 0 003.47 3.474c3.568-.116 6.59-1.988 9.283-4.553 2.607-2.603 4.834-6.185 4.875-10.508v-23.951c-.051-4.052-2.388-7.014-4.732-9.037zM239.33 106.765h45.106a3.473 3.473 0 100-6.946H239.33a3.465 3.465 0 00-3.474 3.473 3.469 3.469 0 003.474 3.473zM294.887 136.39h-65.998a3.473 3.473 0 100 6.946h65.998a3.474 3.474 0 100-6.946zM287.597 258.938c-4.324-4.652-9.199-10.284-9.632-11.202a3.446 3.446 0 00-3.139-1.762 3.439 3.439 0 00-3.01 1.96c-.417 1.064-5.22 6.972-9.5 11.744a551.7 551.7 0 01-7.333 8.125c-2.44-3.14-5.892-5.44-9.928-6.279v-1.367h8.395a3.472 3.472 0 100-6.945h-8.395v-3.964a3.48 3.48 0 00-3.468-3.473 3.48 3.48 0 00-3.479 3.473v3.964h-10.22a3.463 3.463 0 00-3.463 3.473 3.463 3.463 0 003.463 3.472h10.22v1.372c-7.717 1.6-13.506 8.417-13.547 16.599 0 .026-.021.052-.021.078 0 .026.016.047.02.067.032 8.188 5.826 14.999 13.548 16.61v.328h-10.22a3.464 3.464 0 00-3.463 3.474 3.459 3.459 0 003.463 3.467h10.22v9.048a3.476 3.476 0 003.479 3.473 3.478 3.478 0 003.468-3.473v-9.048h8.395a3.471 3.471 0 003.474-3.467 3.476 3.476 0 00-3.474-3.474h-8.395v-.323c5.44-1.137 9.908-4.86 12.098-9.824-.01.187-.062.375-.062.557v25.573a3.483 3.483 0 003.473 3.479 3.481 3.481 0 003.478-3.479v-15.159h3.718v9.523a3.474 3.474 0 006.946 0v-9.523h3.41v9.523a3.474 3.474 0 006.946 0v-9.523h2.952v7.827c.042.778-.584 2.436-1.554 3.604-.47.584-1.001 1.054-1.408 1.314-.412.266-.522.21-.522.266a3.471 3.471 0 00-3.477 3.468 3.476 3.476 0 003.477 3.473c3.359-.135 5.554-2.065 7.343-4.172 1.726-2.2 3.035-4.865 3.076-7.953v-11.279-.01-.016-7.097c0-2.305-.448-4.912-2.289-7.113-1.856-2.227-4.876-3.348-8.29-3.317h-15.296c-5.497.031-9.043 2.915-10.759 6.164.173-.96.292-1.934.298-2.941 0-.02.01-.031.01-.047 0-.02-.01-.036-.01-.058-.01-1.319-.198-2.585-.48-3.827.277-.162.563-.313.803-.558v-.01c0-.006 1.064-1.143 2.681-2.91a3.45 3.45 0 003.13 2.008h19.324a3.46 3.46 0 003.463-3.463c0-.157-.067-.282-.083-.428a475.565 475.565 0 003.692 3.901 3.469 3.469 0 004.902.115 3.462 3.462 0 00.114-4.902c-.01-.021-4.156-4.36-8.562-9.137zm-49.489 28.702a10.084 10.084 0 01-5.965-5.966h5.965v5.966zm0-12.902h-5.965a10.084 10.084 0 015.965-5.966v5.966zm6.947 12.902v-5.966h5.96a10.076 10.076 0 01-5.96 5.966zm0-12.902v-5.966a10.06 10.06 0 015.96 5.966h-5.96zm40.007 7.29c1.539.125 2.04.522 2.305.814.33.344.657 1.21.647 2.618v3.64h-2.952v-7.072zm-10.356-.051h3.41v7.123h-3.41v-7.123zm-10.664 3.644c.047-.693.87-2.826 3.718-3.405v6.884h-3.718v-3.479zm20.03-19.712H266.07c.475-.537.954-1.074 1.44-1.627 2.753-3.154 5.496-6.283 7.577-8.943 2.055 2.435 4.719 5.35 7.41 8.303.76.823 1.502 1.62 2.222 2.398-.22-.042-.418-.13-.648-.13z"/></g></svg>