<svg class="svgOrigin" xmlns="http://www.w3.org/2000/svg" width="400" height="400"><path fill="#0334A6" d="M3.908 328.14c0 8.967 7.333 16.3 16.3 16.3h359.584c8.967 0 16.3-7.333 16.3-16.3V71.86c0-8.962-7.333-16.3-16.3-16.3H20.208c-8.967 0-16.3 7.338-16.3 16.3v256.28z"/><path fill="none" stroke="#FFF" stroke-width="2.717" d="M392.022 324.071c0 8.967-7.337 16.3-16.3 16.3H24.283c-8.966 0-16.3-7.333-16.3-16.3V75.935c0-8.967 7.334-16.3 16.3-16.3h351.44c8.963 0 16.3 7.333 16.3 16.3V324.07z"/><path fill="#FFF" d="M14.652 105.18V76.63h7.062v28.55h-7.062zM14.652 169.072v-28.55h7.057v28.55h-7.057zM14.647 232.965v-28.556h7.067v28.556h-7.067zM167.581 105.18V76.63h7.068v28.55h-7.068zM167.581 169.072v-28.55h7.063v28.55h-7.063zM167.576 232.965v-28.556h7.073v28.556h-7.073zM272.939 105.18V76.63H280v28.55h-7.062zM272.939 169.072v-28.55H280v28.55h-7.062zM272.939 232.965v-28.556H280v28.556h-7.062zM378.296 105.18V76.63h7.062v28.55h-7.062zM378.296 169.072v-28.55h7.056v28.55h-7.056zM378.291 232.965v-28.556h7.072v28.556h-7.072zM177.265 244.064H70.47c-2.988 0-5.434 2.452-5.434 5.434v20.125H39.361c-2.435 0-8.563 16.676-13.625 16.676-5.062 0-7.65 7.895-7.65 11.025v6.527c0 1.846-4.734 8.107-4.734 9.232 0 1.124-.339 3.941 1.354 3.941h8.489c0 8.097 6.563 14.66 14.66 14.66 8.096 0 14.66-6.563 14.66-14.66h62.948c0 8.097 6.563 14.66 14.66 14.66 8.096 0 14.66-6.563 14.66-14.66h17.17c2.148 0 6.44-5.008 7.868-5.008h7.444c2.987 0 5.433-2.446 5.433-5.433v-57.085c0-2.982-2.446-5.434-5.433-5.434z"/><path fill="#0334A6" d="M37.197 282.436c-.51 1.359.589 3.353 2.08 3.353h14.77a2.721 2.721 0 002.718-2.716v-6.197a2.722 2.722 0 00-2.717-2.717h-12.48c-1.49 0-2.068.977-2.716 2.717-.642 1.74-1.146 4.202-1.655 5.56z"/><path fill="#FFF" d="M130.08 136.447c-1.783-3.565-25.68-44.34-27.882-47.8-2.202-3.459-6.08-9.274-7.412-9.274-1.332 0-5.205 5.815-7.407 9.274-2.202 3.46-26.105 44.235-27.882 47.8-1.783 3.56 1.995 10.48 8.702 5.974 3.337-2.244 9.932-6.77 15.72-10.75v94.975h21.728v-94.98c5.794 3.985 12.394 8.511 15.731 10.755 6.707 4.505 10.48-2.414 8.702-5.974z"/></svg>