<svg class="svgOrigin" xmlns="http://www.w3.org/2000/svg" width="400" height="400"><circle fill="red" cx="200" cy="200" r="197"/><circle transform="rotate(-45 200 200)" fill="none" stroke="#FFF" stroke-width="5.629" cx="200" cy="200" r="188.557"/><path fill="#FFF" d="M329.413 200c0-71.473-57.945-129.413-129.413-129.413-71.473 0-129.419 57.94-129.419 129.413 0 71.479 57.946 129.413 129.419 129.413 71.468 0 129.413-57.934 129.413-129.413z"/><path fill="none" stroke="#0334A6" stroke-width="16.886" stroke-linejoin="round" d="M220.986 147.518c0-13.456 10.911-24.367 24.366-24.367 13.457 0 24.368 10.911 24.368 24.367v88.958c0 13.456-10.911 24.36-24.368 24.36-13.455 0-24.366-10.904-24.366-24.36v-88.958zM128.335 153.707c0-16.32 13.23-29.55 29.55-29.55s29.55 13.23 29.55 29.55-13.23 29.55-29.55 29.55v15.479c16.32 0 29.55 13.23 29.55 29.55s-13.23 29.55-29.55 29.55-29.55-13.23-29.55-29.55v-8.443"/><path fill="#0334A6" d="M296.79 285.87H103.204a130.308 130.308 0 0018.144 16.879h157.298a130.305 130.305 0 0018.144-16.88z"/></svg>