<svg class="svgOrigin" xmlns="http://www.w3.org/2000/svg" width="400" height="400"><path fill="#0334A6" d="M61.261 370.915c0 14.42 11.803 26.228 26.228 26.228H312.51c14.428 0 26.227-11.808 26.227-26.228V29.085c0-14.424-11.799-26.228-26.227-26.228H87.489c-14.425 0-26.228 11.804-26.228 26.228v341.83z"/><path fill="none" stroke="#FFF" stroke-width="4.371" d="M312.51 390.577H87.486c-10.839 0-19.663-8.82-19.663-19.662V29.081c0-10.843 8.824-19.666 19.663-19.666H312.51c10.851 0 19.67 8.823 19.67 19.666v341.834c0 10.843-8.819 19.662-19.67 19.662h0z"/><path fill="#FFF" d="M298.816 376.132H101.175c-9.52 0-17.268-7.752-17.268-17.272V41.136c0-9.524 7.748-17.272 17.268-17.272h197.641c9.536 0 17.28 7.748 17.28 17.272V358.86c0 9.52-7.744 17.272-17.28 17.272z"/><path fill="red" d="M303.964 127.717c0 54.795-44.413 99.21-99.208 99.21-54.796 0-99.214-44.415-99.214-99.21s44.418-99.212 99.214-99.212c54.795 0 99.208 44.417 99.208 99.212z"/><path fill="#FFF" d="M276.302 127.717c0-39.512-32.033-71.546-71.546-71.546-16.744 0-32.108 5.797-44.296 15.432l105.23 93.462c6.685-10.881 10.612-23.64 10.612-37.348zM133.208 127.717c0 39.513 32.034 71.546 71.548 71.546 16.324 0 31.316-5.528 43.354-14.732L143.214 91.363c-6.317 10.664-10.006 23.065-10.006 36.354z"/></svg>