<svg class="svgOrigin" xmlns="http://www.w3.org/2000/svg" width="400" height="400"><circle fill="red" cx="200" cy="200" r="197"/><circle transform="rotate(-45 200 200)" fill="none" stroke="#FFF" stroke-width="5.629" cx="200" cy="200" r="188.557"/><path fill="#FFF" d="M70.592 200c0 71.468 57.938 129.402 129.408 129.402 30.66 0 58.814-10.685 80.987-28.505L99.11 119.002C81.283 141.175 70.592 169.329 70.592 200zM329.402 200c0-71.473-57.934-129.413-129.402-129.413-30.663 0-58.82 10.69-80.993 28.517l181.89 181.883c17.82-22.172 28.505-50.327 28.505-80.987z"/><path fill="none" stroke="#FFF" stroke-width="5.629" d="M261.815 206.156c-4.045 0-7.904.797-11.444 2.199-3.2-6.975-4.222-13.382-4.222-18.859V172.17c0-3.166-4.045-5.189-13.543-5.189h-5.013s-11.103-10.54-14.95-14.687c-4.574-4.924-7.248-9.022-7.248-12.012s4.795-2.88 5.236-5.607l.44-2.726v-6.772c0-1.231 3.418.118 3.418-2.432s-4.65-8.707-12.926-8.707c-8.272 0-13.307 4.692-13.307 12.958 0 8.267 3.642 7.138 3.642 10.392v3.254s-4.582 1.011-9.243 8.047c-4.66 7.036-13.632 21.723-13.632 29.813 0 8.092 4.662 8.531 4.662 11.698 0 3.166-6.42 3.517-7.74 3.517-1.319 0-1.934-2.638-9.498-2.638h-28.23c-2.99 0-3.343 2.463-3.343 4.661 0 2.199 3.166 2.287 3.166 5.893v5.056c-14.505 2.656-25.504 15.33-25.515 30.606.011 17.2 13.948 31.133 31.15 31.133 15.22 0 27.867-10.933 30.572-25.378h46.186c5.485 0 6.156-4.25.318-7.426-3.848-2.095-11.122-5.161-11.122-8.224 0-3.066 11.452-24.355 16.608-24.355h18.392c1.176 0 4.343 4.184 8.036 9.724-7.289 5.7-11.994 14.555-12.005 24.532.01 17.193 13.95 31.127 31.155 31.138 17.183-.011 31.133-13.945 31.133-31.138 0-17.2-13.95-31.145-31.133-31.145zm-128.14 11.252c6.727.017 12.645 3.38 16.24 8.498h-13c-2.848 0-10.68 9.377-13.882 9.377h-9.048c1.04-10.02 9.397-17.853 19.69-17.875zm0 39.768c-8.966-.016-16.447-5.975-18.94-14.126h37.853c-2.486 8.151-9.96 14.11-18.913 14.126zm128.14-.005c-10.982-.01-19.876-8.904-19.886-19.87.01-5.987 2.704-11.28 6.882-14.924a713.816 713.816 0 017.706 12.835c-.253.648-.418 1.347-.418 2.083 0 3.16 2.55 5.717 5.706 5.717a5.714 5.714 0 100-11.428c-.056 0-.11.038-.176.038-2.507-2.677-5.343-6.727-7.267-12.73 2.309-.934 4.815-1.479 7.453-1.484 10.972.022 19.854 8.905 19.876 19.893-.022 10.966-8.904 19.86-19.876 19.87z"/><path fill="none" stroke="#FFF" stroke-width="5.629" d="M223.316 232.337c-9.343 0-18.858-7.283-18.858-11.554 0-4.265 4.59-8.443 11.724-8.443s13.577 7.52 14.742 11.268c1.407 4.486 1.055 8.729-7.608 8.729z"/><path fill="#0334A6" d="M261.815 206.156c-4.045 0-7.904.797-11.444 2.199-3.2-6.975-4.222-13.382-4.222-18.859V172.17c0-3.166-4.045-5.189-13.543-5.189h-5.013s-11.103-10.54-14.95-14.687c-4.574-4.924-7.248-9.022-7.248-12.012s4.795-2.88 5.236-5.607l.44-2.726v-6.772c0-1.231 3.418.118 3.418-2.432s-4.65-8.707-12.926-8.707c-8.272 0-13.307 4.692-13.307 12.958 0 8.267 3.642 7.138 3.642 10.392v3.254s-4.582 1.011-9.243 8.047c-4.66 7.036-13.632 21.723-13.632 29.813 0 8.092 4.662 8.531 4.662 11.698 0 3.166-6.42 3.517-7.74 3.517-1.319 0-1.934-2.638-9.498-2.638h-28.23c-2.99 0-3.343 2.463-3.343 4.661 0 2.199 3.166 2.287 3.166 5.893v5.056c-14.505 2.656-25.504 15.33-25.515 30.606.011 17.2 13.948 31.133 31.15 31.133 15.22 0 27.867-10.933 30.572-25.378h46.186c5.485 0 6.156-4.25.318-7.426-3.848-2.095-11.122-5.161-11.122-8.224 0-3.066 11.452-24.355 16.608-24.355h18.392c1.176 0 4.343 4.184 8.036 9.724-7.289 5.7-11.994 14.555-12.005 24.532.01 17.193 13.95 31.127 31.155 31.138 17.183-.011 31.133-13.945 31.133-31.138 0-17.2-13.95-31.145-31.133-31.145zm-128.14 11.252c6.727.017 12.645 3.38 16.24 8.498h-13c-2.848 0-10.68 9.377-13.882 9.377h-9.048c1.04-10.02 9.397-17.853 19.69-17.875zm0 39.768c-8.966-.016-16.447-5.975-18.94-14.126h37.853c-2.486 8.151-9.96 14.11-18.913 14.126zm128.14-.005c-10.982-.01-19.876-8.904-19.886-19.87.01-5.987 2.704-11.28 6.882-14.924a713.816 713.816 0 017.706 12.835c-.253.648-.418 1.347-.418 2.083 0 3.16 2.55 5.717 5.706 5.717a5.714 5.714 0 100-11.428c-.056 0-.11.038-.176.038-2.507-2.677-5.343-6.727-7.267-12.73 2.309-.934 4.815-1.479 7.453-1.484 10.972.022 19.854 8.905 19.876 19.893-.022 10.966-8.904 19.86-19.876 19.87z"/><path fill="#0334A6" d="M223.316 232.337c-9.343 0-18.858-7.283-18.858-11.554 0-4.265 4.59-8.443 11.724-8.443s13.577 7.52 14.742 11.268c1.407 4.486 1.055 8.729-7.608 8.729z"/><path fill="#FFF" d="M189.817 217.441c0 3.98-2.36 5.453-6.34 5.453s-5.159-2.947-5.159-4.568c0-1.622 2.95-5.601 7.81-5.601 1.622 0 3.69.066 3.69 4.716zM225.45 169.782c2.451 0 4.474.289 5.189.289.725 0 1.45 1.44 1.45 2.306 0 .865 3.596 2.448 3.596 4.611s-1.012 3.895-5.904 3.895h-10.093c-1.878 0-4.473 5.046-10.234 5.046-5.768 0-15.86-5.766-15.86-9.226 0-3.46 6.483-11.97 7.494-13.987 1.012-2.017 5.475-3.894 8.07-.865 2.594 3.028 9.52 7.931 16.291 7.931z"/><path fill="#0334A6" d="M249.14 184.22c0-2.463 5.98-7.124 11.17-7.124 5.188 0 6.42 3.517 6.42 8.443 0 4.924-1.408 8.09-6.333 8.09-4.925 0-11.257-5.364-11.257-9.41z"/></svg>