<svg class="svgOrigin" xmlns="http://www.w3.org/2000/svg" width="400" height="400"><path fill="#0334A6" d="M396.994 200c0 108.8-88.2 197-196.989 197-108.8 0-197-88.2-197-197s88.2-197 197-197c108.79 0 196.99 88.2 196.99 197z"/><path fill="none" stroke="#FFF" stroke-width="5.629" d="M388.552 200c0 104.134-84.418 188.558-188.547 188.558-104.14 0-188.557-84.424-188.557-188.558 0-104.14 84.418-188.557 188.557-188.557 104.129 0 188.547 84.417 188.547 188.557z"/><path fill="#FFF" d="M119.892 174.127c-2.598 1.693-3.21 1.039-1.366-1.45l29.38-39.626c1.843-2.49 3.352-1.99 3.352 1.105v6.09c0 3.095.253 5.629.56 5.629.309 0 2.48-1.655 4.827-3.672l55.805-48.046c2.353-2.018 4.265-1.138 4.265 1.956v13.918c0 3.095 2.133 4.26 4.738 2.589l70.39-45.111c2.606-1.671 4.739-.506 4.739 2.589v32.941c0 3.095-2.111 7.025-4.694 8.734l-75.233 49.734c-2.578 1.71-4.694.572-4.694-2.523V133.32c0-3.094-2.111-4.227-4.689-2.517L155.11 165.42c-2.578 1.71-4.69.578-4.69-2.517v-3.012c0-3.095-2.12-4.249-4.718-2.556l-25.81 16.792zM32.698 200c0 14.308 9.026 26.143 17.114 33.134 6.041 5.221 14.036 4.04 14.036-1.501v-10.136c0-7.871 5.82-8.898 8.217-6.502l6.844 6.843c4.281 4.282 10.611 5.821 10.611 2.396v-48.469c0-3.424-6.33-1.885-10.611 2.397l-6.844 6.843c-2.396 2.397-8.217 1.369-8.217-6.503v-10.135c0-5.54-7.995-6.722-14.036-1.5-8.088 6.99-17.114 18.825-17.114 33.133zM119.892 225.873c-2.598-1.693-3.21-1.039-1.366 1.451l29.38 39.625c1.843 2.49 3.352 1.99 3.352-1.104v-6.091c0-3.095.253-5.628.56-5.628.309 0 2.48 1.654 4.827 3.67l55.805 48.048c2.353 2.017 4.265 1.137 4.265-1.957V289.97c0-3.095 2.133-4.261 4.738-2.59l70.39 45.111c2.606 1.671 4.739.506 4.739-2.589v-32.941c0-3.095-2.111-7.025-4.694-8.734l-75.233-49.734c-2.578-1.71-4.694-.571-4.694 2.523v25.664c0 3.094-2.111 4.227-4.689 2.517L155.11 234.58c-2.578-1.709-4.69-.577-4.69 2.518v3.012c0 3.095-2.12 4.25-4.718 2.556l-25.81-16.792z"/></svg>