<svg class="svgOrigin" xmlns="http://www.w3.org/2000/svg" width="400" height="400"><circle fill="#0334A6" cx="200.001" cy="200" r="198.334"/><circle fill="none" stroke="#FFF" stroke-width="5.667" cx="200.001" cy="200" r="189.834"/><path fill="#FFF" d="M216.357 117.977c-11.619-10.47-26.355-16.375-41.324-16.447H100.28v223.724h28.322v-101.57h46.43c14.969-.06 29.705-5.964 41.324-16.435 11.577-10.403 19.933-26.147 19.877-44.642.056-18.494-8.3-34.226-19.877-44.63zm-19.04 68.288c-6.38 5.871-15.168 9.158-22.284 9.092h-46.43v-65.493c14.992 0 37.67-.006 46.43 0 7.116-.072 15.904 3.232 22.285 9.092 6.413 5.916 10.54 13.635 10.594 23.651-.055 10.028-4.18 17.748-10.594 23.658zM189 64.614h-13.735a2.83 2.83 0 00-2.828 2.827 2.839 2.839 0 002.828 2.84H189a2.843 2.843 0 002.833-2.84A2.834 2.834 0 00189 64.614zM158.37 65.178c2.69-2.479 4.278-6.386 4.283-10.53-.01-6.835-4.266-13.077-10.79-13.215-6.536.138-10.792 6.38-10.802 13.215.005 4.144 1.593 8.051 4.288 10.53-3.508 2.845-5.561 7.698-5.617 12.574.028 7.442 5.014 14.05 12.13 14.144 7.106-.094 12.092-6.702 12.12-14.144-.056-4.876-2.109-9.73-5.612-12.574zm-6.508-18.532c2.507 0 5.568 3.104 5.568 8.002 0 4.891-3.06 8.001-5.568 8.001-2.517 0-5.578-3.11-5.578-8.001 0-4.898 3.06-8.002 5.578-8.002zm0 40.037c-3.403-.011-6.89-3.636-6.9-8.931-.017-2.618.896-5.252 2.268-7.095 1.373-1.843 3.039-2.79 4.605-2.79h.027c1.56-.01 3.238.936 4.621 2.79 1.372 1.843 2.286 4.477 2.269 7.095-.01 5.295-3.497 8.92-6.89 8.931zM206.152 74.702c-3.765 4.737-5.78 9.33-5.862 13.032.016.997.143 2.048.818 3.138.625 1.068 2.092 1.876 3.337 1.876.05 0 .106 0 .156-.005h16.858a2.825 2.825 0 002.822-2.828 2.825 2.825 0 00-2.822-2.828c0-.011-10.957-.011-15.45-.005.265-1.793 1.749-5.452 4.538-8.805 4.781-6.309 13.425-10.935 14.576-18.91.055-.962.133-2.003.133-3.137-.023-2.844-.332-6.098-2.015-9.01-1.627-2.96-5.135-5.173-9.585-5.08-5.267-.055-8.63 3.304-10.074 6.182-1.527 2.9-1.766 5.529-1.799 5.728a2.816 2.816 0 002.535 3.104c1.558.166 2.942-.974 3.108-2.534h-.012c-.01-.012.2-1.86 1.162-3.636 1.063-1.81 2.225-3.121 5.08-3.182 2.911.094 3.797.913 4.694 2.285.874 1.417 1.261 3.797 1.239 6.143 0 .908-.056 1.82-.11 2.723.265 3.005-7.494 8.96-13.327 15.75zM243.938 93.058c4.648-.15 7.493-3.885 9.44-8.29 1.937-4.549 3.056-10.47 3.066-17.005-.01-6.553-1.129-12.474-3.065-17.023-1.948-4.405-4.793-8.123-9.442-8.29-4.67.167-7.514 3.885-9.45 8.29-1.949 4.55-3.055 10.47-3.067 17.023.012 6.535 1.118 12.456 3.066 17.005 1.937 4.405 4.782 8.14 9.452 8.29zm-4.239-40.065c1.56-3.73 3.553-5.036 4.238-4.881.676-.155 2.668 1.15 4.229 4.88 1.549 3.587 2.611 8.894 2.6 14.77.011 5.861-1.051 11.168-2.6 14.76-1.56 3.73-3.553 5.03-4.229 4.875-.685.155-2.677-1.145-4.238-4.875-1.56-3.592-2.623-8.899-2.612-14.76-.01-5.876 1.052-11.183 2.612-14.77zM224.37 267.425c-1.583.022-3.099.232-4.571.542a.12.12 0 01.022-.06c4.184-10.244 9.706-22.64 14.576-30.593 1.627-2.66.787-6.159-1.881-7.774a5.651 5.651 0 00-7.78 1.87c-10.802 17.742-22.294 50.054-22.67 51.023-2.336 4.67-3.658 10.06-3.669 15.682.027 16.11 10.644 30.46 25.973 30.702 15.33-.243 25.942-14.592 25.965-30.702-.023-16.114-10.636-30.468-25.965-30.69zm9.961 44.824c-2.845 3.442-6.298 5.219-9.96 5.235-3.664-.016-7.129-1.793-9.962-5.235-2.789-3.437-4.692-8.467-4.682-14.134-.01-5.666 1.893-10.702 4.682-14.138 2.833-3.448 6.298-5.22 9.961-5.23 3.663.01 7.116 1.782 9.961 5.23 2.79 3.436 4.671 8.472 4.671 14.138 0 5.667-1.882 10.697-4.67 14.134zM275.37 229.64c-13.038 0-23.607 10.575-23.618 23.618v50.049c.01 13.037 10.58 23.612 23.618 23.612 13.038 0 23.607-10.575 23.62-23.612v-50.05c-.013-13.042-10.582-23.617-23.62-23.617zm12.275 73.667c-.012 6.784-5.49 12.268-12.275 12.279a12.279 12.279 0 01-12.274-12.28v-50.048c.011-6.784 5.478-12.275 12.274-12.285 6.784.01 12.263 5.5 12.275 12.285v50.049zM340.714 194.173c-.642-.437-2.479-4.604-3.64-8.422-1.351-4.035-2.104-7.333-3.178-9.27-2.877-3.425-6.663-3.62-9.02-3.984a2.838 2.838 0 00-2.844 2.833 2.842 2.842 0 002.844 2.839c.012-.039 1.394.2 2.49.592.565.205 1.118.426 1.473.631.133.072.232.144.299.188.033.1.1.271.199.537 1.472 3.675 3.586 13.962 7.415 18.101a2.788 2.788 0 001.981.808c.73 0 1.472-.288 2.026-.852a2.825 2.825 0 00-.045-4.001zM333.786 198.794H317.13c-.233 0-.443.077-.664.132 1.56-4.194 5.92-10.796 5.91-10.807a2.839 2.839 0 00-.774-3.935 2.83 2.83 0 00-3.93.78h-.01c-.045.133-5.258 7.698-6.984 13.31a2.81 2.81 0 001.892 3.53c.277.083.553.122.819.122.332 0 .61-.189.908-.299a2.835 2.835 0 002.833 2.833h1.716c-1.185 4.007-3.565 10.94-7.45 17.863a2.843 2.843 0 001.085 3.868 2.8 2.8 0 001.384.36 2.83 2.83 0 002.479-1.45c4.715-8.444 7.338-16.8 8.4-20.641h6.807c-.233 2.729-1.317 7.775-2.213 11.345-1.251 5.146-5.158 11.698-5.136 11.71-.807 1.35-.365 3.098.974 3.89a2.838 2.838 0 003.896-.974c.044-.127 4.139-6.857 5.778-13.276 1.029-4.316 2.378-10.093 2.412-13.713-.011-.725-.034-1.378-.287-2.22-.122-.713-1.274-2.445-3.188-2.428z"/></svg>