<svg class="svgOrigin" xmlns="http://www.w3.org/2000/svg" width="400" height="400"><circle fill="red" cx="200.001" cy="200" r="197.5"/><path fill="none" stroke="#FFF" stroke-width="11.286" d="M297.294 165.925s-61.256-38.128-66.083-40.786c-5.82-3.216-16.653 3.006-10.636 11.437 2.954 4.138 9.677 12.33 15.76 19.607H105v28.211h40.048c-9.701 13.319-15.055 30.71-15.005 50.752v47.998h28.217v-47.998c.058-18.338 5.436-30.511 13.123-38.441 7.732-7.883 18.502-12.256 32.125-12.303v-.008h32.84c-6.084 7.277-12.818 15.477-15.772 19.618-6.017 8.431 4.817 14.647 10.636 11.44 4.827-2.656 66.083-40.784 66.083-40.784s5.169-3.2 5.169-4.375c0-1.166-5.17-4.368-5.17-4.368z"/><path fill="none" stroke="#FFF" stroke-width="5.643" d="M389.034 200c0 104.398-84.632 189.036-189.033 189.036-104.4 0-189.035-84.638-189.035-189.036C10.966 95.596 95.6 10.964 200 10.964c104.401 0 189.033 84.632 189.033 189.036z"/><path fill="#FFF" d="M70.266 200c0 71.648 58.084 129.73 129.736 129.73 30.746 0 58.972-10.712 81.201-28.578L98.855 118.796c-17.871 22.23-28.59 50.455-28.59 81.204zM329.74 200c0-71.654-58.08-129.742-129.739-129.742-30.74 0-58.968 10.719-81.198 28.59L301.15 281.192c17.877-22.23 28.59-50.455 28.59-81.193z"/><path fill="#0334A6" d="M297.294 165.925s-61.256-38.128-66.083-40.786c-5.82-3.216-16.653 3.006-10.636 11.437 2.954 4.138 9.677 12.33 15.76 19.607H105v28.211h40.048c-9.701 13.319-15.055 30.71-15.005 50.752v47.998h28.217v-47.998c.058-18.338 5.436-30.511 13.123-38.441 7.732-7.883 18.502-12.256 32.125-12.303v-.008h32.84c-6.084 7.277-12.818 15.477-15.772 19.618-6.017 8.431 4.817 14.647 10.636 11.44 4.827-2.656 66.083-40.784 66.083-40.784s5.169-3.2 5.169-4.375c0-1.166-5.17-4.368-5.17-4.368z"/></svg>