<svg class="svgOrigin" xmlns="http://www.w3.org/2000/svg" width="400" height="400"><circle fill="red" cx="200" cy="200" r="197.666"/><ellipse transform="rotate(-45 200 200)" fill="none" stroke="#FFF" stroke-width="5.648" cx="200" cy="200" rx="189.194" ry="189.195"/><path fill="#FFF" d="M329.85 200c0-71.715-58.141-129.85-129.85-129.85-71.715 0-129.856 58.135-129.856 129.85 0 71.72 58.141 129.85 129.856 129.85 71.709 0 129.85-58.13 129.85-129.85z"/><path fill="#0334A6" d="M261.49 144.66c-7.16-.143-8.516-4.335-8.803-7.197v-26.766h8.488a5.65 5.65 0 000-11.3h-8.483c0-6.492.006-11.207.011-11.224a5.653 5.653 0 00-5.658-5.648 5.644 5.644 0 00-5.648 5.648v11.224h-9.11a5.646 5.646 0 00-5.648 5.653 5.644 5.644 0 005.647 5.647h9.111v26.766c.011 4.136 1.5 8.598 4.87 12.293 3.31 3.663 8.62 6.183 15.002 6.183h.22c3.11 0 5.648-2.526 5.648-5.637a5.647 5.647 0 00-5.648-5.642zM164.56 277.004c-7.59 0-15.604-3.023-21.764-9.399-6.177-6.364-9.994-15.938-9.933-27.438h19.756c.457 14.483 7.252 16.602 11.94 17.075a10.156 10.156 0 007.252-3.077c2.03-2.14 4-5.664 4.043-12.636v-31.21c.144-.943-1.097-6.028-3.435-9.227-2.5-3.43-4.744-4.936-7.86-4.969-8.234.01-12.128 3.783-12.437 4.026l-.005-.005-.006-.006a9.846 9.846 0 01-10.7 2.383 9.885 9.885 0 01-6.32-9.216v-67.402c0-2.603 1.065-5.146 2.901-7a10.005 10.005 0 016.988-2.883h49.433v19.772h-39.55v41.64c2.88-.662 6.111-1.076 9.696-1.081 11.323-.022 19.668 6.817 24.168 13.573 4.633 6.998 6.761 13.948 6.905 20.395v31.21c.044 11.01-3.607 20.286-9.674 26.447a29.92 29.92 0 01-21.35 9.028h-.049zm-12.443-76.86l.005.005c-.005 0-.005-.005-.005-.005zM241.298 274.313c-5.808 0-11.935-1.953-16.656-6.062-4.727-4.104-7.65-10.274-7.6-17.687h15.123c.348 9.337 5.543 10.7 9.133 11.008 1.914-.01 3.982-.618 5.554-1.985 1.55-1.379 3.061-3.651 3.094-8.147v-20.119c.105-.612-.839-3.888-2.626-5.95-1.913-2.213-3.634-3.184-6.022-3.205-6.293.005-9.277 2.438-9.514 2.598l-.006-.006h-.005c-2.112 1.858-5.328 2.466-8.18 1.533-2.922-.954-4.841-3.309-4.841-5.94v-43.454c0-1.677.81-3.315 2.217-4.512 1.406-1.175 3.353-1.859 5.35-1.859h37.828v12.747h-30.261v26.842c2.2-.425 4.67-.69 7.412-.695 8.67-.017 15.052 4.395 18.498 8.753 3.552 4.512 5.179 8.99 5.289 13.148v20.12c.033 7.098-2.763 13.077-7.406 17.047-4.616 3.971-10.65 5.825-16.342 5.825h-.04zm-9.52-49.555l.006.006c-.006 0-.006-.006-.006-.006zM212.497 283.203a2.83 2.83 0 01-2.823 2.823h-7.606a2.829 2.829 0 01-2.823-2.823v-4.29a2.83 2.83 0 012.823-2.825h7.606a2.83 2.83 0 012.823 2.824v4.291z"/></svg>