<svg class="svgOrigin" xmlns="http://www.w3.org/2000/svg" width="400" height="400"><path fill="#0334A6" d="M396.994 200c0 108.8-88.2 197-196.989 197-108.8 0-197-88.2-197-197s88.2-197 197-197c108.79 0 196.99 88.2 196.99 197z"/><path fill="none" stroke="#FFF" stroke-width="5.629" d="M388.552 200c0 104.134-84.418 188.558-188.547 188.558-104.14 0-188.557-84.424-188.557-188.558 0-104.14 84.418-188.557 188.557-188.557 104.129 0 188.547 84.417 188.547 188.557z"/><path fill="#FFF" d="M152.954 198.527c-4.538-10.268-37.16-68.202-50.937-89.557-3.076-4.777-6.245-9.18-10.482-9.18-4.239 0-7.407 4.403-10.483 9.18-13.777 21.355-46.4 79.29-50.934 89.557-5.55 12.55 4.342 20.997 21.241 9.888 7.756-5.095 16.837-11.345 24.411-16.632v126.131h33.771v-124.57c7.083 4.93 15.166 10.47 22.169 15.071 16.899 11.11 26.793 2.661 21.244-9.888zM235.894 148.568c10.267-4.535 68.202-37.157 89.55-50.938 4.783-3.072 9.18-6.244 9.18-10.482 0-4.238-4.397-7.404-9.18-10.482-21.348-13.774-79.283-46.397-89.55-50.932-12.555-5.551-20.999 4.343-9.895 21.24 5.1 7.755 11.345 16.836 16.633 24.41h-126.13v33.771h124.57c-4.927 7.086-10.467 15.166-15.073 22.168-11.104 16.903-2.66 26.797 9.895 21.245z"/><g fill="#FFF"><path d="M206.041 280.928c1.478 0 2.935-.61 3.984-1.656a5.675 5.675 0 001.65-3.973v-33.805a5.683 5.683 0 00-1.65-3.973 5.685 5.685 0 00-3.984-1.656h-18.82v-6.821h30.093a5.624 5.624 0 005.63-5.623 5.627 5.627 0 00-5.63-5.634h-81.463a5.65 5.65 0 00-3.977 1.654 5.614 5.614 0 00-1.646 3.98v66.988c.083 2.781-1.811 8.003-3.977 12.026-2.119 4.085-4.227 7.058-4.215 7.069a5.638 5.638 0 001.362 7.85 5.597 5.597 0 003.233 1.022c1.772 0 3.52-.836 4.614-2.397.096-.522 9.861-13.104 10.24-25.57v-61.365h34.47v6.821h-20.37a5.672 5.672 0 00-3.988 1.656 5.673 5.673 0 00-1.644 3.973v17.001c0 .006-.003.012-.003.017 0 .006.003.01.003.016v16.77c0 1.48.605 2.925 1.644 3.974a5.693 5.693 0 003.988 1.656h21.081v23.542c-2.454.604-8.486 1.033-11.388.868a5.635 5.635 0 000 11.268c2.523-.011 6.986.011 11.257-.649 2.154-.368 4.287-.83 6.464-1.968 2.047-.978 4.947-3.716 4.925-7.618v-25.443h18.117zm-24.488-33.805c.011 0 .017.005.028.005.01 0 .016-.005.027-.005h18.804v5.766h-39.2v-5.766h20.341zm-20.34 17.018h39.2v5.518h-39.2v-5.518z"/><path d="M168.938 287.21a5.635 5.635 0 00-7.918-.808l-20.915 17.012a5.62 5.62 0 00-.818 7.915 5.64 5.64 0 007.92.82l20.915-17.007a5.65 5.65 0 00.816-7.932zM209.817 284.918c-2.078-2.298-5.645-2.463-7.95-.38a5.63 5.63 0 00-.369 7.954l13.397 14.72a5.606 5.606 0 004.167 1.848 5.6 5.6 0 003.788-1.468 5.646 5.646 0 00.378-7.954l-13.41-14.72zM273.82 217.265a5.631 5.631 0 00-7.58 2.435l-23.345 45.485a5.62 5.62 0 002.436 7.569 5.617 5.617 0 002.566.626 5.64 5.64 0 005.014-3.062l1.858-3.616v47.733a5.63 5.63 0 1011.256 0v-69.67l10.23-19.92a5.622 5.622 0 00-2.435-7.58zM335.24 239.581h-8.861v-20.524a5.634 5.634 0 00-5.629-5.634 5.63 5.63 0 00-5.628 5.634v20.524h-31.799a5.63 5.63 0 00-5.628 5.635c0 3.1 2.523 5.628 5.628 5.628h31.8v51.922c-.062 1.203-.265 1.539-1.232 2.462-1.435 1.325-4.986 2.556-8.114 3.04-3.122.543-5.551.51-5.551.533a5.635 5.635 0 000 11.268c.286-.022 5.744.016 11.807-1.676 3.028-.88 6.282-2.171 9.157-4.596 2.891-2.357 5.255-6.403 5.189-11.031v-51.922h8.86a5.632 5.632 0 000-11.263z"/><path d="M299.82 289.08c1.043 0 2.099-.298 3.044-.908a5.62 5.62 0 001.694-7.773l-10.873-16.902a5.616 5.616 0 00-7.772-1.692 5.633 5.633 0 00-1.693 7.783l10.872 16.896a5.598 5.598 0 004.727 2.595z"/></g></svg>