<svg class="svgOrigin" xmlns="http://www.w3.org/2000/svg" width="400" height="400"><circle fill="red" cx="200" cy="200" r="196.518"/><path fill="none" stroke="#FFF" stroke-width="11.171" d="M311.6 191.534v33.415c0 4.009-2.225 4.898-6.24 4.898H94.135c-5.013 0-5.29-.638-5.29-9.355v-33.856c0-4.904 24.056-24.06 31.185-24.06h171.52c5.793 0 20.05 20.057 20.05 28.958z"/><circle fill="none" stroke="#FFF" stroke-width="5.615" cx="200" cy="200" r="188.096"/><path fill="#FFF" d="M70.91 200c0 71.292 57.793 129.082 129.09 129.082 30.59 0 58.675-10.658 80.794-28.434L99.355 119.202C81.573 141.319 70.909 169.405 70.909 200zM329.088 200c0-71.297-57.791-129.094-129.088-129.094-30.59 0-58.678 10.664-80.796 28.446l181.444 181.436c17.782-22.118 28.44-50.204 28.44-80.788z"/><path fill="#0334A6" d="M311.6 191.534v33.415c0 4.009-2.225 4.898-6.24 4.898H94.135c-5.013 0-5.29-.638-5.29-9.355v-33.856c0-4.904 24.056-24.06 31.185-24.06h171.52c5.793 0 20.05 20.057 20.05 28.958z"/><path fill="#FFF" d="M153.628 184.378a1.01 1.01 0 01-1.006 1.01h-20.474c-.554 0-1.01-.453-1.01-1.01v-12.333c0-.55.456-1.003 1.01-1.003h20.474c.553 0 1.006.453 1.006 1.003v12.333zM123.955 184.378a1.01 1.01 0 01-1.006 1.01h-20.474a1.012 1.012 0 01-1.009-1.01v-2.607c0-.557.37-1.271.824-1.587l12.125-8.564c.453-.317 1.276-.578 1.83-.578h6.704c.553 0 1.006.453 1.006 1.003v12.333zM281.982 184.378c0 .557.453 1.01 1.004 1.01h15.508c.55 0 1.009-.453 1.009-1.01v-2.607c0-.557-.306-1.342-.677-1.757l-7.452-8.225c-.37-.414-1.128-.747-1.68-.747h-6.708c-.55 0-1.004.453-1.004 1.003v12.333zM183.298 184.378a1.01 1.01 0 01-1.006 1.01h-20.474c-.553 0-1.01-.453-1.01-1.01v-12.333c0-.55.457-1.003 1.01-1.003h20.474c.554 0 1.006.453 1.006 1.003v12.333zM212.97 184.378c0 .557-.457 1.01-1.003 1.01H191.49c-.554 0-1.01-.453-1.01-1.01v-12.333c0-.55.456-1.003 1.01-1.003h20.476c.546 0 1.004.453 1.004 1.003v12.333zM242.644 184.378c0 .557-.458 1.01-1.01 1.01h-20.47a1.015 1.015 0 01-1.015-1.01v-12.333c0-.55.458-1.003 1.015-1.003h20.47c.552 0 1.01.453 1.01 1.003v12.333zM272.317 184.378c0 .557-.458 1.01-1.014 1.01h-20.467a1.015 1.015 0 01-1.014-1.01v-12.333c0-.55.46-1.003 1.014-1.003h20.467c.556 0 1.014.453 1.014 1.003v12.333z"/><path fill="none" stroke="#FFF" stroke-width="5.585" d="M294.227 229.847c0 6.89-5.584 12.48-12.474 12.48-6.895 0-12.48-5.59-12.48-12.48 0-6.888 5.585-12.48 12.48-12.48 6.89 0 12.474 5.592 12.474 12.48zM162.8 229.847c0 6.89-5.589 12.48-12.48 12.48-6.89 0-12.478-5.59-12.478-12.48 0-6.888 5.589-12.48 12.477-12.48 6.892 0 12.48 5.592 12.48 12.48z"/><path fill="#0334A6" d="M294.227 229.847c0 6.89-5.584 12.48-12.474 12.48-6.895 0-12.48-5.59-12.48-12.48 0-6.888 5.585-12.48 12.48-12.48 6.89 0 12.474 5.592 12.474 12.48zM162.8 229.847c0 6.89-5.589 12.48-12.48 12.48-6.89 0-12.478-5.59-12.478-12.48 0-6.888 5.589-12.48 12.477-12.48 6.892 0 12.48 5.592 12.48 12.48z"/></svg>