<svg class="svgOrigin" xmlns="http://www.w3.org/2000/svg" width="400" height="400"><path fill="#0334A6" d="M46.575 397.762c-18.693 0-26.226-11.217-26.226-23.18v-69.42s.383-24.135 5.353-32.08c5.05-8.066 140.199-236.729 150.962-254.377C187.426 1.057 200 2.255 200 2.255s12.574-1.198 23.337 16.45 145.911 246.31 150.96 254.377c4.97 7.945 5.353 32.08 5.353 32.08v69.42c0 11.963-7.532 23.18-26.225 23.18H46.575z"/><path fill="#FFF" d="M89.214 245.234c-.832 1.581-1.513 4.17-1.513 5.75 0 1.582 2.18 2.876 4.843 2.876h16.644c2.664 0 5.66-.749 6.659-1.665.998-.915 1.816-3.503 1.816-5.75s-2.18-4.086-4.843-4.086H95.57c-2.663 0-5.524 1.294-6.356 2.875zM311.264 245.234c.832 1.581 1.512 4.17 1.512 5.75 0 1.582-2.178 2.876-4.841 2.876h-16.647c-2.663 0-5.66-.749-6.657-1.665-.998-.915-1.816-3.503-1.816-5.75s2.18-4.086 4.842-4.086h17.251c2.663 0 5.523 1.294 6.356 2.875zM291.379 314.906c-1.498-1.747-2.724-5.151-2.724-7.566s2.179-4.39 4.842-4.39H316.5c2.663 0 6.035 1.822 7.494 4.05l.445.68c1.46 2.227 2.653 5.48 2.653 7.226 0 1.747-2.179 3.176-4.842 3.176h-23.305c-2.663 0-6.067-1.429-7.565-3.176zM106.016 314.906c1.498-1.747 2.723-5.151 2.723-7.566s-2.179-4.39-4.842-4.39h-23c-2.664 0-6.037 1.822-7.496 4.05l-.445.68c-1.458 2.227-2.652 5.48-2.652 7.226 0 1.747 2.179 3.176 4.842 3.176H98.45c2.663 0 6.068-1.429 7.566-3.176zM180.295 73.065c-17.936-.095-9.94 9.122-15.879 10.039-2.852.44-5.944 5.3-1.314 5.273 7.32-.048 2.217 7.079 4.194 8.615 1.976 1.537 1.84 8.342-1.674 11.416-3.514 3.073-14.499 5.485-23.062 17.35-8.564 11.864-16.036 20.428-16.693 23.941-.658 3.514 0 17.35-2.634 21.303-2.634 3.954-2.856 7.467-1.977 8.787.88 1.319 4.388 6.591 4.611 8.786.222 2.194 2.639 8.128 6.592.88 3.953-7.25 6.147-13.837 6.147-21.086 0-7.25 9.448-21.966 11.642-23.502 2.195-1.537 5.713 2.86 3.296 12.082-2.416 9.22-5.49 16.692-5.49 20.645 0 3.954-.217 15.586 0 17.128.218 1.542 3.296 3.958.44 10.105-2.856 6.148-29.65 65.89-30.306 68.085-.658 2.194 14.498 19.544 18.668 20.424 4.171.88 1.76-6.592.44-9.666-1.319-3.073-5.055-5.268-.222-12.077 4.833-6.81 28.552-46.781 30.529-49.198 1.977-2.416 6.587 3.958 7.467 4.175.88.218 11.425 23.063 16.475 31.849 5.05 8.786 12.3 29.432 15.813 29.432s21.526.217 20.646-1.76-9.448-13.613-12.522-18.446c-3.074-4.834 1.102-10.324-1.315-15.157-2.416-4.832-12.96-32.283-14.498-36.675-1.537-4.394-1.75-8.569-3.291-10.106-1.542-1.537-6.152-3.291-6.152-12.957 0-9.665-.885-32.293.657-35.144 1.541-2.852 7.471 4.18 10.105 7.471 2.634 3.292 13.179 12.957 16.253 13.397 3.073.44 14.059 1.981 14.059-.875s-3.953-9.665-9.666-15.596c-5.712-5.93-19.109-13.836-22.622-22.182-3.514-8.346-2.417-14.494-6.37-19.984-3.953-5.49-12.938-7.561-13.378-10.635-.44-3.074 7.443-4.053 8.545-9.765 1.102-5.712 2.086-8.512 6.479-8.512s5.159-6.81 1.536-6.81c-3.693 0 .648-10.965-15.53-11.05z"/><path fill="none" stroke="#FFF" stroke-width="2.421" d="M353.43 385.665H46.575c-9.505 0-14.12-3.627-14.12-11.08v-69.423c.175-10.435 1.863-22.764 3.527-25.677 2.507-4.005 33.74-56.736 69.901-117.798 37.163-62.747 75.594-127.625 81.113-136.671 5.608-9.205 10.961-10.477 12.243-10.642l1.636.278.188-.229c1.623.3 6.668 1.949 11.946 10.593 5.518 9.046 43.944 73.924 81.112 136.67 36.161 61.063 67.395 113.794 69.92 117.823 1.645 2.89 3.334 15.218 3.509 25.852v69.225c0 7.452-4.615 11.079-14.12 11.079h0z"/><path fill="#FFF" d="M57.224 373.162c-2.61 0-4.747-1.815-4.747-4.028 0-2.223 1.14-5.841 2.534-8.049l4.89-7.727c1.394-2.204 4.672-4.01 7.282-4.01h261.752c2.61 0 5.892 1.806 7.287 4.01l4.884 7.727c1.4 2.208 2.54 5.826 2.54 8.049 0 2.213-2.137 4.028-4.748 4.028H57.224zM300.823 340.45c-22.782 0-41.317-18.532-41.317-41.311a41.31 41.31 0 0120.287-35.575c-4.382-11.747-7.917-22.86-10.466-31.26l-25.513 48.952a22.811 22.811 0 018.686 17.88c-.018 10.954-7.878 20.258-18.542 22.273v5.663a4.243 4.243 0 01-4.238 4.236 4.242 4.242 0 01-4.238-4.236v-5.663a22.59 22.59 0 01-18.042-18.037h-8.797c-2.135 20.923-19.843 37.077-41.047 37.077-22.784 0-41.319-18.531-41.319-41.31 0-22.785 18.535-41.322 41.32-41.322 3.197 0 6.428.392 9.63 1.163l13.194-37.476-6.321-11.05a3.878 3.878 0 01-.316-.71c-1.72-.2-3.418-.535-5.237-1.033-4.108-1.124-5.602-4.2-5.258-6.75.311-2.317 2.06-3.938 4.258-3.938.113 0 .23.007.347.015 1.55.12 4.087.846 7.026 1.685 3.693 1.057 8.293 2.37 10.865 2.37 3.087 0 3.476 1.652 3.5 2.361.077 2.288-3.682 4.226-5.996 4.99l4.281 7.49h77.134c-2.965-9.964-4.57-16.416-4.601-21.114-.097-3.79 1.437-7.136 4.105-8.913 1.944-1.345 4.052-1.971 6.285-2.63.456-.136.927-.275 1.41-.425 2.122-.725 2.263-1.153 2.324-1.758-.02-.494-.375-1.503-1.145-2.332-.597-.686-1.252-1.01-1.488-1.081-20.059.002-24.567.006-24.823.008-2.377.002-4.279-1.9-4.279-4.24a4.246 4.246 0 014.242-4.242c.023 0 19.812 0 24.893.01h.057l.054.005c5.832.372 10.64 5.577 10.947 11.853.138 4.53-3.227 8.496-8.375 9.903-2.007.59-4.545 1.335-5.194 1.827-.39.322-.481.4-.54 2.067-.038 3.439 1.78 10.834 6.081 24.689.207.681.486 1.617.83 2.78 2.067 6.972 6.29 21.217 12.043 36.699a40.902 40.902 0 0113.293-2.226c22.78.007 41.31 18.547 41.31 41.325 0 22.779-18.53 41.31-41.31 41.31zm-17.901-68.802c-9.244 6.042-14.917 16.39-14.937 27.495.033 18.072 14.763 32.801 32.84 32.826 18.07-.025 32.802-14.754 32.833-32.835-.031-18.07-14.763-32.806-32.84-32.841-3.477.006-6.912.57-10.237 1.676 4.717 11.85 9.382 21.589 13.868 28.971a4.26 4.26 0 01-1.43 5.82 4.257 4.257 0 01-2.192.612 4.268 4.268 0 01-3.627-2.036c-4.677-7.719-9.475-17.696-14.278-29.688zm-125.324-5.355c-18.077.037-32.81 14.772-32.841 32.85.032 18.066 14.764 32.794 32.844 32.826 16.471-.03 30.394-12.439 32.512-28.597h-32.517a4.25 4.25 0 01-3.463-1.789 4.273 4.273 0 01-.547-3.845l10.803-30.696a32.297 32.297 0 00-6.79-.749zm76.36 33.877v12.558c5.929-1.823 10.045-7.243 10.052-13.592a14.083 14.083 0 00-4.247-10.108l-5.805 11.142zm-17.837 3.202a14.194 14.194 0 009.361 9.355v-9.355h-9.36zm.005-8.472h6.288l-3.118-5.445a14.24 14.24 0 00-3.17 5.445zm-17.483 0h8.8a22.825 22.825 0 017.52-13.02l-28.99-50.672-10.747 30.548c13.146 6.192 21.95 18.654 23.417 33.144zm-35.076 0h26.548a32.758 32.758 0 00-17.734-25.062l-8.814 25.062zm28.848-69.497l29.876 52.222a22.394 22.394 0 013.191-.783v-1.324a4.244 4.244 0 014.238-4.239 4.244 4.244 0 014.238 4.239v1.33c.806.147 1.573.325 2.312.54l27.091-51.985h-70.946z"/><path fill="#0334A6" d="M246.734 172.024c.024 0 19.809 0 24.888.01 5.026.321 8.994 4.894 9.25 10.128.104 3.415-2.497 6.824-7.042 8.063-2.88.846-4.932 1.466-5.811 2.132-.804.663-1.173 1.027-1.258 3.453-.042 3.787 1.868 11.453 6.162 25.289 1.441 4.724 6.43 22.405 13.538 41.268 4.454-1.745 9.287-2.738 14.361-2.738 21.819.01 39.495 17.686 39.495 39.509 0 21.81-17.676 39.495-39.495 39.495-21.818 0-39.5-17.686-39.5-39.495 0-15.023 8.38-28.08 20.717-34.761-5.655-14.977-9.944-29.105-12.257-36.87l-28.297 54.29c5.542 3.774 9.189 10.13 9.198 17.34-.014 10.74-8.124 19.493-18.541 20.714v7.22a2.426 2.426 0 01-2.421 2.421 2.42 2.42 0 01-2.422-2.42v-7.221a20.846 20.846 0 01-18.3-18.296h-12.03c-1.253 20.678-18.376 37.078-39.372 37.078-21.819 0-39.504-17.686-39.504-39.495 0-21.823 17.685-39.504 39.504-39.504 3.745 0 7.353.554 10.786 1.527l14.026-39.84-6.734-11.77c-.265-.468-.317-.984-.255-1.48-1.85-.128-3.873-.42-6.394-1.111-5.465-1.495-4.613-7.12-1.48-7.12.068 0 .138.003.208.008 3.301.256 13.208 4.062 18.031 4.062 4.823 0-2.038 3.93-4.062 4.067-.45.028-.884.051-1.32.076l6.115 10.696h80.626c-3.495-11.576-5.197-18.3-5.225-22.94-.081-3.191 1.115-5.939 3.296-7.39 2.103-1.457 4.45-1.972 7.225-2.833 3.23-1.102 3.49-2.185 3.603-3.424.01-1.063-.62-2.548-1.63-3.636-.942-1.087-2.186-1.662-2.735-1.662-.02 0-.038 0-.056.002-5.088 0-24.864 0-24.888.01-1.352 0-2.425-1.083-2.425-2.426s1.073-2.426 2.425-2.426m-25.252 107.844c1.812-.78 3.784-1.215 5.817-1.451v-2.9a2.42 2.42 0 012.422-2.42 2.426 2.426 0 012.42 2.42v2.9c1.746.203 3.433.576 5.022 1.187l29.191-56.018h-77.07l32.198 56.282m-24.513 16.849h12.03c.69-5.897 3.769-11.027 8.313-14.39l-31.735-55.469-12.62 35.873c13.476 5.694 23.08 18.665 24.012 33.986m103.858 4.838a2.424 2.424 0 01-2.076-1.163c-5.532-9.132-10.578-20.34-14.934-31.414-10.516 5.954-17.624 17.212-17.647 30.16.033 19.133 15.52 34.62 34.652 34.648 19.133-.028 34.62-15.515 34.653-34.648-.034-19.137-15.52-34.624-34.653-34.661a34.485 34.485 0 00-12.616 2.425c4.313 11.004 9.292 22.098 14.692 30.983a2.434 2.434 0 01-.823 3.324 2.407 2.407 0 01-1.248.346m-143.23 32.231c18.315-.033 33.248-14.234 34.525-32.231h-34.525a2.427 2.427 0 01-1.981-1.022 2.438 2.438 0 01-.312-2.204l11.462-32.571c-2.922-.804-5.987-1.278-9.169-1.281-19.142.037-34.624 15.524-34.657 34.66.033 19.134 15.515 34.616 34.657 34.65m3.405-37.07h31.12c-.936-13.198-9.207-24.349-20.788-29.375l-10.332 29.375m71.14-7.476l2.756-5.287a16.296 16.296 0 00-2.756-.685v5.972m-4.843.794v-6.766c-1.168.18-2.298.458-3.371.875l3.37 5.891m4.844 24.968c7.74-1.192 13.675-7.798 13.684-15.865-.004-5.343-2.629-10.034-6.625-12.961l-7.06 13.548v15.278m-18.295-18.286h11.699l-5.803-10.139a16.033 16.033 0 00-5.896 10.139m13.453 18.286v-13.448h-13.453a16.07 16.07 0 0013.453 13.448m19.435-146.61a6.065 6.065 0 00-6.057 6.057 6.065 6.065 0 006.057 6.057h.066c.325-.005 4.833-.009 24.393-.009.131.083.31.217.474.405l.042.05.044.046c.225.243.395.523.507.758a9.58 9.58 0 01-.946.376c-.46.142-.906.274-1.341.403-2.365.7-4.599 1.362-6.8 2.879-3.163 2.123-4.988 6.025-4.885 10.453.034 4.511 1.419 10.446 3.986 19.25h-73.649l-2.724-4.766c2.565-1.204 5.29-3.24 5.198-5.958-.023-.688-.388-4.116-5.314-4.116-2.317 0-6.78-1.276-10.365-2.3-3.159-.903-5.653-1.617-7.385-1.75a6.371 6.371 0 00-.489-.02c-3.08 0-5.628 2.318-6.057 5.512-.434 3.225 1.44 7.338 6.58 8.743 1.55.425 3.02.737 4.488.952l5.874 10.268-12.383 35.176a42.596 42.596 0 00-8.45-.857c-23.786 0-43.137 19.35-43.137 43.136 0 23.78 19.351 43.127 43.136 43.127 21.583 0 39.697-16.029 42.654-37.079h5.731a24.386 24.386 0 0017.685 17.681v4.204a6.06 6.06 0 006.054 6.053 6.06 6.06 0 006.052-6.053v-4.205c10.756-2.722 18.527-12.41 18.541-23.723a24.627 24.627 0 00-8.215-18.338l22.793-43.733c2.3 7.406 5.217 16.343 8.681 25.726a43.124 43.124 0 00-19.883 36.34c0 23.78 19.35 43.127 43.132 43.127 23.78 0 43.127-19.347 43.127-43.127 0-23.778-19.346-43.13-43.125-43.14-4.129 0-8.216.599-12.193 1.784-5.428-14.794-9.416-28.253-11.404-34.962a415.425 415.425 0 00-.83-2.78c-2.814-9.066-6.03-19.977-6.005-24.15.012-.331.03-.573.047-.746.864-.39 2.938-1 4.382-1.425 5.954-1.638 9.844-6.323 9.68-11.668l-.001-.033-.002-.033c-.35-7.181-5.903-13.145-12.644-13.576l-.113-.007h-.112c-5.081-.01-24.871-.01-24.895-.01zm-51.188 58.825h64.821l-24.67 47.34a6.062 6.062 0 00-5.976-5.093 6.061 6.061 0 00-6.052 5.892 21.3 21.3 0 00-.512.125l-27.61-48.264zm-18.075 33.623l8.897-25.287 26.299 45.967a24.689 24.689 0 00-6.68 11.564h-5.733c-1.931-13.887-10.359-25.813-22.783-32.244zm115.536 8.298a30.621 30.621 0 017.822-1.03c17.065.033 30.984 13.955 31.014 31.036-.03 17.067-13.949 30.984-31.027 31.01-17.067-.026-30.985-13.943-31.014-31.023.017-9.73 4.641-18.858 12.297-24.682 4.552 11.142 9.101 20.486 13.545 27.823a6.097 6.097 0 005.183 2.913c1.1 0 2.18-.3 3.122-.866 2.852-1.733 3.773-5.455 2.064-8.303-4.216-6.937-8.582-15.961-13.006-26.878zm-135.41 61.015c-17.078-.033-30.995-13.948-31.025-31.022.03-17.068 13.95-30.99 31.032-31.024 1.434.002 2.894.115 4.367.336l-10.093 28.679a6.093 6.093 0 00.778 5.515 6.06 6.06 0 004.941 2.548h30.377c-2.858 14.252-15.517 24.939-30.377 24.968zm8.532-37.069l7.255-20.627a30.927 30.927 0 0114.595 20.627h-21.85zm69.644 7.53l4.342-8.334a12.274 12.274 0 012.08 6.86 12.355 12.355 0 01-6.422 10.857v-9.384zm-16.896-7.53c.066-.118.135-.234.204-.35l.201.35h-.405zm-.014 12.101h4.804v4.8a12.366 12.366 0 01-4.804-4.8z"/></svg>