<svg class="svgOrigin" xmlns="http://www.w3.org/2000/svg" width="400" height="400"><circle fill="red" cx="200" cy="200" r="197"/><circle transform="rotate(-45 200 200)" fill="none" stroke="#FFF" stroke-width="5.629" cx="200" cy="200" r="188.557"/><path fill="#FFF" d="M300.896 280.987c17.82-22.172 28.517-50.327 28.517-80.987 0-71.473-57.945-129.413-129.413-129.413-30.663 0-58.82 10.69-80.993 28.517l41.1 41.1c-10.118 2.114-19.397 6.443-27.416 12.379l-33.582-33.581C81.283 141.175 70.592 169.329 70.592 200c0 71.468 57.938 129.402 129.408 129.402 30.67 0 58.825-10.685 80.999-28.505l-49.701-49.7c5.936-8.026 10.267-17.304 12.379-27.43l57.22 57.22z"/><path fill="#0334A6" d="M195.952 209.124c0 11.565-9.375 20.942-20.943 20.942-11.565 0-20.942-9.377-20.942-20.942 0-11.564 9.377-20.942 20.942-20.942 11.568 0 20.943 9.378 20.943 20.942z"/><path fill="#0334A6" d="M314.946 153.006c-1.166-2.888-4.441-4.287-7.322-3.13l-5.903 2.37-6.278-15.647a5.622 5.622 0 00-7.32-3.133 5.63 5.63 0 00-3.134 7.322l6.288 15.649-58.77 23.566c-10.718-21.143-32.595-35.665-57.915-35.665-35.877 0-64.954 29.078-64.968 64.957a65.013 65.013 0 002.809 18.864l-21.104 8.465c-2.878 1.15-4.277 4.425-3.12 7.316a5.604 5.604 0 005.216 3.529 5.54 5.54 0 002.1-.4l21.143-8.482c10.716 21.145 32.598 35.662 57.924 35.662 35.874 0 64.951-29.077 64.962-64.954-.011-6.564-1-12.893-2.815-18.865l63.938-25.641v-.003s.01-.003.01-.006l11.126-4.46a5.624 5.624 0 003.133-7.314zm-92.916 31.202l-30 12.03 19.722-25.612a53.957 53.957 0 0110.278 13.582zm-58.621 77.59a53.463 53.463 0 01-18.774-7.964l22.704-26.895-3.93 34.86zm14.646-29.478l11.207 28.577c-4.666 1.33-9.572 2.094-14.662 2.106l3.455-30.683zm5.188-43.118l4.123-31.999a53.359 53.359 0 0115.495 6.528l-19.618 25.47zm-7.03-33.527l-3.987 30.996-11.48-29.193c4.424-1.184 9.05-1.88 13.846-1.888.547 0 1.077.069 1.621.085zm-25.983 5.83l11.915 30.283-25.665-20.277c3.997-4.032 8.647-7.399 13.75-10.007zm3.538 38.017l-30.603-5.593a53.456 53.456 0 016.288-13.615l24.315 19.208zm-32.879 9.773c.003-1.451.108-2.875.223-4.293l33.72 6.156-31.854 12.775c-1.322-4.661-2.08-9.554-2.089-14.638zm6.26 25.092l28.996-11.631-20.112 23.834a53.954 53.954 0 01-8.883-12.203zm72.557 22.333l-12.51-31.93 27.7 19.865c-4.277 4.881-9.408 8.993-15.19 12.065zm-5.66-40.867l33.503 1.913c-1.023 6.342-3.1 12.317-6.123 17.71l-27.38-19.623zm34.097-9.329l-27.596-1.577 25.65-10.29c1.077 3.801 1.726 7.773 1.946 11.867z"/></svg>