<svg xmlns="http://www.w3.org/2000/svg" viewBox="0 0 100 100"><circle fill="red" cx="50" cy="50" r="49"/><circle transform="rotate(-76.718 50 50)" fill="none" stroke="#FFF" stroke-width="1.4" cx="50" cy="50" r="46.9"/><path fill="#FFF" d="M20.417 62.694L42.931 49.94 20.46 37.21A32.076 32.076 0 0017.813 50c0 4.509.93 8.799 2.604 12.694zM79.355 62.527l.272.07A32.082 32.082 0 0082.187 50c0-4.534-.94-8.847-2.632-12.76l-22.421 12.7 22.22 12.587zM76.089 31.157C70.24 23.075 60.739 17.812 50 17.812c-10.726 0-20.22 5.251-26.07 13.319l26.102 14.786 26.057-14.76zM24.236 68.577l-.288.318C29.798 76.947 39.285 82.188 50 82.188c10.774 0 20.307-5.301 26.15-13.43L50.033 53.964 24.236 68.577z"/><g fill="#0B3CA8"><path d="M34.902 66.417a.695.695 0 00.99 0 .7.7 0 000-.99l-1.482-1.482a.702.702 0 00-.99 0 .705.705 0 000 .992l1.482 1.48z"/><path d="M43.205 74.831h-.647a.687.687 0 00.184-.447v-6.72a.7.7 0 00-.698-.701h-1.821l2.025-2.026c.2-.199.258-.502.152-.765a.702.702 0 00-.648-.43h-4.528a.7.7 0 000 1.399h2.837l-1.819 1.822h-1.075a.7.7 0 00-.7.701v6.008a.7.7 0 101.402 0h-.003V72.64h.98v1.032a.7.7 0 00.701.698.7.7 0 00.702-.698V72.64h1.094v.834l-.225-.059a.698.698 0 00-.854.5c-.1.373.125.756.498.855l.227.06h-3.242c-.273.038-1.069-.427-1.65-.977-.3-.271-.562-.543-.748-.746.1-.238.18-.487.196-.771 0-.21.005-.533.005-.892 0-.533-.013-1.15-.119-1.7-.108-.474-.262-1.26-1.224-1.357-.769-.003-1.45-.003-1.453 0a.699.699 0 000 1.398h1.25c.085.281.167 1.05.148 1.66 0 .341-.008.656-.008.89.04.031-.292.71-.704 1.183-.4.5-.803.903-.803.907a.696.696 0 000 .989.693.693 0 00.99 0c.011-.012.453-.45.909-1.023l.045-.062c.678.73 1.846 1.805 3.166 1.9h5.458a.699.699 0 000-1.399zm-1.862-5.749h-1.094v-.718h1.094v.718zm-2.496-.718v.718h-.98v-.718h.98zm-.98 2.876v-.757h.98v.757h-.98zm2.382 0v-.757h1.094v.757h-1.094zM45.278 68.682a.695.695 0 00.46-.171c1.94-1.687 2.677-3.51 2.705-3.57a.698.698 0 00-.387-.91.696.696 0 00-.91.383c0 .003-.145.365-.518.946a9.74 9.74 0 01-1.81 2.093.7.7 0 00.46 1.229zM48.269 68.607a.7.7 0 00-.944.301s-.256.498-.69 1.115c-.429.619-1.039 1.331-1.623 1.699a.698.698 0 00-.214.965.693.693 0 00.966.214c.106-.069.201-.152.302-.23v2.857a.702.702 0 101.403 0v-4.276c.675-.877 1.076-1.68 1.1-1.704a.695.695 0 00-.3-.94zM54.86 67.763h-4.397c-.387 0-.7.312-.7.7 0 .387.313.7.7.7h1.313v5.511a4.295 4.295 0 01-.223-.036c-.125-.025-.223-.05-.223-.048a.702.702 0 00-.376 1.351l-.002-.003c.033.005.48.142.988.145.2-.003.418-.01.682-.137.267-.1.576-.5.554-.879v-5.905h1.684a.698.698 0 00.699-.7c0-.387-.312-.7-.699-.7zM50.878 65.377h2.933a.698.698 0 000-1.398h-2.933a.698.698 0 100 1.398zM66.167 74.831h-3.616v-4.85h3.616a.7.7 0 100-1.4h-3.616v-3.903a.698.698 0 10-1.399 0V74.83h-1.879v-5.868a.7.7 0 10-1.399 0v5.868h-.942a.7.7 0 00-.7.698c0 .387.316.7.7.7h1.636l.003.001h7.596a.7.7 0 100-1.398z"/></g></svg>