<svg class="svgOrigin" xmlns="http://www.w3.org/2000/svg" width="400" height="400"><circle fill="#0334A6" cx="200" cy="200" r="196.875"/><circle fill="none" stroke="#FFF" stroke-width="5.625" cx="200" cy="200" r="188.438"/><path fill="#FFF" d="M223.049 134.285h-65.02c10.393-12.414 22.146-26.713 27.227-33.826 10.053-14.09-8.042-24.478-17.773-19.111-8.058 4.444-110.418 68.137-110.418 68.137s-8.63 5.35-8.63 7.306c0 1.955 8.63 7.3 8.63 7.3s102.36 63.71 110.418 68.148c9.731 5.362 27.826-5.031 17.773-19.116-5.08-7.12-16.834-21.418-27.227-33.827l65.02-.01c29.52.049 53.416 23.95 53.47 53.48v83.354h45v-83.353c-.01-54.399-44.087-98.47-98.47-98.482z"/></svg>