<svg class="svgOrigin" xmlns="http://www.w3.org/2000/svg" width="400" height="400"><circle fill="red" cx="200" cy="200" r="197"/><path fill="none" stroke="#FFF" stroke-width="11.257" d="M294.328 222.938c-2.287-1.43-7.057-4.728-7.057-8.18v-10.02c0-2.287-17.392-11.873-17.392-12.928v-12.878a6.993 6.993 0 00-6.992-6.998h-19.513a6.997 6.997 0 01-6.992-6.997v-16.374a6.996 6.996 0 00-6.991-6.998H107.346a6.996 6.996 0 00-6.995 6.997v59.886c0 10.51 3.727 11.164 11.175 11.164s8.78 11.175 14.5 11.175h19.9c0 6.986 5.662 12.648 12.648 12.648 6.987 0 12.648-5.662 12.648-12.648h85.481c0 6.986 5.662 12.648 12.649 12.648 6.986 0 12.647-5.662 12.647-12.648 0-.825-.094-1.622-.242-2.402h11.141c3.87 0 3.728-4.019 1.43-5.447z"/><circle transform="rotate(-45 200 200)" fill="none" stroke="#FFF" stroke-width="5.629" cx="200" cy="200" r="188.557"/><path fill="#FFF" d="M70.592 200c0 71.468 57.938 129.402 129.408 129.402 30.666 0 58.82-10.685 80.993-28.505L99.11 119.002C81.283 141.175 70.592 169.329 70.592 200zM329.407 200c0-71.473-57.934-129.413-129.407-129.413-30.663 0-58.82 10.69-80.993 28.517l181.89 181.883c17.825-22.172 28.51-50.327 28.51-80.987z"/><path fill="#0334A6" d="M294.328 222.938c-2.287-1.43-7.057-4.728-7.057-8.18v-10.02c0-2.287-17.392-11.873-17.392-12.928v-12.878a6.993 6.993 0 00-6.992-6.998h-19.513a6.997 6.997 0 01-6.992-6.997v-16.374a6.996 6.996 0 00-6.991-6.998H107.346a6.996 6.996 0 00-6.995 6.997v59.886c0 10.51 3.727 11.164 11.175 11.164s8.78 11.175 14.5 11.175h19.9c0 6.986 5.662 12.648 12.648 12.648 6.987 0 12.648-5.662 12.648-12.648h85.481c0 6.986 5.662 12.648 12.649 12.648 6.986 0 12.647-5.662 12.647-12.648 0-.825-.094-1.622-.242-2.402h11.141c3.87 0 3.728-4.019 1.43-5.447z"/><path fill="#FFF" d="M263.635 188.677c0 1.55-1.27 2.814-2.815 2.814h-5.249a2.823 2.823 0 01-2.814-2.814v-9.075c0-1.55 1.27-2.814 2.814-2.814h5.25a2.823 2.823 0 012.814 2.814v9.075zM246.722 187.017c0 .748-.61 1.363-1.364 1.363h-1.698a1.37 1.37 0 01-1.363-1.363v-5.755a1.37 1.37 0 011.363-1.363h1.698c.753 0 1.364.615 1.364 1.363v5.755z"/></svg>